font.ufo
<glyph name="exclam" format="2">
	<unicode hex="0021"/>
	<advance width="290"/>
	<outline>
		<contour>
			<point x="116" y="199" type="line"/>
			<point x="173" y="199" type="line"/>
			<point x="185" y="576" type="line"/>
			<point x="187" y="670" type="line"/>
			<point x="103" y="670" type="line"/>
			<point x="105" y="576" type="line"/>
		</contour>
		<contour>
			<point x="145" y="-12" type="curve" smooth="yes"/>
			<point x="178" y="-12"/>
			<point x="205" y="14"/>
			<point x="205" y="51" type="curve" smooth="yes"/>
			<point x="205" y="89"/>
			<point x="178" y="115"/>
			<point x="145" y="115" type="curve" smooth="yes"/>
			<point x="112" y="115"/>
			<point x="85" y="89"/>
			<point x="85" y="51" type="curve" smooth="yes"/>
			<point x="85" y="14"/>
			<point x="112" y="-12"/>
		</contour>
	</outline>
</glyph>
<glyph name="numbersign" format="2">
	<unicode hex="0023"/>
	<advance width="497"/>
	<outline>
		<contour>
			<point x="88" y="0" type="line"/>
			<point x="148" y="0" type="line"/>
			<point x="173" y="201" type="line"/>
			<point x="297" y="201" type="line"/>
			<point x="273" y="0" type="line"/>
			<point x="333" y="0" type="line"/>
			<point x="357" y="201" type="line"/>
			<point x="449" y="201" type="line"/>
			<point x="449" y="264" type="line"/>
			<point x="364" y="264" type="line"/>
			<point x="383" y="407" type="line"/>
			<point x="469" y="407" type="line"/>
			<point x="469" y="470" type="line"/>
			<point x="389" y="470" type="line"/>
			<point x="413" y="650" type="line"/>
			<point x="353" y="650" type="line"/>
			<point x="329" y="470" type="line"/>
			<point x="204" y="470" type="line"/>
			<point x="228" y="650" type="line"/>
			<point x="168" y="650" type="line"/>
			<point x="144" y="470" type="line"/>
			<point x="54" y="470" type="line"/>
			<point x="54" y="407" type="line"/>
			<point x="137" y="407" type="line"/>
			<point x="119" y="264" type="line"/>
			<point x="34" y="264" type="line"/>
			<point x="34" y="201" type="line"/>
			<point x="113" y="201" type="line"/>
		</contour>
		<contour>
			<point x="179" y="264" type="line"/>
			<point x="197" y="407" type="line"/>
			<point x="323" y="407" type="line"/>
			<point x="304" y="264" type="line"/>
		</contour>
	</outline>
</glyph>
<glyph name="dollar" format="2">
	<unicode hex="0024"/>
	<advance width="497"/>
	<outline>
		<contour>
			<point x="245" y="-12" type="curve" smooth="yes"/>
			<point x="361" y="-12"/>
			<point x="437" y="61"/>
			<point x="437" y="171" type="curve" smooth="yes"/>
			<point x="437" y="361"/>
			<point x="158" y="356"/>
			<point x="158" y="485" type="curve" smooth="yes"/>
			<point x="158" y="542"/>
			<point x="197" y="581"/>
			<point x="257" y="581" type="curve" smooth="yes"/>
			<point x="311" y="581"/>
			<point x="348" y="561"/>
			<point x="380" y="526" type="curve"/>
			<point x="425" y="571" type="line"/>
			<point x="386" y="618"/>
			<point x="334" y="650"/>
			<point x="256" y="650" type="curve" smooth="yes"/>
			<point x="150" y="650"/>
			<point x="77" y="581"/>
			<point x="77" y="481" type="curve" smooth="yes"/>
			<point x="77" y="302"/>
			<point x="356" y="305"/>
			<point x="356" y="165" type="curve" smooth="yes"/>
			<point x="356" y="100"/>
			<point x="319" y="57"/>
			<point x="245" y="57" type="curve" smooth="yes"/>
			<point x="184" y="57"/>
			<point x="133" y="81"/>
			<point x="91" y="120" type="curve"/>
			<point x="52" y="69" type="line"/>
			<point x="97" y="18"/>
			<point x="168" y="-12"/>
		</contour>
		<contour>
			<point x="222" y="-110" type="line"/>
			<point x="283" y="-110" type="line"/>
			<point x="283" y="17" type="line"/>
			<point x="222" y="17" type="line"/>
		</contour>
		<contour>
			<point x="222" y="619" type="line"/>
			<point x="283" y="619" type="line"/>
			<point x="283" y="748" type="line"/>
			<point x="222" y="748" type="line"/>
		</contour>
	</outline>
</glyph>
<glyph name="ampersand" format="2">
	<unicode hex="0026"/>
	<advance width="610"/>
	<outline>
		<contour>
			<point x="232" y="-12" type="curve" smooth="yes"/>
			<point x="324" y="-12"/>
			<point x="394" y="30"/>
			<point x="450" y="91" type="curve" smooth="yes"/>
			<point x="514" y="166"/>
			<point x="558" y="256"/>
			<point x="587" y="354" type="curve"/>
			<point x="509" y="354" type="line"/>
			<point x="485" y="264"/>
			<point x="445" y="189"/>
			<point x="392" y="131" type="curve" smooth="yes"/>
			<point x="348" y="86"/>
			<point x="296" y="54"/>
			<point x="242" y="54" type="curve" smooth="yes"/>
			<point x="170" y="54"/>
			<point x="113" y="102"/>
			<point x="113" y="175" type="curve" smooth="yes"/>
			<point x="113" y="319"/>
			<point x="399" y="370"/>
			<point x="399" y="538" type="curve" smooth="yes"/>
			<point x="399" y="615"/>
			<point x="351" y="668"/>
			<point x="270" y="668" type="curve" smooth="yes"/>
			<point x="179" y="668"/>
			<point x="118" y="600"/>
			<point x="118" y="512" type="curve" smooth="yes"/>
			<point x="118" y="373"/>
			<point x="257" y="191"/>
			<point x="401" y="79" type="curve" smooth="yes"/>
			<point x="461" y="33"/>
			<point x="520" y="3"/>
			<point x="572" y="-12" type="curve"/>
			<point x="595" y="57" type="line"/>
			<point x="553" y="69"/>
			<point x="502" y="96"/>
			<point x="450" y="135" type="curve" smooth="yes"/>
			<point x="324" y="228"/>
			<point x="190" y="391"/>
			<point x="190" y="514" type="curve" smooth="yes"/>
			<point x="190" y="568"/>
			<point x="221" y="609"/>
			<point x="270" y="609" type="curve" smooth="yes"/>
			<point x="314" y="609"/>
			<point x="332" y="575"/>
			<point x="332" y="537" type="curve" smooth="yes"/>
			<point x="332" y="396"/>
			<point x="32" y="365"/>
			<point x="32" y="170" type="curve" smooth="yes"/>
			<point x="32" y="64"/>
			<point x="113" y="-12"/>
		</contour>
	</outline>
</glyph>
<glyph name="quotesingle" format="2">
	<unicode hex="0027"/>
	<advance width="250"/>
	<outline>
		<contour>
			<point x="99" y="430" type="line"/>
			<point x="150" y="430" type="line"/>
			<point x="166" y="597" type="line"/>
			<point x="168" y="690" type="line"/>
			<point x="80" y="690" type="line"/>
			<point x="83" y="597" type="line"/>
		</contour>
	</outline>
</glyph>
<glyph name="asterisk" format="2">
	<unicode hex="002A"/>
	<advance width="418"/>
	<outline>
		<contour>
			<point x="138" y="419" type="line"/>
			<point x="210" y="505" type="line"/>
			<point x="280" y="419" type="line"/>
			<point x="320" y="448" type="line"/>
			<point x="263" y="542" type="line"/>
			<point x="361" y="583" type="line"/>
			<point x="346" y="629" type="line"/>
			<point x="243" y="605" type="line"/>
			<point x="234" y="712" type="line"/>
			<point x="184" y="712" type="line"/>
			<point x="175" y="604" type="line"/>
			<point x="73" y="629" type="line"/>
			<point x="58" y="583" type="line"/>
			<point x="155" y="542" type="line"/>
			<point x="98" y="448" type="line"/>
		</contour>
	</outline>
</glyph>
<glyph name="plus" format="2">
	<unicode hex="002B"/>
	<advance width="497"/>
	<outline>
		<contour>
			<point x="216" y="104" type="line"/>
			<point x="282" y="104" type="line"/>
			<point x="282" y="299" type="line"/>
			<point x="463" y="299" type="line"/>
			<point x="463" y="361" type="line"/>
			<point x="282" y="361" type="line"/>
			<point x="282" y="556" type="line"/>
			<point x="216" y="556" type="line"/>
			<point x="216" y="361" type="line"/>
			<point x="34" y="361" type="line"/>
			<point x="34" y="299" type="line"/>
			<point x="216" y="299" type="line"/>
		</contour>
	</outline>
</glyph>
<glyph name="comma" format="2">
	<unicode hex="002C"/>
	<advance width="250"/>
	<outline>
		<contour>
			<point x="67" y="-170" type="line"/>
			<point x="149" y="-137"/>
			<point x="199" y="-69"/>
			<point x="199" y="17" type="curve" smooth="yes"/>
			<point x="199" y="78"/>
			<point x="173" y="115"/>
			<point x="129" y="115" type="curve" smooth="yes"/>
			<point x="96" y="115"/>
			<point x="68" y="93"/>
			<point x="68" y="57" type="curve" smooth="yes"/>
			<point x="68" y="19"/>
			<point x="95" y="-1"/>
			<point x="127" y="-1" type="curve" smooth="yes"/>
			<point x="143" y="-1"/>
			<point x="158" y="3"/>
			<point x="169" y="16" type="curve"/>
			<point x="129" y="77" type="line"/>
			<point x="138" y="2" type="line"/>
			<point x="138" y="-53"/>
			<point x="104" y="-97"/>
			<point x="47" y="-122" type="curve"/>
		</contour>
	</outline>
</glyph>
<glyph name="hyphen" format="1">
	<unicode hex="002D"/>
	<advance width="311"/>
	<outline>
		<contour>
			<point x="41" y="219" type="line"/>
			<point x="271" y="219" type="line"/>
			<point x="271" y="282" type="line"/>
			<point x="41" y="282" type="line"/>
		</contour>
	</outline>
</glyph>
<glyph name="period" format="2">
	<unicode hex="002E"/>
	<advance width="249"/>
	<outline>
		<contour>
			<point x="125" y="-12" type="curve" smooth="yes"/>
			<point x="157" y="-12"/>
			<point x="184" y="14"/>
			<point x="184" y="50" type="curve" smooth="yes"/>
			<point x="184" y="88"/>
			<point x="157" y="114"/>
			<point x="125" y="114" type="curve" smooth="yes"/>
			<point x="92" y="114"/>
			<point x="65" y="88"/>
			<point x="65" y="50" type="curve" smooth="yes"/>
			<point x="65" y="14"/>
			<point x="92" y="-12"/>
		</contour>
	</outline>
</glyph>
<glyph name="slash" format="2">
	<unicode hex="002F"/>
	<advance width="350"/>
	<outline>
		<contour>
			<point x="10" y="-160" type="line"/>
			<point x="70" y="-160" type="line"/>
			<point x="336" y="710" type="line"/>
			<point x="276" y="710" type="line"/>
		</contour>
	</outline>
</glyph>
<glyph name="two" format="2">
	<unicode hex="0032"/>
	<advance width="497"/>
	<outline>
		<contour>
			<point x="40" y="0" type="line"/>
			<point x="452" y="0" type="line"/>
			<point x="452" y="71" type="line"/>
			<point x="261" y="71" type="line" smooth="yes"/>
			<point x="228" y="71"/>
			<point x="189" y="69"/>
			<point x="154" y="66" type="curve"/>
			<point x="309" y="224"/>
			<point x="421" y="339"/>
			<point x="421" y="463" type="curve" smooth="yes"/>
			<point x="421" y="575"/>
			<point x="347" y="650"/>
			<point x="229" y="650" type="curve" smooth="yes"/>
			<point x="147" y="650"/>
			<point x="90" y="611"/>
			<point x="37" y="551" type="curve"/>
			<point x="84" y="506" type="line"/>
			<point x="120" y="548"/>
			<point x="166" y="582"/>
			<point x="219" y="582" type="curve" smooth="yes"/>
			<point x="300" y="582"/>
			<point x="340" y="531"/>
			<point x="340" y="458" type="curve" smooth="yes"/>
			<point x="340" y="355"/>
			<point x="230" y="237"/>
			<point x="40" y="51" type="curve"/>
		</contour>
	</outline>
</glyph>
<glyph name="three" format="2">
	<unicode hex="0033"/>
	<advance width="497"/>
	<outline>
		<contour>
			<point x="236" y="-12" type="curve" smooth="yes"/>
			<point x="353" y="-12"/>
			<point x="447" y="57"/>
			<point x="447" y="170" type="curve" smooth="yes"/>
			<point x="447" y="258"/>
			<point x="386" y="314"/>
			<point x="309" y="332" type="curve"/>
			<point x="309" y="336" type="line"/>
			<point x="378" y="362"/>
			<point x="424" y="411"/>
			<point x="424" y="488" type="curve" smooth="yes"/>
			<point x="424" y="591"/>
			<point x="344" y="650"/>
			<point x="233" y="650" type="curve" smooth="yes"/>
			<point x="158" y="650"/>
			<point x="99" y="616"/>
			<point x="50" y="570" type="curve"/>
			<point x="94" y="518" type="line"/>
			<point x="132" y="555"/>
			<point x="177" y="582"/>
			<point x="230" y="582" type="curve" smooth="yes"/>
			<point x="298" y="582"/>
			<point x="340" y="543"/>
			<point x="340" y="482" type="curve" smooth="yes"/>
			<point x="340" y="415"/>
			<point x="294" y="363"/>
			<point x="159" y="363" type="curve"/>
			<point x="159" y="300" type="line"/>
			<point x="311" y="300"/>
			<point x="363" y="249"/>
			<point x="363" y="173" type="curve" smooth="yes"/>
			<point x="363" y="102"/>
			<point x="308" y="57"/>
			<point x="231" y="57" type="curve" smooth="yes"/>
			<point x="156" y="57"/>
			<point x="106" y="92"/>
			<point x="68" y="132" type="curve"/>
			<point x="26" y="78" type="line"/>
			<point x="69" y="31"/>
			<point x="134" y="-12"/>
		</contour>
	</outline>
</glyph>
<glyph name="four" format="2">
	<unicode hex="0034"/>
	<advance width="497"/>
	<outline>
		<contour>
			<point x="304" y="0" type="line"/>
			<point x="382" y="0" type="line"/>
			<point x="382" y="638" type="line"/>
			<point x="290" y="638" type="line"/>
			<point x="17" y="231" type="line"/>
			<point x="17" y="176" type="line"/>
			<point x="469" y="176" type="line"/>
			<point x="469" y="242" type="line"/>
			<point x="104" y="242" type="line"/>
			<point x="253" y="459" type="line"/>
			<point x="271" y="491"/>
			<point x="289" y="519"/>
			<point x="305" y="549" type="curve"/>
			<point x="309" y="549" type="line"/>
			<point x="307" y="515"/>
			<point x="304" y="460"/>
			<point x="304" y="427" type="curve" smooth="yes"/>
		</contour>
	</outline>
</glyph>
<glyph name="five" format="2">
	<unicode hex="0035"/>
	<advance width="497"/>
	<outline>
		<contour>
			<point x="234" y="-12" type="curve" smooth="yes"/>
			<point x="345" y="-12"/>
			<point x="449" y="66"/>
			<point x="449" y="204" type="curve" smooth="yes"/>
			<point x="449" y="342"/>
			<point x="360" y="404"/>
			<point x="252" y="404" type="curve" smooth="yes"/>
			<point x="213" y="404"/>
			<point x="184" y="394"/>
			<point x="154" y="378" type="curve"/>
			<point x="171" y="566" type="line"/>
			<point x="418" y="566" type="line"/>
			<point x="418" y="638" type="line"/>
			<point x="98" y="638" type="line"/>
			<point x="77" y="331" type="line"/>
			<point x="121" y="303" type="line"/>
			<point x="159" y="328"/>
			<point x="186" y="341"/>
			<point x="230" y="341" type="curve" smooth="yes"/>
			<point x="312" y="341"/>
			<point x="365" y="290"/>
			<point x="365" y="202" type="curve" smooth="yes"/>
			<point x="365" y="113"/>
			<point x="304" y="57"/>
			<point x="226" y="57" type="curve" smooth="yes"/>
			<point x="151" y="57"/>
			<point x="103" y="92"/>
			<point x="65" y="130" type="curve"/>
			<point x="25" y="75" type="line"/>
			<point x="69" y="31"/>
			<point x="132" y="-12"/>
		</contour>
	</outline>
</glyph>
<glyph name="six" format="2">
	<unicode hex="0036"/>
	<advance width="497"/>
	<outline>
		<contour>
			<point x="268" y="-12" type="curve" smooth="yes"/>
			<point x="371" y="-12"/>
			<point x="457" y="71"/>
			<point x="457" y="193" type="curve" smooth="yes"/>
			<point x="457" y="324"/>
			<point x="386" y="390"/>
			<point x="275" y="390" type="curve" smooth="yes"/>
			<point x="221" y="390"/>
			<point x="162" y="356"/>
			<point x="122" y="303" type="curve"/>
			<point x="125" y="238" type="line"/>
			<point x="168" y="303"/>
			<point x="220" y="328"/>
			<point x="261" y="328" type="curve" smooth="yes"/>
			<point x="340" y="328"/>
			<point x="379" y="276"/>
			<point x="379" y="193" type="curve" smooth="yes"/>
			<point x="379" y="109"/>
			<point x="331" y="53"/>
			<point x="268" y="53" type="curve" smooth="yes"/>
			<point x="177" y="53"/>
			<point x="126" y="138"/>
			<point x="126" y="295" type="curve" smooth="yes"/>
			<point x="126" y="508"/>
			<point x="203" y="581"/>
			<point x="294" y="581" type="curve" smooth="yes"/>
			<point x="334" y="581"/>
			<point x="374" y="561"/>
			<point x="399" y="530" type="curve"/>
			<point x="445" y="582" type="line"/>
			<point x="410" y="621"/>
			<point x="360" y="650"/>
			<point x="291" y="650" type="curve" smooth="yes"/>
			<point x="164" y="650"/>
			<point x="48" y="551"/>
			<point x="48" y="295" type="curve" smooth="yes"/>
			<point x="48" y="90"/>
			<point x="143" y="-12"/>
		</contour>
	</outline>
</glyph>
<glyph name="seven" format="2">
	<unicode hex="0037"/>
	<advance width="497"/>
	<outline>
		<contour>
			<point x="177" y="0" type="curve"/>
			<point x="263" y="0" type="line"/>
			<point x="273" y="249"/>
			<point x="304" y="394"/>
			<point x="455" y="587" type="curve"/>
			<point x="455" y="638" type="line"/>
			<point x="44" y="638" type="line"/>
			<point x="44" y="566" type="line"/>
			<point x="361" y="566" type="line"/>
			<point x="236" y="391"/>
			<point x="188" y="240"/>
		</contour>
	</outline>
</glyph>
<glyph name="eight" format="2">
	<unicode hex="0038"/>
	<advance width="497"/>
	<outline>
		<contour>
			<point x="250" y="-12" type="curve" smooth="yes"/>
			<point x="374" y="-12"/>
			<point x="456" y="63"/>
			<point x="456" y="158" type="curve" smooth="yes"/>
			<point x="456" y="244"/>
			<point x="402" y="289"/>
			<point x="345" y="322" type="curve"/>
			<point x="345" y="326" type="line"/>
			<point x="385" y="356"/>
			<point x="433" y="413"/>
			<point x="433" y="480" type="curve" smooth="yes"/>
			<point x="433" y="579"/>
			<point x="364" y="650"/>
			<point x="253" y="650" type="curve" smooth="yes"/>
			<point x="150" y="650"/>
			<point x="72" y="584"/>
			<point x="72" y="486" type="curve" smooth="yes"/>
			<point x="72" y="419"/>
			<point x="114" y="372"/>
			<point x="161" y="339" type="curve"/>
			<point x="161" y="335" type="line"/>
			<point x="101" y="303"/>
			<point x="41" y="246"/>
			<point x="41" y="163" type="curve" smooth="yes"/>
			<point x="41" y="62"/>
			<point x="130" y="-12"/>
		</contour>
		<contour>
			<point x="295" y="348" type="curve"/>
			<point x="218" y="378"/>
			<point x="148" y="410"/>
			<point x="148" y="486" type="curve" smooth="yes"/>
			<point x="148" y="548"/>
			<point x="192" y="588"/>
			<point x="251" y="588" type="curve" smooth="yes"/>
			<point x="321" y="588"/>
			<point x="362" y="538"/>
			<point x="362" y="476" type="curve" smooth="yes"/>
			<point x="362" y="429"/>
			<point x="338" y="386"/>
		</contour>
		<contour>
			<point x="252" y="50" type="curve" smooth="yes"/>
			<point x="174" y="50"/>
			<point x="116" y="101"/>
			<point x="116" y="171" type="curve" smooth="yes"/>
			<point x="116" y="229"/>
			<point x="154" y="276"/>
			<point x="204" y="309" type="curve"/>
			<point x="296" y="272"/>
			<point x="377" y="243"/>
			<point x="377" y="161" type="curve" smooth="yes"/>
			<point x="377" y="95"/>
			<point x="326" y="50"/>
		</contour>
	</outline>
</glyph>
<glyph name="less" format="2">
	<unicode hex="003C"/>
	<advance width="497"/>
	<outline>
		<contour>
			<point x="463" y="130" type="line"/>
			<point x="463" y="203" type="line"/>
			<point x="253" y="280" type="line"/>
			<point x="119" y="330" type="line"/>
			<point x="119" y="334" type="line"/>
			<point x="253" y="384" type="line"/>
			<point x="463" y="461" type="line"/>
			<point x="463" y="534" type="line"/>
			<point x="34" y="365" type="line"/>
			<point x="34" y="299" type="line"/>
		</contour>
	</outline>
</glyph>
<glyph name="greater" format="2">
	<unicode hex="003E"/>
	<advance width="497"/>
	<outline>
		<contour>
			<point x="34" y="130" type="line"/>
			<point x="463" y="299" type="line"/>
			<point x="463" y="365" type="line"/>
			<point x="34" y="534" type="line"/>
			<point x="34" y="461" type="line"/>
			<point x="245" y="384" type="line"/>
			<point x="378" y="334" type="line"/>
			<point x="378" y="330" type="line"/>
			<point x="245" y="280" type="line"/>
			<point x="34" y="203" type="line"/>
		</contour>
	</outline>
</glyph>
<glyph name="question" format="2">
	<unicode hex="003F"/>
	<advance width="425"/>
	<outline>
		<contour>
			<point x="160" y="199" type="curve"/>
			<point x="233" y="199" type="line"/>
			<point x="217" y="338"/>
			<point x="378" y="391"/>
			<point x="378" y="522" type="curve" smooth="yes"/>
			<point x="378" y="621"/>
			<point x="311" y="682"/>
			<point x="210" y="682" type="curve" smooth="yes"/>
			<point x="137" y="682"/>
			<point x="80" y="647"/>
			<point x="38" y="599" type="curve"/>
			<point x="86" y="556" type="line"/>
			<point x="117" y="591"/>
			<point x="156" y="613"/>
			<point x="200" y="613" type="curve" smooth="yes"/>
			<point x="264" y="613"/>
			<point x="297" y="570"/>
			<point x="297" y="517" type="curve" smooth="yes"/>
			<point x="297" y="411"/>
			<point x="138" y="354"/>
		</contour>
		<contour>
			<point x="198" y="-12" type="curve" smooth="yes"/>
			<point x="231" y="-12"/>
			<point x="258" y="14"/>
			<point x="258" y="51" type="curve" smooth="yes"/>
			<point x="258" y="89"/>
			<point x="231" y="115"/>
			<point x="198" y="115" type="curve" smooth="yes"/>
			<point x="165" y="115"/>
			<point x="139" y="89"/>
			<point x="139" y="51" type="curve" smooth="yes"/>
			<point x="139" y="14"/>
			<point x="165" y="-12"/>
		</contour>
	</outline>
</glyph>
<glyph name="at" format="1">
	<unicode hex="0040"/>
	<advance width="847"/>
	<outline>
		<contour>
			<point x="403" y="-155" type="curve" smooth="yes"/>
			<point x="472" y="-155"/>
			<point x="535" y="-139"/>
			<point x="593" y="-104" type="curve"/>
			<point x="571" y="-55" type="line"/>
			<point x="526" y="-81"/>
			<point x="470" y="-100"/>
			<point x="409" y="-100" type="curve" smooth="yes"/>
			<point x="239" y="-100"/>
			<point x="111" y="11"/>
			<point x="111" y="206" type="curve" smooth="yes"/>
			<point x="111" y="440"/>
			<point x="283" y="591"/>
			<point x="461" y="591" type="curve" smooth="yes"/>
			<point x="643" y="591"/>
			<point x="738" y="473"/>
			<point x="738" y="312" type="curve" smooth="yes"/>
			<point x="738" y="182"/>
			<point x="667" y="105"/>
			<point x="604" y="105" type="curve" smooth="yes"/>
			<point x="549" y="105"/>
			<point x="530" y="143"/>
			<point x="550" y="222" type="curve" smooth="yes"/>
			<point x="589" y="422" type="line"/>
			<point x="534" y="422" type="line"/>
			<point x="523" y="382" type="line"/>
			<point x="521" y="382" type="line"/>
			<point x="503" y="415"/>
			<point x="475" y="430"/>
			<point x="441" y="430" type="curve" smooth="yes"/>
			<point x="324" y="430"/>
			<point x="249" y="305"/>
			<point x="249" y="198" type="curve" smooth="yes"/>
			<point x="249" y="107"/>
			<point x="301" y="57"/>
			<point x="369" y="57" type="curve" smooth="yes"/>
			<point x="413" y="57"/>
			<point x="458" y="86"/>
			<point x="491" y="125" type="curve"/>
			<point x="493" y="125" type="line"/>
			<point x="500" y="75"/>
			<point x="542" y="49"/>
			<point x="596" y="49" type="curve" smooth="yes"/>
			<point x="687" y="49"/>
			<point x="796" y="140"/>
			<point x="796" y="315" type="curve" smooth="yes"/>
			<point x="796" y="512"/>
			<point x="670" y="646"/>
			<point x="468" y="646" type="curve" smooth="yes"/>
			<point x="244" y="646"/>
			<point x="51" y="471"/>
			<point x="51" y="203" type="curve" smooth="yes"/>
			<point x="51" y="-30"/>
			<point x="207" y="-155"/>
		</contour>
		<contour>
			<point x="385" y="113" type="curve" smooth="yes"/>
			<point x="345" y="113"/>
			<point x="315" y="139"/>
			<point x="315" y="203" type="curve" smooth="yes"/>
			<point x="315" y="278"/>
			<point x="363" y="373"/>
			<point x="442" y="373" type="curve" smooth="yes"/>
			<point x="469" y="373"/>
			<point x="487" y="362"/>
			<point x="506" y="331" type="curve"/>
			<point x="477" y="172" type="line"/>
			<point x="443" y="131"/>
			<point x="413" y="113"/>
		</contour>
	</outline>
</glyph>
<glyph name="A" format="2">
	<unicode hex="0041"/>
	<advance width="544"/>
	<outline>
		<contour>
			<point x="3" y="0" type="line"/>
			<point x="88" y="0" type="line"/>
			<point x="204" y="366" type="line" smooth="yes"/>
			<point x="227" y="439"/>
			<point x="248" y="511"/>
			<point x="268" y="587" type="curve"/>
			<point x="272" y="587" type="line"/>
			<point x="293" y="511"/>
			<point x="314" y="439"/>
			<point x="338" y="366" type="curve" smooth="yes"/>
			<point x="452" y="0" type="line"/>
			<point x="541" y="0" type="line"/>
			<point x="320" y="656" type="line"/>
			<point x="224" y="656" type="line"/>
		</contour>
		<contour>
			<point x="119" y="199" type="line"/>
			<point x="422" y="199" type="line"/>
			<point x="422" y="267" type="line"/>
			<point x="119" y="267" type="line"/>
		</contour>
	</outline>
	<anchor name="aboveUC" x="271" y="678"/>
	<anchor name="belowLC" x="271" y="-22"/>
	<anchor name="ogonekUC" x="483" y="0"/>
</glyph>
<glyph name="B" format="2">
	<unicode hex="0042"/>
	<advance width="588"/>
	<outline>
		<contour>
			<point x="90" y="0" type="line"/>
			<point x="300" y="0" type="line" smooth="yes"/>
			<point x="446" y="0"/>
			<point x="548" y="63"/>
			<point x="548" y="192" type="curve" smooth="yes"/>
			<point x="548" y="282"/>
			<point x="493" y="334"/>
			<point x="415" y="349" type="curve"/>
			<point x="415" y="353" type="line"/>
			<point x="476" y="373"/>
			<point x="511" y="431"/>
			<point x="511" y="496" type="curve" smooth="yes"/>
			<point x="511" y="611"/>
			<point x="418" y="656"/>
			<point x="285" y="656" type="curve" smooth="yes"/>
			<point x="90" y="656" type="line"/>
		</contour>
		<contour>
			<point x="174" y="377" type="line"/>
			<point x="174" y="589" type="line"/>
			<point x="274" y="589" type="line" smooth="yes"/>
			<point x="376" y="589"/>
			<point x="428" y="561"/>
			<point x="428" y="485" type="curve" smooth="yes"/>
			<point x="428" y="418"/>
			<point x="382" y="377"/>
			<point x="271" y="377" type="curve" smooth="yes"/>
		</contour>
		<contour>
			<point x="174" y="67" type="line"/>
			<point x="174" y="313" type="line"/>
			<point x="288" y="313" type="line" smooth="yes"/>
			<point x="402" y="313"/>
			<point x="465" y="276"/>
			<point x="465" y="195" type="curve" smooth="yes"/>
			<point x="465" y="107"/>
			<point x="400" y="67"/>
			<point x="288" y="67" type="curve" smooth="yes"/>
		</contour>
	</outline>
	<anchor name="aboveUC" x="287" y="678"/>
	<anchor name="belowLC" x="302" y="-22"/>
</glyph>
<glyph name="C" format="2">
	<unicode hex="0043"/>
	<advance width="571"/>
	<outline>
		<contour>
			<point x="338" y="-12" type="curve" smooth="yes"/>
			<point x="422" y="-12"/>
			<point x="486" y="22"/>
			<point x="539" y="83" type="curve"/>
			<point x="493" y="133" type="line"/>
			<point x="451" y="87"/>
			<point x="404" y="62"/>
			<point x="341" y="62" type="curve" smooth="yes"/>
			<point x="217" y="62"/>
			<point x="139" y="165"/>
			<point x="139" y="330" type="curve" smooth="yes"/>
			<point x="139" y="493"/>
			<point x="221" y="594"/>
			<point x="344" y="594" type="curve" smooth="yes"/>
			<point x="400" y="594"/>
			<point x="443" y="571"/>
			<point x="478" y="535" type="curve"/>
			<point x="524" y="587" type="line"/>
			<point x="485" y="630"/>
			<point x="423" y="668"/>
			<point x="343" y="668" type="curve" smooth="yes"/>
			<point x="176" y="668"/>
			<point x="52" y="539"/>
			<point x="52" y="328" type="curve" smooth="yes"/>
			<point x="52" y="114"/>
			<point x="174" y="-12"/>
		</contour>
	</outline>
	<anchor name="aboveUC" x="329" y="678"/>
	<anchor name="baseLC" x="343" y="0"/>
	<anchor name="belowLC" x="343" y="-22"/>
</glyph>
<glyph name="D" format="2">
	<unicode hex="0044"/>
	<advance width="616"/>
	<outline>
		<contour>
			<point x="90" y="0" type="line"/>
			<point x="258" y="0" type="line" smooth="yes"/>
			<point x="456" y="0"/>
			<point x="564" y="122"/>
			<point x="564" y="331" type="curve" smooth="yes"/>
			<point x="564" y="539"/>
			<point x="456" y="656"/>
			<point x="254" y="656" type="curve" smooth="yes"/>
			<point x="90" y="656" type="line"/>
		</contour>
		<contour>
			<point x="174" y="69" type="line"/>
			<point x="174" y="587" type="line"/>
			<point x="248" y="587" type="line" smooth="yes"/>
			<point x="401" y="587"/>
			<point x="477" y="496"/>
			<point x="477" y="331" type="curve" smooth="yes"/>
			<point x="477" y="165"/>
			<point x="401" y="69"/>
			<point x="248" y="69" type="curve" smooth="yes"/>
		</contour>
	</outline>
	<anchor name="aboveUC" x="308" y="678"/>
	<anchor name="belowLC" x="305" y="-22"/>
</glyph>
<glyph name="E" format="1">
	<unicode hex="0045"/>
	<advance width="527"/>
	<outline>
		<contour>
			<point x="90" y="0" type="line"/>
			<point x="478" y="0" type="line"/>
			<point x="478" y="71" type="line"/>
			<point x="173" y="71" type="line"/>
			<point x="173" y="309" type="line"/>
			<point x="422" y="309" type="line"/>
			<point x="422" y="380" type="line"/>
			<point x="173" y="380" type="line"/>
			<point x="173" y="586" type="line"/>
			<point x="468" y="586" type="line"/>
			<point x="468" y="656" type="line"/>
			<point x="90" y="656" type="line"/>
		</contour>
		<contour>
			<point name="aboveUC" x="290" y="678" type="move"/>
		</contour>
		<contour>
			<point name="ogonekUC" x="405" y="0" type="move"/>
		</contour>
		<contour>
			<point name="belowLC" x="298" y="-22" type="move"/>
		</contour>
	</outline>
</glyph>
<glyph name="F" format="2">
	<unicode hex="0046"/>
	<advance width="495"/>
	<outline>
		<contour>
			<point x="90" y="0" type="line"/>
			<point x="174" y="0" type="line"/>
			<point x="174" y="293" type="line"/>
			<point x="424" y="293" type="line"/>
			<point x="424" y="364" type="line"/>
			<point x="174" y="364" type="line"/>
			<point x="174" y="585" type="line"/>
			<point x="468" y="585" type="line"/>
			<point x="468" y="656" type="line"/>
			<point x="90" y="656" type="line"/>
		</contour>
	</outline>
	<anchor name="aboveUC" x="286" y="678"/>
	<anchor name="belowLC" x="135" y="-22"/>
</glyph>
<glyph name="G" format="2">
	<unicode hex="0047"/>
	<advance width="617"/>
	<outline>
		<contour>
			<point x="348" y="-12" type="curve" smooth="yes"/>
			<point x="436" y="-12"/>
			<point x="508" y="20"/>
			<point x="551" y="64" type="curve"/>
			<point x="551" y="340" type="line"/>
			<point x="335" y="340" type="line"/>
			<point x="335" y="271" type="line"/>
			<point x="474" y="271" type="line"/>
			<point x="474" y="100" type="line"/>
			<point x="448" y="76"/>
			<point x="403" y="62"/>
			<point x="356" y="62" type="curve" smooth="yes"/>
			<point x="216" y="62"/>
			<point x="139" y="165"/>
			<point x="139" y="330" type="curve" smooth="yes"/>
			<point x="139" y="493"/>
			<point x="223" y="594"/>
			<point x="355" y="594" type="curve" smooth="yes"/>
			<point x="421" y="594"/>
			<point x="463" y="569"/>
			<point x="496" y="535" type="curve"/>
			<point x="542" y="587" type="line"/>
			<point x="504" y="628"/>
			<point x="444" y="668"/>
			<point x="353" y="668" type="curve" smooth="yes"/>
			<point x="179" y="668"/>
			<point x="52" y="539"/>
			<point x="52" y="328" type="curve" smooth="yes"/>
			<point x="52" y="114"/>
			<point x="175" y="-12"/>
		</contour>
	</outline>
	<anchor name="aboveUC" x="351" y="678"/>
	<anchor name="belowLC" x="351" y="-22"/>
</glyph>
<glyph name="H" format="2">
	<unicode hex="0048"/>
	<advance width="652"/>
	<outline>
		<contour>
			<point x="90" y="0" type="line"/>
			<point x="174" y="0" type="line"/>
			<point x="174" y="308" type="line"/>
			<point x="478" y="308" type="line"/>
			<point x="478" y="0" type="line"/>
			<point x="562" y="0" type="line"/>
			<point x="562" y="656" type="line"/>
			<point x="478" y="656" type="line"/>
			<point x="478" y="382" type="line"/>
			<point x="174" y="382" type="line"/>
			<point x="174" y="656" type="line"/>
			<point x="90" y="656" type="line"/>
		</contour>
	</outline>
	<anchor name="aboveUC" x="325" y="678"/>
	<anchor name="belowLC" x="325" y="-22"/>
</glyph>
<glyph name="I" format="1">
	<unicode hex="0049"/>
	<advance width="263"/>
	<outline>
		<contour>
			<point x="90" y="0" type="line"/>
			<point x="173" y="0" type="line"/>
			<point x="173" y="656" type="line"/>
			<point x="90" y="656" type="line"/>
		</contour>
		<contour>
			<point name="aboveUC" x="131" y="678" type="move"/>
		</contour>
		<contour>
			<point name="ogonekUC" x="108" y="0" type="move"/>
		</contour>
		<contour>
			<point name="belowLC" x="131" y="-22" type="move"/>
		</contour>
	</outline>
</glyph>
<glyph name="J" format="2">
	<unicode hex="004A"/>
	<advance width="480"/>
	<outline>
		<contour>
			<point x="207" y="-12" type="curve" smooth="yes"/>
			<point x="339" y="-12"/>
			<point x="393" y="80"/>
			<point x="393" y="195" type="curve" smooth="yes"/>
			<point x="393" y="656" type="line"/>
			<point x="309" y="656" type="line"/>
			<point x="309" y="203" type="line" smooth="yes"/>
			<point x="309" y="102"/>
			<point x="274" y="61"/>
			<point x="202" y="61" type="curve" smooth="yes"/>
			<point x="154" y="61"/>
			<point x="117" y="83"/>
			<point x="89" y="131" type="curve"/>
			<point x="33" y="94" type="line"/>
			<point x="69" y="23"/>
			<point x="128" y="-12"/>
		</contour>
	</outline>
	<anchor name="aboveUC" x="346" y="678"/>
	<anchor name="belowLC" x="251" y="-22"/>
</glyph>
<glyph name="K" format="1">
	<unicode hex="004B"/>
	<advance width="579"/>
	<outline>
		<contour>
			<point x="90" y="0" type="line"/>
			<point x="173" y="0" type="line"/>
			<point x="173" y="208" type="line"/>
			<point x="286" y="341" type="line"/>
			<point x="482" y="0" type="line"/>
			<point x="575" y="0" type="line"/>
			<point x="338" y="406" type="line"/>
			<point x="543" y="656" type="line"/>
			<point x="449" y="656" type="line"/>
			<point x="176" y="327" type="line"/>
			<point x="173" y="327" type="line"/>
			<point x="173" y="656" type="line"/>
			<point x="90" y="656" type="line"/>
		</contour>
		<contour>
			<point name="aboveUC" x="311" y="678" type="move"/>
		</contour>
		<contour>
			<point name="belowLC" x="328" y="-22" type="move"/>
		</contour>
	</outline>
</glyph>
<glyph name="L" format="2">
	<unicode hex="004C"/>
	<advance width="486"/>
	<outline>
		<contour>
			<point x="90" y="0" type="line"/>
			<point x="460" y="0" type="line"/>
			<point x="460" y="71" type="line"/>
			<point x="174" y="71" type="line"/>
			<point x="174" y="656" type="line"/>
			<point x="90" y="656" type="line"/>
		</contour>
	</outline>
	<anchor name="aboveUC" x="132" y="678"/>
	<anchor name="belowLC" x="289" y="-22"/>
</glyph>
<glyph name="M" format="2">
	<unicode hex="004D"/>
	<advance width="727"/>
	<outline>
		<contour>
			<point x="90" y="0" type="line"/>
			<point x="165" y="0" type="line"/>
			<point x="165" y="361" type="line" smooth="yes"/>
			<point x="165" y="419"/>
			<point x="159" y="504"/>
			<point x="155" y="563" type="curve"/>
			<point x="159" y="563" type="line"/>
			<point x="211" y="406" type="line"/>
			<point x="335" y="66" type="line"/>
			<point x="390" y="66" type="line"/>
			<point x="514" y="406" type="line"/>
			<point x="566" y="563" type="line"/>
			<point x="570" y="563" type="line"/>
			<point x="566" y="504"/>
			<point x="559" y="419"/>
			<point x="559" y="361" type="curve" smooth="yes"/>
			<point x="559" y="0" type="line"/>
			<point x="637" y="0" type="line"/>
			<point x="637" y="656" type="line"/>
			<point x="536" y="656" type="line"/>
			<point x="412" y="306" type="line"/>
			<point x="396" y="261"/>
			<point x="383" y="214"/>
			<point x="367" y="169" type="curve"/>
			<point x="363" y="169" type="line"/>
			<point x="347" y="214"/>
			<point x="332" y="261"/>
			<point x="316" y="306" type="curve"/>
			<point x="190" y="656" type="line"/>
			<point x="90" y="656" type="line"/>
		</contour>
	</outline>
	<anchor name="aboveUC" x="363" y="678"/>
	<anchor name="belowLC" x="365" y="-22"/>
</glyph>
<glyph name="N" format="2">
	<unicode hex="004E"/>
	<advance width="647"/>
	<outline>
		<contour>
			<point x="90" y="0" type="line"/>
			<point x="170" y="0" type="line"/>
			<point x="170" y="345" type="line" smooth="yes"/>
			<point x="170" y="413"/>
			<point x="163" y="484"/>
			<point x="158" y="550" type="curve"/>
			<point x="162" y="550" type="line"/>
			<point x="184" y="502"/>
			<point x="208" y="453"/>
			<point x="233" y="409" type="curve" smooth="yes"/>
			<point x="467" y="0" type="line"/>
			<point x="557" y="0" type="line"/>
			<point x="557" y="656" type="line"/>
			<point x="477" y="656" type="line"/>
			<point x="477" y="314" type="line" smooth="yes"/>
			<point x="477" y="246"/>
			<point x="484" y="174"/>
			<point x="489" y="106" type="curve"/>
			<point x="485" y="106" type="line"/>
			<point x="462" y="154"/>
			<point x="439" y="203"/>
			<point x="414" y="247" type="curve" smooth="yes"/>
			<point x="180" y="656" type="line"/>
			<point x="90" y="656" type="line"/>
		</contour>
	</outline>
	<anchor name="aboveUC" x="334" y="678"/>
	<anchor name="belowLC" x="331" y="-22"/>
</glyph>
<glyph name="O" format="1">
	<unicode hex="004F"/>
	<advance width="664"/>
	<outline>
		<contour>
			<point x="332" y="-12" type="curve" smooth="yes"/>
			<point x="497" y="-12"/>
			<point x="613" y="120"/>
			<point x="613" y="331" type="curve" smooth="yes"/>
			<point x="613" y="540"/>
			<point x="497" y="668"/>
			<point x="332" y="668" type="curve" smooth="yes"/>
			<point x="167" y="668"/>
			<point x="52" y="541"/>
			<point x="52" y="331" type="curve" smooth="yes"/>
			<point x="52" y="120"/>
			<point x="167" y="-12"/>
		</contour>
		<contour>
			<point x="332" y="61" type="curve" smooth="yes"/>
			<point x="215" y="61"/>
			<point x="138" y="167"/>
			<point x="138" y="331" type="curve" smooth="yes"/>
			<point x="138" y="494"/>
			<point x="215" y="595"/>
			<point x="332" y="595" type="curve" smooth="yes"/>
			<point x="449" y="595"/>
			<point x="526" y="494"/>
			<point x="526" y="331" type="curve" smooth="yes"/>
			<point x="526" y="167"/>
			<point x="449" y="61"/>
		</contour>
		<contour>
			<point name="aboveUC" x="332" y="678" type="move"/>
		</contour>
		<contour>
			<point name="belowLC" x="332" y="-22" type="move"/>
		</contour>
		<contour>
			<point name="ogonekUC" x="332" y="0" type="move"/>
		</contour>
		<contour>
			<point name="hornLC" x="469" y="646" type="move"/>
		</contour>
	</outline>
</glyph>
<glyph name="P" format="2">
	<unicode hex="0050"/>
	<advance width="567"/>
	<outline>
		<contour>
			<point x="90" y="0" type="line"/>
			<point x="174" y="0" type="line"/>
			<point x="174" y="260" type="line"/>
			<point x="281" y="260" type="line" smooth="yes"/>
			<point x="425" y="260"/>
			<point x="524" y="324"/>
			<point x="524" y="463" type="curve" smooth="yes"/>
			<point x="524" y="607"/>
			<point x="424" y="656"/>
			<point x="277" y="656" type="curve" smooth="yes"/>
			<point x="90" y="656" type="line"/>
		</contour>
		<contour>
			<point x="174" y="328" type="line"/>
			<point x="174" y="588" type="line"/>
			<point x="267" y="588" type="line" smooth="yes"/>
			<point x="382" y="588"/>
			<point x="440" y="557"/>
			<point x="440" y="463" type="curve" smooth="yes"/>
			<point x="440" y="370"/>
			<point x="385" y="328"/>
			<point x="271" y="328" type="curve" smooth="yes"/>
		</contour>
	</outline>
	<anchor name="aboveUC" x="303" y="678"/>
	<anchor name="belowLC" x="137" y="-22"/>
</glyph>
<glyph name="R" format="2">
	<unicode hex="0052"/>
	<advance width="569"/>
	<outline>
		<contour>
			<point x="90" y="0" type="line"/>
			<point x="173" y="0" type="line"/>
			<point x="173" y="277" type="line"/>
			<point x="295" y="277" type="line" smooth="yes"/>
			<point x="429" y="277"/>
			<point x="525" y="341"/>
			<point x="525" y="472" type="curve" smooth="yes"/>
			<point x="525" y="608"/>
			<point x="429" y="656"/>
			<point x="295" y="656" type="curve" smooth="yes"/>
			<point x="90" y="656" type="line"/>
		</contour>
		<contour>
			<point x="173" y="345" type="line"/>
			<point x="173" y="589" type="line"/>
			<point x="283" y="589" type="line" smooth="yes"/>
			<point x="385" y="589"/>
			<point x="442" y="558"/>
			<point x="442" y="472" type="curve" smooth="yes"/>
			<point x="442" y="387"/>
			<point x="385" y="345"/>
			<point x="283" y="345" type="curve" smooth="yes"/>
		</contour>
		<contour>
			<point x="450" y="0" type="line"/>
			<point x="544" y="0" type="line"/>
			<point x="344" y="344" type="line"/>
			<point x="279" y="300" type="line"/>
		</contour>
	</outline>
	<anchor name="aboveUC" x="295" y="678"/>
	<anchor name="belowLC" x="310" y="-22"/>
</glyph>
<glyph name="S" format="2">
	<unicode hex="0053"/>
	<advance width="534"/>
	<outline>
		<contour>
			<point x="272" y="-12" type="curve" smooth="yes"/>
			<point x="410" y="-12"/>
			<point x="496" y="71"/>
			<point x="496" y="175" type="curve" smooth="yes"/>
			<point x="496" y="272"/>
			<point x="437" y="318"/>
			<point x="361" y="350" type="curve" smooth="yes"/>
			<point x="267" y="391" type="line" smooth="yes"/>
			<point x="216" y="412"/>
			<point x="159" y="436"/>
			<point x="159" y="499" type="curve" smooth="yes"/>
			<point x="159" y="557"/>
			<point x="207" y="594"/>
			<point x="280" y="594" type="curve" smooth="yes"/>
			<point x="337" y="594"/>
			<point x="388" y="571"/>
			<point x="428" y="533" type="curve"/>
			<point x="474" y="589" type="line"/>
			<point x="428" y="635"/>
			<point x="360" y="668"/>
			<point x="280" y="668" type="curve" smooth="yes"/>
			<point x="161" y="668"/>
			<point x="74" y="594"/>
			<point x="74" y="494" type="curve" smooth="yes"/>
			<point x="74" y="397"/>
			<point x="145" y="351"/>
			<point x="206" y="325" type="curve" smooth="yes"/>
			<point x="301" y="283" type="line" smooth="yes"/>
			<point x="362" y="256"/>
			<point x="410" y="235"/>
			<point x="410" y="168" type="curve" smooth="yes"/>
			<point x="410" y="105"/>
			<point x="359" y="62"/>
			<point x="273" y="62" type="curve" smooth="yes"/>
			<point x="204" y="62"/>
			<point x="137" y="92"/>
			<point x="89" y="141" type="curve"/>
			<point x="42" y="86" type="line"/>
			<point x="99" y="25"/>
			<point x="178" y="-12"/>
		</contour>
	</outline>
	<anchor name="aboveUC" x="280" y="678"/>
	<anchor name="baseLC" x="273" y="0"/>
	<anchor name="belowLC" x="273" y="-22"/>
</glyph>
<glyph name="T" format="1">
	<unicode hex="0054"/>
	<advance width="536"/>
	<outline>
		<contour>
			<point x="226" y="0" type="line"/>
			<point x="310" y="0" type="line"/>
			<point x="310" y="586" type="line"/>
			<point x="508" y="586" type="line"/>
			<point x="508" y="656" type="line"/>
			<point x="28" y="656" type="line"/>
			<point x="28" y="586" type="line"/>
			<point x="226" y="586" type="line"/>
		</contour>
		<contour>
			<point name="aboveUC" x="267" y="678" type="move"/>
		</contour>
		<contour>
			<point name="belowLC" x="267" y="-22" type="move"/>
		</contour>
		<contour>
			<point name="baseLC" x="267" y="0" type="move"/>
		</contour>
	</outline>
</glyph>
<glyph name="U" format="2">
	<unicode hex="0055"/>
	<advance width="646"/>
	<outline>
		<contour>
			<point x="323" y="-12" type="curve" smooth="yes"/>
			<point x="457" y="-12"/>
			<point x="559" y="61"/>
			<point x="559" y="271" type="curve" smooth="yes"/>
			<point x="559" y="656" type="line"/>
			<point x="478" y="656" type="line"/>
			<point x="478" y="269" type="line" smooth="yes"/>
			<point x="478" y="112"/>
			<point x="410" y="62"/>
			<point x="323" y="62" type="curve" smooth="yes"/>
			<point x="237" y="62"/>
			<point x="171" y="112"/>
			<point x="171" y="269" type="curve" smooth="yes"/>
			<point x="171" y="656" type="line"/>
			<point x="87" y="656" type="line"/>
			<point x="87" y="271" type="line" smooth="yes"/>
			<point x="87" y="61"/>
			<point x="189" y="-12"/>
		</contour>
	</outline>
	<anchor name="aboveUC" x="322" y="678"/>
	<anchor name="belowLC" x="322" y="-22"/>
	<anchor name="hornLC" x="526" y="666"/>
	<anchor name="ogonekUC" x="322" y="0"/>
</glyph>
<glyph name="V" format="2">
	<unicode hex="0056"/>
	<advance width="516"/>
	<outline>
		<contour>
			<point x="206" y="0" type="line"/>
			<point x="303" y="0" type="line"/>
			<point x="516" y="656" type="line"/>
			<point x="430" y="656" type="line"/>
			<point x="321" y="302" type="line" smooth="yes"/>
			<point x="298" y="225"/>
			<point x="282" y="162"/>
			<point x="258" y="86" type="curve"/>
			<point x="254" y="86" type="line"/>
			<point x="230" y="162"/>
			<point x="213" y="225"/>
			<point x="191" y="302" type="curve" smooth="yes"/>
			<point x="89" y="656" type="line"/>
			<point x="0" y="656" type="line"/>
		</contour>
	</outline>
	<anchor name="aboveUC" x="257" y="678"/>
	<anchor name="belowLC" x="258" y="-22"/>
</glyph>
<glyph name="W" format="2">
	<unicode hex="0057"/>
	<advance width="786"/>
	<outline>
		<contour>
			<point x="159" y="0" type="line"/>
			<point x="266" y="0" type="line"/>
			<point x="362" y="394" type="line"/>
			<point x="373" y="444"/>
			<point x="383" y="491"/>
			<point x="391" y="548" type="curve"/>
			<point x="395" y="548" type="line"/>
			<point x="405" y="491"/>
			<point x="414" y="444"/>
			<point x="425" y="394" type="curve"/>
			<point x="519" y="0" type="line"/>
			<point x="626" y="0" type="line"/>
			<point x="763" y="656" type="line"/>
			<point x="678" y="656" type="line"/>
			<point x="609" y="299" type="line"/>
			<point x="596" y="229"/>
			<point x="585" y="159"/>
			<point x="574" y="84" type="curve"/>
			<point x="570" y="84" type="line"/>
			<point x="555" y="159"/>
			<point x="539" y="230"/>
			<point x="523" y="299" type="curve"/>
			<point x="437" y="656" type="line"/>
			<point x="353" y="656" type="line"/>
			<point x="264" y="299" type="line"/>
			<point x="248" y="229"/>
			<point x="233" y="159"/>
			<point x="219" y="84" type="curve"/>
			<point x="215" y="84" type="line"/>
			<point x="204" y="159"/>
			<point x="192" y="228"/>
			<point x="179" y="299" type="curve"/>
			<point x="112" y="656" type="line"/>
			<point x="23" y="656" type="line"/>
		</contour>
	</outline>
	<anchor name="aboveUC" x="392" y="678"/>
	<anchor name="belowLC" x="395" y="-22"/>
</glyph>
<glyph name="X" format="2">
	<unicode hex="0058"/>
	<advance width="514"/>
	<outline>
		<contour>
			<point x="15" y="0" type="line"/>
			<point x="104" y="0" type="line"/>
			<point x="198" y="176" type="line" smooth="yes"/>
			<point x="215" y="209"/>
			<point x="231" y="242"/>
			<point x="250" y="282" type="curve"/>
			<point x="254" y="282" type="line"/>
			<point x="275" y="242"/>
			<point x="293" y="209"/>
			<point x="310" y="176" type="curve" smooth="yes"/>
			<point x="406" y="0" type="line"/>
			<point x="499" y="0" type="line"/>
			<point x="308" y="335" type="line"/>
			<point x="487" y="656" type="line"/>
			<point x="398" y="656" type="line"/>
			<point x="311" y="489" type="line" smooth="yes"/>
			<point x="295" y="459"/>
			<point x="282" y="432"/>
			<point x="265" y="393" type="curve"/>
			<point x="261" y="393" type="line"/>
			<point x="240" y="432"/>
			<point x="226" y="459"/>
			<point x="210" y="489" type="curve" smooth="yes"/>
			<point x="121" y="656" type="line"/>
			<point x="28" y="656" type="line"/>
			<point x="206" y="339" type="line"/>
		</contour>
	</outline>
	<anchor name="aboveUC" x="258" y="678"/>
	<anchor name="belowLC" x="252" y="-22"/>
</glyph>
<glyph name="Y" format="2">
	<unicode hex="0059"/>
	<advance width="476"/>
	<outline>
		<contour>
			<point x="196" y="0" type="line"/>
			<point x="280" y="0" type="line"/>
			<point x="280" y="254" type="line"/>
			<point x="477" y="656" type="line"/>
			<point x="390" y="656" type="line"/>
			<point x="306" y="471" type="line"/>
			<point x="286" y="423"/>
			<point x="263" y="377"/>
			<point x="240" y="328" type="curve"/>
			<point x="236" y="328" type="line"/>
			<point x="214" y="377"/>
			<point x="194" y="423"/>
			<point x="173" y="471" type="curve"/>
			<point x="88" y="656" type="line"/>
			<point x="-1" y="656" type="line"/>
			<point x="196" y="254" type="line"/>
		</contour>
	</outline>
	<anchor name="aboverightUC" x="456" y="678"/>
	<anchor name="aboveUC" x="238" y="678"/>
	<anchor name="belowLC" x="238" y="-22"/>
</glyph>
<glyph name="Z" format="2">
	<unicode hex="005A"/>
	<advance width="539"/>
	<outline>
		<contour>
			<point x="45" y="0" type="line"/>
			<point x="497" y="0" type="line"/>
			<point x="497" y="71" type="line"/>
			<point x="148" y="71" type="line"/>
			<point x="494" y="607" type="line"/>
			<point x="494" y="656" type="line"/>
			<point x="76" y="656" type="line"/>
			<point x="76" y="586" type="line"/>
			<point x="390" y="586" type="line"/>
			<point x="45" y="50" type="line"/>
		</contour>
	</outline>
	<anchor name="aboveUC" x="280" y="678"/>
	<anchor name="belowLC" x="282" y="-22"/>
</glyph>
<glyph name="bracketright" format="2">
	<unicode hex="005D"/>
	<advance width="304"/>
	<outline>
		<contour>
			<point x="31" y="-152" type="line"/>
			<point x="210" y="-152" type="line"/>
			<point x="210" y="708" type="line"/>
			<point x="31" y="708" type="line"/>
			<point x="31" y="661" type="line"/>
			<point x="147" y="661" type="line"/>
			<point x="147" y="-105" type="line"/>
			<point x="31" y="-105" type="line"/>
		</contour>
	</outline>
</glyph>
<glyph name="asciicircum" format="2">
	<unicode hex="005E"/>
	<advance width="497"/>
	<outline>
		<contour>
			<point x="60" y="284" type="line"/>
			<point x="132" y="284" type="line"/>
			<point x="198" y="459" type="line"/>
			<point x="247" y="592" type="line"/>
			<point x="251" y="592" type="line"/>
			<point x="300" y="459" type="line"/>
			<point x="365" y="284" type="line"/>
			<point x="438" y="284" type="line"/>
			<point x="285" y="670" type="line"/>
			<point x="212" y="670" type="line"/>
		</contour>
	</outline>
</glyph>
<glyph name="a" format="2">
	<unicode hex="0061"/>
	<advance width="504"/>
	<outline>
		<contour>
			<point x="194" y="-12" type="curve" smooth="yes"/>
			<point x="255" y="-12"/>
			<point x="309" y="19"/>
			<point x="355" y="58" type="curve"/>
			<point x="358" y="58" type="line"/>
			<point x="365" y="0" type="line"/>
			<point x="432" y="0" type="line"/>
			<point x="432" y="299" type="line" smooth="yes"/>
			<point x="432" y="419"/>
			<point x="382" y="498"/>
			<point x="264" y="498" type="curve" smooth="yes"/>
			<point x="186" y="498"/>
			<point x="118" y="465"/>
			<point x="73" y="435" type="curve"/>
			<point x="105" y="381" type="line"/>
			<point x="143" y="405"/>
			<point x="194" y="431"/>
			<point x="250" y="431" type="curve" smooth="yes"/>
			<point x="330" y="431"/>
			<point x="351" y="370"/>
			<point x="351" y="309" type="curve"/>
			<point x="144" y="286"/>
			<point x="52" y="232"/>
			<point x="52" y="126" type="curve" smooth="yes"/>
			<point x="52" y="38"/>
			<point x="113" y="-12"/>
		</contour>
		<contour>
			<point x="217" y="53" type="curve" smooth="yes"/>
			<point x="170" y="53"/>
			<point x="132" y="77"/>
			<point x="132" y="131" type="curve" smooth="yes"/>
			<point x="132" y="194"/>
			<point x="187" y="232"/>
			<point x="351" y="252" type="curve"/>
			<point x="351" y="118" type="line"/>
			<point x="304" y="77"/>
			<point x="264" y="53"/>
		</contour>
	</outline>
</glyph>
<glyph name="b" format="2">
	<unicode hex="0062"/>
	<advance width="554"/>
	<outline>
		<contour>
			<point x="297" y="-12" type="curve" smooth="yes"/>
			<point x="408" y="-12"/>
			<point x="508" y="85"/>
			<point x="508" y="251" type="curve" smooth="yes"/>
			<point x="508" y="401"/>
			<point x="440" y="498"/>
			<point x="315" y="498" type="curve" smooth="yes"/>
			<point x="261" y="498"/>
			<point x="207" y="469"/>
			<point x="162" y="431" type="curve"/>
			<point x="165" y="518" type="line"/>
			<point x="165" y="712" type="line"/>
			<point x="82" y="712" type="line"/>
			<point x="82" y="0" type="line"/>
			<point x="148" y="0" type="line"/>
			<point x="156" y="50" type="line"/>
			<point x="159" y="50" type="line"/>
			<point x="202" y="11"/>
			<point x="252" y="-12"/>
		</contour>
		<contour>
			<point x="283" y="58" type="curve" smooth="yes"/>
			<point x="251" y="58"/>
			<point x="207" y="71"/>
			<point x="165" y="108" type="curve"/>
			<point x="165" y="362" type="line"/>
			<point x="211" y="406"/>
			<point x="253" y="428"/>
			<point x="294" y="428" type="curve" smooth="yes"/>
			<point x="385" y="428"/>
			<point x="422" y="357"/>
			<point x="422" y="250" type="curve" smooth="yes"/>
			<point x="422" y="130"/>
			<point x="363" y="58"/>
		</contour>
	</outline>
	<anchor name="aboveUC" x="295" y="726"/>
	<anchor name="belowLC" x="296" y="-22"/>
</glyph>
<glyph name="c" format="2">
	<unicode hex="0063"/>
	<advance width="456"/>
	<outline>
		<contour>
			<point x="274" y="-12" type="curve" smooth="yes"/>
			<point x="332" y="-12"/>
			<point x="387" y="10"/>
			<point x="431" y="50" type="curve"/>
			<point x="395" y="103" type="line"/>
			<point x="366" y="77"/>
			<point x="326" y="57"/>
			<point x="281" y="57" type="curve" smooth="yes"/>
			<point x="192" y="57"/>
			<point x="132" y="131"/>
			<point x="132" y="242" type="curve" smooth="yes"/>
			<point x="132" y="354"/>
			<point x="196" y="429"/>
			<point x="284" y="429" type="curve" smooth="yes"/>
			<point x="323" y="429"/>
			<point x="354" y="414"/>
			<point x="381" y="389" type="curve"/>
			<point x="422" y="441" type="line"/>
			<point x="388" y="473"/>
			<point x="344" y="498"/>
			<point x="280" y="498" type="curve" smooth="yes"/>
			<point x="155" y="498"/>
			<point x="46" y="405"/>
			<point x="46" y="242" type="curve" smooth="yes"/>
			<point x="46" y="81"/>
			<point x="145" y="-12"/>
		</contour>
	</outline>
	<anchor name="aboveLC" x="274" y="509"/>
	<anchor name="baseLC" x="266" y="0"/>
	<anchor name="belowLC" x="266" y="-22"/>
</glyph>
<glyph name="e" format="2">
	<unicode hex="0065"/>
	<advance width="496"/>
	<outline>
		<contour>
			<point x="279" y="-12" type="curve" smooth="yes"/>
			<point x="345" y="-12"/>
			<point x="397" y="9"/>
			<point x="440" y="38" type="curve"/>
			<point x="410" y="92" type="line"/>
			<point x="376" y="69"/>
			<point x="335" y="55"/>
			<point x="289" y="55" type="curve" smooth="yes"/>
			<point x="201" y="55"/>
			<point x="128" y="120"/>
			<point x="128" y="244" type="curve" smooth="yes"/>
			<point x="128" y="379"/>
			<point x="199" y="431"/>
			<point x="266" y="431" type="curve" smooth="yes"/>
			<point x="341" y="431"/>
			<point x="384" y="380"/>
			<point x="384" y="286" type="curve"/>
			<point x="104" y="286" type="line"/>
			<point x="104" y="221" type="line"/>
			<point x="454" y="221" type="line"/>
			<point x="457" y="237"/>
			<point x="458" y="253"/>
			<point x="458" y="270" type="curve" smooth="yes"/>
			<point x="458" y="408"/>
			<point x="390" y="498"/>
			<point x="265" y="498" type="curve" smooth="yes"/>
			<point x="153" y="498"/>
			<point x="45" y="401"/>
			<point x="45" y="243" type="curve" smooth="yes"/>
			<point x="45" y="82"/>
			<point x="148" y="-12"/>
		</contour>
	</outline>
	<anchor name="aboveLC" x="264" y="509"/>
	<anchor name="baseLC" x="264" y="0"/>
	<anchor name="belowLC" x="264" y="-22"/>
	<anchor name="ogonekLC" x="347" y="0"/>
</glyph>
<glyph name="f" format="1">
	<unicode hex="0066"/>
	<advance width="292"/>
	<outline>
		<contour>
			<point x="96" y="0" type="line"/>
			<point x="178" y="0" type="line"/>
			<point x="178" y="563" type="line" smooth="yes"/>
			<point x="178" y="625"/>
			<point x="200" y="657"/>
			<point x="246" y="657" type="curve" smooth="yes"/>
			<point x="264" y="657"/>
			<point x="283" y="653"/>
			<point x="301" y="645" type="curve"/>
			<point x="319" y="708" type="line"/>
			<point x="297" y="717"/>
			<point x="268" y="724"/>
			<point x="238" y="724" type="curve" smooth="yes"/>
			<point x="141" y="724"/>
			<point x="96" y="662"/>
			<point x="96" y="563" type="curve" smooth="yes"/>
		</contour>
		<contour>
			<point x="30" y="419" type="line"/>
			<point x="281" y="419" type="line"/>
			<point x="281" y="486" type="line"/>
			<point x="99" y="486" type="line"/>
			<point x="30" y="481" type="line"/>
		</contour>
		<contour>
			<point name="aboveUC" x="218" y="726" type="move"/>
		</contour>
		<contour>
			<point name="belowLC" x="137" y="-22" type="move"/>
		</contour>
	</outline>
</glyph>
<glyph name="g" format="2">
	<unicode hex="0067"/>
	<advance width="505"/>
	<outline>
		<contour>
			<point x="246" y="-224" type="curve" smooth="yes"/>
			<point x="397" y="-224"/>
			<point x="492" y="-146"/>
			<point x="492" y="-55" type="curve" smooth="yes"/>
			<point x="492" y="25"/>
			<point x="435" y="61"/>
			<point x="322" y="61" type="curve" smooth="yes"/>
			<point x="228" y="61" type="line" smooth="yes"/>
			<point x="163" y="61"/>
			<point x="143" y="83"/>
			<point x="143" y="113" type="curve" smooth="yes"/>
			<point x="143" y="140"/>
			<point x="156" y="156"/>
			<point x="174" y="171" type="curve"/>
			<point x="196" y="160"/>
			<point x="222" y="154"/>
			<point x="246" y="154" type="curve" smooth="yes"/>
			<point x="345" y="154"/>
			<point x="424" y="219"/>
			<point x="424" y="323" type="curve" smooth="yes"/>
			<point x="424" y="364"/>
			<point x="408" y="400"/>
			<point x="385" y="422" type="curve"/>
			<point x="484" y="422" type="line"/>
			<point x="484" y="486" type="line"/>
			<point x="315" y="486" type="line"/>
			<point x="297" y="493"/>
			<point x="273" y="498"/>
			<point x="246" y="498" type="curve" smooth="yes"/>
			<point x="147" y="498"/>
			<point x="63" y="431"/>
			<point x="63" y="325" type="curve" smooth="yes"/>
			<point x="63" y="267"/>
			<point x="94" y="220"/>
			<point x="126" y="194" type="curve"/>
			<point x="126" y="190" type="line"/>
			<point x="101" y="173"/>
			<point x="73" y="141"/>
			<point x="73" y="100" type="curve" smooth="yes"/>
			<point x="73" y="62"/>
			<point x="92" y="36"/>
			<point x="116" y="21" type="curve"/>
			<point x="116" y="17" type="line"/>
			<point x="72" y="-13"/>
			<point x="45" y="-52"/>
			<point x="45" y="-93" type="curve" smooth="yes"/>
			<point x="45" y="-177"/>
			<point x="127" y="-224"/>
		</contour>
		<contour>
			<point x="246" y="210" type="curve" smooth="yes"/>
			<point x="190" y="210"/>
			<point x="143" y="254"/>
			<point x="143" y="325" type="curve" smooth="yes"/>
			<point x="143" y="396"/>
			<point x="189" y="438"/>
			<point x="246" y="438" type="curve" smooth="yes"/>
			<point x="303" y="438"/>
			<point x="349" y="395"/>
			<point x="349" y="325" type="curve" smooth="yes"/>
			<point x="349" y="254"/>
			<point x="302" y="210"/>
		</contour>
		<contour>
			<point x="258" y="-166" type="curve" smooth="yes"/>
			<point x="170" y="-166"/>
			<point x="117" y="-134"/>
			<point x="117" y="-82" type="curve" smooth="yes"/>
			<point x="117" y="-54"/>
			<point x="132" y="-25"/>
			<point x="167" y="0" type="curve"/>
			<point x="188" y="-6"/>
			<point x="211" y="-8"/>
			<point x="230" y="-8" type="curve" smooth="yes"/>
			<point x="313" y="-8" type="line" smooth="yes"/>
			<point x="377" y="-8"/>
			<point x="411" y="-23"/>
			<point x="411" y="-68" type="curve" smooth="yes"/>
			<point x="411" y="-118"/>
			<point x="350" y="-166"/>
		</contour>
	</outline>
	<anchor name="aboveLC" x="258" y="509"/>
	<anchor name="belowLC" x="250" y="-218"/>
</glyph>
<glyph name="h" format="2">
	<unicode hex="0068"/>
	<advance width="544"/>
	<outline>
		<contour>
			<point x="82" y="0" type="line"/>
			<point x="165" y="0" type="line"/>
			<point x="165" y="352" type="line"/>
			<point x="213" y="401"/>
			<point x="248" y="426"/>
			<point x="297" y="426" type="curve" smooth="yes"/>
			<point x="361" y="426"/>
			<point x="389" y="388"/>
			<point x="389" y="297" type="curve" smooth="yes"/>
			<point x="389" y="0" type="line"/>
			<point x="472" y="0" type="line"/>
			<point x="472" y="308" type="line" smooth="yes"/>
			<point x="472" y="432"/>
			<point x="426" y="498"/>
			<point x="323" y="498" type="curve" smooth="yes"/>
			<point x="256" y="498"/>
			<point x="207" y="462"/>
			<point x="162" y="418" type="curve"/>
			<point x="165" y="518" type="line"/>
			<point x="165" y="712" type="line"/>
			<point x="82" y="712" type="line"/>
		</contour>
	</outline>
	<anchor name="aboveUC" x="295" y="726"/>
	<anchor name="belowLC" x="287" y="-22"/>
</glyph>
<glyph name="i" format="1">
	<unicode hex="0069"/>
	<advance width="246"/>
	<outline>
		<component base="dotlessi"/>
		<component base="dotaccentcmb" xOffset="124"/>
		<contour>
			<point name="aboveLC" x="123" y="690" type="move"/>
		</contour>
		<contour>
			<point name="belowLC" x="123" y="-22" type="move"/>
		</contour>
		<contour>
			<point name="ogonekLC" x="115" y="0" type="move"/>
		</contour>
	</outline>
</glyph>
<glyph name="j" format="1">
	<unicode hex="006A"/>
	<advance width="247"/>
	<outline>
		<component base="dotlessj"/>
		<component base="dotaccentcmb" xOffset="125"/>
		<contour>
			<point name="belowLC" x="65" y="-211" type="move"/>
		</contour>
	</outline>
</glyph>
<glyph name="k" format="1">
	<unicode hex="006B"/>
	<advance width="495"/>
	<outline>
		<contour>
			<point x="82" y="0" type="line"/>
			<point x="164" y="0" type="line"/>
			<point x="164" y="128" type="line"/>
			<point x="254" y="234" type="line"/>
			<point x="396" y="0" type="line"/>
			<point x="486" y="0" type="line"/>
			<point x="302" y="290" type="line"/>
			<point x="464" y="486" type="line"/>
			<point x="372" y="486" type="line"/>
			<point x="166" y="231" type="line"/>
			<point x="164" y="231" type="line"/>
			<point x="164" y="712" type="line"/>
			<point x="82" y="712" type="line"/>
		</contour>
		<contour>
			<point name="aboveUC" x="288" y="726" type="move"/>
		</contour>
		<contour>
			<point name="belowLC" x="275" y="-22" type="move"/>
		</contour>
	</outline>
</glyph>
<glyph name="l" format="2">
	<unicode hex="006C"/>
	<advance width="255"/>
	<outline>
		<contour>
			<point x="169" y="-12" type="curve" smooth="yes"/>
			<point x="189" y="-12"/>
			<point x="205" y="-9"/>
			<point x="216" y="-3" type="curve"/>
			<point x="205" y="58" type="line"/>
			<point x="197" y="56"/>
			<point x="193" y="56"/>
			<point x="188" y="56" type="curve" smooth="yes"/>
			<point x="175" y="56"/>
			<point x="164" y="65"/>
			<point x="164" y="92" type="curve" smooth="yes"/>
			<point x="164" y="712" type="line"/>
			<point x="82" y="712" type="line"/>
			<point x="82" y="98" type="line" smooth="yes"/>
			<point x="82" y="27"/>
			<point x="107" y="-12"/>
		</contour>
	</outline>
	<anchor name="aboveUC" x="125" y="726"/>
	<anchor name="belowLC" x="145" y="-22"/>
</glyph>
<glyph name="m" format="2">
	<unicode hex="006D"/>
	<advance width="829"/>
	<outline>
		<contour>
			<point x="82" y="0" type="line"/>
			<point x="165" y="0" type="line"/>
			<point x="165" y="352" type="line"/>
			<point x="210" y="402"/>
			<point x="250" y="426"/>
			<point x="286" y="426" type="curve" smooth="yes"/>
			<point x="348" y="426"/>
			<point x="376" y="388"/>
			<point x="376" y="297" type="curve" smooth="yes"/>
			<point x="376" y="0" type="line"/>
			<point x="459" y="0" type="line"/>
			<point x="459" y="352" type="line"/>
			<point x="504" y="402"/>
			<point x="543" y="426"/>
			<point x="581" y="426" type="curve" smooth="yes"/>
			<point x="642" y="426"/>
			<point x="671" y="388"/>
			<point x="671" y="297" type="curve" smooth="yes"/>
			<point x="671" y="0" type="line"/>
			<point x="754" y="0" type="line"/>
			<point x="754" y="308" type="line" smooth="yes"/>
			<point x="754" y="432"/>
			<point x="706" y="498"/>
			<point x="606" y="498" type="curve" smooth="yes"/>
			<point x="547" y="498"/>
			<point x="496" y="460"/>
			<point x="446" y="406" type="curve"/>
			<point x="426" y="463"/>
			<point x="386" y="498"/>
			<point x="311" y="498" type="curve" smooth="yes"/>
			<point x="253" y="498"/>
			<point x="203" y="462"/>
			<point x="160" y="416" type="curve"/>
			<point x="157" y="416" type="line"/>
			<point x="150" y="486" type="line"/>
			<point x="82" y="486" type="line"/>
		</contour>
	</outline>
	<anchor name="aboveLC" x="425" y="509"/>
	<anchor name="belowLC" x="421" y="-22"/>
</glyph>
<glyph name="n" format="2">
	<unicode hex="006E"/>
	<advance width="547"/>
	<outline>
		<contour>
			<point x="82" y="0" type="line"/>
			<point x="164" y="0" type="line"/>
			<point x="164" y="352" type="line"/>
			<point x="213" y="401"/>
			<point x="247" y="427"/>
			<point x="297" y="427" type="curve" smooth="yes"/>
			<point x="361" y="427"/>
			<point x="389" y="388"/>
			<point x="389" y="297" type="curve" smooth="yes"/>
			<point x="389" y="0" type="line"/>
			<point x="471" y="0" type="line"/>
			<point x="471" y="308" type="line" smooth="yes"/>
			<point x="471" y="432"/>
			<point x="425" y="498"/>
			<point x="323" y="498" type="curve" smooth="yes"/>
			<point x="256" y="498"/>
			<point x="206" y="462"/>
			<point x="160" y="416" type="curve"/>
			<point x="157" y="416" type="line"/>
			<point x="150" y="486" type="line"/>
			<point x="82" y="486" type="line"/>
		</contour>
	</outline>
	<anchor name="aboveLC" x="295" y="509"/>
	<anchor name="belowLC" x="277" y="-22"/>
</glyph>
<glyph name="o" format="2">
	<unicode hex="006F"/>
	<advance width="542"/>
	<outline>
		<contour>
			<point x="271" y="-12" type="curve" smooth="yes"/>
			<point x="390" y="-12"/>
			<point x="497" y="81"/>
			<point x="497" y="242" type="curve" smooth="yes"/>
			<point x="497" y="405"/>
			<point x="390" y="498"/>
			<point x="271" y="498" type="curve" smooth="yes"/>
			<point x="152" y="498"/>
			<point x="46" y="405"/>
			<point x="46" y="242" type="curve" smooth="yes"/>
			<point x="46" y="81"/>
			<point x="152" y="-12"/>
		</contour>
		<contour>
			<point x="271" y="57" type="curve" smooth="yes"/>
			<point x="188" y="57"/>
			<point x="132" y="131"/>
			<point x="132" y="242" type="curve" smooth="yes"/>
			<point x="132" y="354"/>
			<point x="188" y="429"/>
			<point x="271" y="429" type="curve" smooth="yes"/>
			<point x="355" y="429"/>
			<point x="411" y="354"/>
			<point x="411" y="242" type="curve" smooth="yes"/>
			<point x="411" y="131"/>
			<point x="355" y="57"/>
		</contour>
	</outline>
	<anchor name="aboveLC" x="271" y="509"/>
	<anchor name="belowLC" x="271" y="-22"/>
	<anchor name="hornLC" x="364" y="486"/>
	<anchor name="ogonekLC" x="271" y="0"/>
</glyph>
<glyph name="p" format="2">
	<unicode hex="0070"/>
	<advance width="555"/>
	<outline>
		<contour>
			<point x="82" y="-205" type="line"/>
			<point x="164" y="-205" type="line"/>
			<point x="164" y="-41" type="line"/>
			<point x="162" y="44" type="line"/>
			<point x="207" y="9"/>
			<point x="252" y="-12"/>
			<point x="297" y="-12" type="curve" smooth="yes"/>
			<point x="408" y="-12"/>
			<point x="507" y="85"/>
			<point x="507" y="250" type="curve" smooth="yes"/>
			<point x="507" y="401"/>
			<point x="440" y="498"/>
			<point x="315" y="498" type="curve" smooth="yes"/>
			<point x="258" y="498"/>
			<point x="204" y="467"/>
			<point x="160" y="430" type="curve"/>
			<point x="157" y="430" type="line"/>
			<point x="150" y="486" type="line"/>
			<point x="82" y="486" type="line"/>
		</contour>
		<contour>
			<point x="283" y="57" type="curve" smooth="yes"/>
			<point x="251" y="57"/>
			<point x="208" y="71"/>
			<point x="164" y="108" type="curve"/>
			<point x="164" y="363" type="line"/>
			<point x="212" y="406"/>
			<point x="253" y="429"/>
			<point x="294" y="429" type="curve" smooth="yes"/>
			<point x="386" y="429"/>
			<point x="422" y="357"/>
			<point x="422" y="250" type="curve" smooth="yes"/>
			<point x="422" y="130"/>
			<point x="363" y="57"/>
		</contour>
	</outline>
	<anchor name="aboveLC" x="295" y="509"/>
	<anchor name="aboverightLC" x="468" y="509"/>
	<anchor name="belowLC" x="127" y="-207"/>
</glyph>
<glyph name="q" format="2">
	<unicode hex="0071"/>
	<advance width="555"/>
	<outline>
		<contour>
			<point x="390" y="-205" type="line"/>
			<point x="473" y="-205" type="line"/>
			<point x="473" y="486" type="line"/>
			<point x="407" y="486" type="line"/>
			<point x="399" y="440" type="line"/>
			<point x="396" y="440" type="line"/>
			<point x="353" y="478"/>
			<point x="314" y="498"/>
			<point x="258" y="498" type="curve" smooth="yes"/>
			<point x="147" y="498"/>
			<point x="47" y="400"/>
			<point x="47" y="242" type="curve" smooth="yes"/>
			<point x="47" y="80"/>
			<point x="126" y="-12"/>
			<point x="248" y="-12" type="curve" smooth="yes"/>
			<point x="304" y="-12"/>
			<point x="355" y="18"/>
			<point x="394" y="56" type="curve"/>
			<point x="390" y="-32" type="line"/>
		</contour>
		<contour>
			<point x="266" y="58" type="curve" smooth="yes"/>
			<point x="181" y="58"/>
			<point x="133" y="127"/>
			<point x="133" y="243" type="curve" smooth="yes"/>
			<point x="133" y="354"/>
			<point x="195" y="428"/>
			<point x="272" y="428" type="curve" smooth="yes"/>
			<point x="312" y="428"/>
			<point x="349" y="415"/>
			<point x="390" y="378" type="curve"/>
			<point x="390" y="124" type="line"/>
			<point x="350" y="80"/>
			<point x="311" y="58"/>
		</contour>
	</outline>
	<anchor name="aboveLC" x="278" y="509"/>
	<anchor name="belowLC" x="424" y="-203"/>
</glyph>
<glyph name="r" format="2">
	<unicode hex="0072"/>
	<advance width="348"/>
	<outline>
		<contour>
			<point x="82" y="0" type="line"/>
			<point x="165" y="0" type="line"/>
			<point x="165" y="312" type="line"/>
			<point x="198" y="394"/>
			<point x="247" y="423"/>
			<point x="288" y="423" type="curve" smooth="yes"/>
			<point x="307" y="423"/>
			<point x="318" y="421"/>
			<point x="332" y="417" type="curve"/>
			<point x="350" y="488" type="line"/>
			<point x="335" y="495"/>
			<point x="320" y="498"/>
			<point x="298" y="498" type="curve" smooth="yes"/>
			<point x="244" y="498"/>
			<point x="194" y="459"/>
			<point x="160" y="398" type="curve"/>
			<point x="157" y="398" type="line"/>
			<point x="150" y="486" type="line"/>
			<point x="82" y="486" type="line"/>
		</contour>
	</outline>
	<anchor name="aboveLC" x="222" y="509"/>
	<anchor name="belowLC" x="121" y="-22"/>
</glyph>
<glyph name="s" format="1">
	<unicode hex="0073"/>
	<advance width="419"/>
	<outline>
		<contour>
			<point x="209" y="-12" type="curve" smooth="yes"/>
			<point x="324" y="-12"/>
			<point x="387" y="54"/>
			<point x="387" y="133" type="curve" smooth="yes"/>
			<point x="387" y="225"/>
			<point x="309" y="254"/>
			<point x="239" y="280" type="curve" smooth="yes"/>
			<point x="184" y="301"/>
			<point x="134" y="318"/>
			<point x="134" y="364" type="curve" smooth="yes"/>
			<point x="134" y="401"/>
			<point x="162" y="434"/>
			<point x="223" y="434" type="curve" smooth="yes"/>
			<point x="266" y="434"/>
			<point x="301" y="416"/>
			<point x="334" y="391" type="curve"/>
			<point x="374" y="443" type="line"/>
			<point x="336" y="473"/>
			<point x="283" y="498"/>
			<point x="223" y="498" type="curve" smooth="yes"/>
			<point x="117" y="498"/>
			<point x="55" y="438"/>
			<point x="55" y="360" type="curve" smooth="yes"/>
			<point x="55" y="278"/>
			<point x="128" y="245"/>
			<point x="197" y="220" type="curve" smooth="yes"/>
			<point x="250" y="200"/>
			<point x="308" y="178"/>
			<point x="308" y="128" type="curve" smooth="yes"/>
			<point x="308" y="86"/>
			<point x="276" y="52"/>
			<point x="212" y="52" type="curve" smooth="yes"/>
			<point x="154" y="52"/>
			<point x="111" y="76"/>
			<point x="69" y="110" type="curve"/>
			<point x="28" y="55" type="line"/>
			<point x="74" y="17"/>
			<point x="140" y="-12"/>
		</contour>
		<contour>
			<point name="aboveLC" x="215" y="509" type="move"/>
		</contour>
		<contour>
			<point name="baseLC" x="214" y="0" type="move"/>
		</contour>
		<contour>
			<point name="belowLC" x="214" y="-22" type="move"/>
		</contour>
	</outline>
</glyph>
<glyph name="t" format="2">
	<unicode hex="0074"/>
	<advance width="339"/>
	<outline>
		<contour>
			<point x="235" y="-12" type="curve" smooth="yes"/>
			<point x="268" y="-12"/>
			<point x="301" y="-3"/>
			<point x="327" y="9" type="curve"/>
			<point x="310" y="68" type="line"/>
			<point x="290" y="59"/>
			<point x="272" y="56"/>
			<point x="254" y="56" type="curve" smooth="yes"/>
			<point x="199" y="56"/>
			<point x="179" y="90"/>
			<point x="179" y="149" type="curve" smooth="yes"/>
			<point x="179" y="419" type="line"/>
			<point x="311" y="419" type="line"/>
			<point x="311" y="486" type="line"/>
			<point x="179" y="486" type="line"/>
			<point x="179" y="642" type="line"/>
			<point x="110" y="642" type="line"/>
			<point x="100" y="486" type="line"/>
			<point x="24" y="481" type="line"/>
			<point x="24" y="419" type="line"/>
			<point x="96" y="419" type="line"/>
			<point x="96" y="151" type="line" smooth="yes"/>
			<point x="96" y="54"/>
			<point x="131" y="-12"/>
		</contour>
	</outline>
	<anchor name="aboveLC" x="149" y="643"/>
	<anchor name="baseLC" x="215" y="0"/>
	<anchor name="belowLC" x="215" y="-22"/>
</glyph>
<glyph name="u" format="1">
	<unicode hex="0075"/>
	<advance width="544"/>
	<outline>
		<contour>
			<point x="224" y="-12" type="curve" smooth="yes"/>
			<point x="291" y="-12"/>
			<point x="339" y="23"/>
			<point x="384" y="76" type="curve"/>
			<point x="387" y="76" type="line"/>
			<point x="394" y="0" type="line"/>
			<point x="462" y="0" type="line"/>
			<point x="462" y="486" type="line"/>
			<point x="380" y="486" type="line"/>
			<point x="380" y="141" type="line"/>
			<point x="334" y="84"/>
			<point x="299" y="59"/>
			<point x="249" y="59" type="curve" smooth="yes"/>
			<point x="185" y="59"/>
			<point x="158" y="98"/>
			<point x="158" y="189" type="curve" smooth="yes"/>
			<point x="158" y="486" type="line"/>
			<point x="75" y="486" type="line"/>
			<point x="75" y="178" type="line" smooth="yes"/>
			<point x="75" y="54"/>
			<point x="121" y="-12"/>
		</contour>
		<contour>
			<point name="hornLC" x="411" y="496" type="move"/>
		</contour>
		<contour>
			<point name="aboveLC" x="271" y="509" type="move"/>
		</contour>
		<contour>
			<point name="ogonekLC" x="391" y="0" type="move"/>
		</contour>
		<contour>
			<point name="baseLC" x="263" y="0" type="move"/>
		</contour>
		<contour>
			<point name="belowLC" x="274" y="-22" type="move"/>
		</contour>
	</outline>
</glyph>
<glyph name="v" format="2">
	<unicode hex="0076"/>
	<advance width="468"/>
	<outline>
		<contour>
			<point x="187" y="0" type="line"/>
			<point x="284" y="0" type="line"/>
			<point x="456" y="486" type="line"/>
			<point x="374" y="486" type="line"/>
			<point x="283" y="211" type="line" smooth="yes"/>
			<point x="268" y="163"/>
			<point x="252" y="114"/>
			<point x="238" y="67" type="curve"/>
			<point x="234" y="67" type="line"/>
			<point x="219" y="114"/>
			<point x="204" y="163"/>
			<point x="189" y="211" type="curve" smooth="yes"/>
			<point x="98" y="486" type="line"/>
			<point x="12" y="486" type="line"/>
		</contour>
	</outline>
	<anchor name="aboveLC" x="235" y="509"/>
	<anchor name="belowLC" x="235" y="-22"/>
</glyph>
<glyph name="w" format="2">
	<unicode hex="0077"/>
	<advance width="718"/>
	<outline>
		<contour>
			<point x="160" y="0" type="line"/>
			<point x="260" y="0" type="line"/>
			<point x="325" y="261" type="line"/>
			<point x="338" y="305"/>
			<point x="347" y="348"/>
			<point x="356" y="405" type="curve"/>
			<point x="360" y="405" type="line"/>
			<point x="371" y="348"/>
			<point x="380" y="306"/>
			<point x="392" y="261" type="curve"/>
			<point x="458" y="0" type="line"/>
			<point x="563" y="0" type="line"/>
			<point x="694" y="486" type="line"/>
			<point x="615" y="486" type="line"/>
			<point x="544" y="204" type="line"/>
			<point x="533" y="160"/>
			<point x="525" y="118"/>
			<point x="515" y="66" type="curve"/>
			<point x="511" y="66" type="line"/>
			<point x="501" y="118"/>
			<point x="490" y="160"/>
			<point x="479" y="204" type="curve"/>
			<point x="405" y="486" type="line"/>
			<point x="316" y="486" type="line"/>
			<point x="243" y="204" type="line"/>
			<point x="232" y="160"/>
			<point x="223" y="118"/>
			<point x="213" y="66" type="curve"/>
			<point x="209" y="66" type="line"/>
			<point x="201" y="118"/>
			<point x="191" y="160"/>
			<point x="180" y="204" type="curve"/>
			<point x="109" y="486" type="line"/>
			<point x="24" y="486" type="line"/>
		</contour>
	</outline>
	<anchor name="aboveLC" x="359" y="509"/>
	<anchor name="belowLC" x="359" y="-22"/>
</glyph>
<glyph name="y" format="2">
	<unicode hex="0079"/>
	<advance width="467"/>
	<outline>
		<contour>
			<point x="90" y="-209" type="curve" smooth="yes"/>
			<point x="188" y="-209"/>
			<point x="238" y="-136"/>
			<point x="272" y="-40" type="curve"/>
			<point x="455" y="486" type="line"/>
			<point x="375" y="486" type="line"/>
			<point x="288" y="217" type="line" smooth="yes"/>
			<point x="275" y="174"/>
			<point x="261" y="124"/>
			<point x="247" y="80" type="curve"/>
			<point x="243" y="80" type="line"/>
			<point x="228" y="125"/>
			<point x="211" y="175"/>
			<point x="196" y="217" type="curve" smooth="yes"/>
			<point x="97" y="486" type="line"/>
			<point x="12" y="486" type="line"/>
			<point x="207" y="-1" type="line"/>
			<point x="196" y="-37" type="line" smooth="yes"/>
			<point x="176" y="-97"/>
			<point x="141" y="-141"/>
			<point x="86" y="-141" type="curve" smooth="yes"/>
			<point x="75" y="-141"/>
			<point x="63" y="-139"/>
			<point x="51" y="-135" type="curve"/>
			<point x="33" y="-199" type="line"/>
			<point x="49" y="-205"/>
			<point x="68" y="-209"/>
		</contour>
	</outline>
	<anchor name="aboveLC" x="241" y="509"/>
	<anchor name="aboverightLC" x="422" y="509"/>
	<anchor name="belowLC" x="201" y="-220"/>
</glyph>
<glyph name="z" format="2">
	<unicode hex="007A"/>
	<advance width="425"/>
	<outline>
		<contour>
			<point x="31" y="0" type="line"/>
			<point x="399" y="0" type="line"/>
			<point x="399" y="67" type="line"/>
			<point x="135" y="67" type="line"/>
			<point x="391" y="442" type="line"/>
			<point x="391" y="486" type="line"/>
			<point x="59" y="486" type="line"/>
			<point x="59" y="419" type="line"/>
			<point x="287" y="419" type="line"/>
			<point x="31" y="44" type="line"/>
		</contour>
	</outline>
	<anchor name="aboveLC" x="231" y="509"/>
	<anchor name="belowLC" x="225" y="-22"/>
	<anchor name="center" x="215" y="244"/>
</glyph>
<glyph name="braceright" format="2">
	<unicode hex="007D"/>
	<advance width="303"/>
	<outline>
		<contour>
			<point x="31" y="-152" type="line"/>
			<point x="75" y="-152" type="line" smooth="yes"/>
			<point x="155" y="-152"/>
			<point x="192" y="-122"/>
			<point x="192" y="-19" type="curve" smooth="yes"/>
			<point x="192" y="54"/>
			<point x="183" y="107"/>
			<point x="183" y="174" type="curve" smooth="yes"/>
			<point x="183" y="213"/>
			<point x="202" y="251"/>
			<point x="269" y="252" type="curve"/>
			<point x="269" y="304" type="line"/>
			<point x="202" y="305"/>
			<point x="183" y="343"/>
			<point x="183" y="381" type="curve" smooth="yes"/>
			<point x="183" y="449"/>
			<point x="192" y="502"/>
			<point x="192" y="575" type="curve" smooth="yes"/>
			<point x="192" y="678"/>
			<point x="155" y="708"/>
			<point x="75" y="708" type="curve" smooth="yes"/>
			<point x="31" y="708" type="line"/>
			<point x="31" y="661" type="line"/>
			<point x="57" y="661" type="line" smooth="yes"/>
			<point x="111" y="661"/>
			<point x="125" y="635"/>
			<point x="125" y="570" type="curve" smooth="yes"/>
			<point x="125" y="509"/>
			<point x="120" y="457"/>
			<point x="120" y="389" type="curve" smooth="yes"/>
			<point x="120" y="324"/>
			<point x="136" y="292"/>
			<point x="179" y="280" type="curve"/>
			<point x="179" y="276" type="line"/>
			<point x="136" y="264"/>
			<point x="120" y="231"/>
			<point x="120" y="167" type="curve" smooth="yes"/>
			<point x="120" y="99"/>
			<point x="125" y="47"/>
			<point x="125" y="-14" type="curve" smooth="yes"/>
			<point x="125" y="-79"/>
			<point x="111" y="-105"/>
			<point x="57" y="-105" type="curve" smooth="yes"/>
			<point x="31" y="-105" type="line"/>
		</contour>
	</outline>
</glyph>
<glyph name="exclamdown" format="2">
	<unicode hex="00A1"/>
	<advance width="290"/>
	<outline>
		<contour>
			<point x="103" y="-184" type="line"/>
			<point x="187" y="-184" type="line"/>
			<point x="185" y="-90" type="line"/>
			<point x="173" y="287" type="line"/>
			<point x="116" y="287" type="line"/>
			<point x="105" y="-90" type="line"/>
		</contour>
		<contour>
			<point x="145" y="372" type="curve" smooth="yes"/>
			<point x="178" y="372"/>
			<point x="205" y="398"/>
			<point x="205" y="436" type="curve" smooth="yes"/>
			<point x="205" y="472"/>
			<point x="178" y="498"/>
			<point x="145" y="498" type="curve" smooth="yes"/>
			<point x="112" y="498"/>
			<point x="85" y="472"/>
			<point x="85" y="436" type="curve" smooth="yes"/>
			<point x="85" y="398"/>
			<point x="112" y="372"/>
		</contour>
	</outline>
</glyph>
<glyph name="cent" format="2">
	<unicode hex="00A2"/>
	<advance width="497"/>
	<outline>
		<contour>
			<point x="297" y="69" type="curve" smooth="yes"/>
			<point x="355" y="69"/>
			<point x="411" y="93"/>
			<point x="455" y="132" type="curve"/>
			<point x="418" y="185" type="line"/>
			<point x="389" y="160"/>
			<point x="350" y="138"/>
			<point x="304" y="138" type="curve" smooth="yes"/>
			<point x="205" y="138"/>
			<point x="143" y="206"/>
			<point x="143" y="310" type="curve" smooth="yes"/>
			<point x="143" y="413"/>
			<point x="208" y="481"/>
			<point x="307" y="481" type="curve" smooth="yes"/>
			<point x="345" y="481"/>
			<point x="376" y="465"/>
			<point x="405" y="440" type="curve"/>
			<point x="445" y="492" type="line"/>
			<point x="412" y="523"/>
			<point x="367" y="550"/>
			<point x="303" y="550" type="curve" smooth="yes"/>
			<point x="171" y="550"/>
			<point x="61" y="464"/>
			<point x="61" y="310" type="curve" smooth="yes"/>
			<point x="61" y="156"/>
			<point x="159" y="69"/>
		</contour>
		<contour>
			<point x="262" y="-33" type="line"/>
			<point x="314" y="-33" type="line"/>
			<point x="314" y="653" type="line"/>
			<point x="262" y="653" type="line"/>
		</contour>
	</outline>
</glyph>
<glyph name="sterling" format="2">
	<unicode hex="00A3"/>
	<advance width="497"/>
	<outline>
		<contour>
			<point x="54" y="0" type="line"/>
			<point x="454" y="0" type="line"/>
			<point x="454" y="71" type="line"/>
			<point x="173" y="71" type="line"/>
			<point x="173" y="75" type="line"/>
			<point x="213" y="117"/>
			<point x="234" y="160"/>
			<point x="234" y="229" type="curve" smooth="yes"/>
			<point x="234" y="319"/>
			<point x="193" y="386"/>
			<point x="193" y="463" type="curve" smooth="yes"/>
			<point x="193" y="531"/>
			<point x="232" y="581"/>
			<point x="304" y="581" type="curve" smooth="yes"/>
			<point x="350" y="581"/>
			<point x="381" y="563"/>
			<point x="407" y="530" type="curve"/>
			<point x="453" y="572" type="line"/>
			<point x="420" y="618"/>
			<point x="370" y="650"/>
			<point x="297" y="650" type="curve" smooth="yes"/>
			<point x="186" y="650"/>
			<point x="111" y="579"/>
			<point x="111" y="466" type="curve" smooth="yes"/>
			<point x="111" y="388"/>
			<point x="160" y="311"/>
			<point x="160" y="230" type="curve" smooth="yes"/>
			<point x="160" y="155"/>
			<point x="122" y="87"/>
			<point x="54" y="51" type="curve"/>
		</contour>
		<contour>
			<point x="53" y="285" type="line"/>
			<point x="375" y="285" type="line"/>
			<point x="375" y="341" type="line"/>
			<point x="120" y="341" type="line"/>
			<point x="53" y="338" type="line"/>
		</contour>
	</outline>
</glyph>
<glyph name="currency" format="1">
	<unicode hex="00A4"/>
	<advance width="497"/>
	<outline>
		<contour>
			<point x="70" y="103" type="line"/>
			<point x="138" y="172" type="line"/>
			<point x="169" y="147"/>
			<point x="208" y="134"/>
			<point x="249" y="134" type="curve" smooth="yes"/>
			<point x="288" y="134"/>
			<point x="328" y="147"/>
			<point x="359" y="172" type="curve"/>
			<point x="427" y="103" type="line"/>
			<point x="471" y="148" type="line"/>
			<point x="406" y="213" type="line"/>
			<point x="429" y="244"/>
			<point x="443" y="283"/>
			<point x="443" y="329" type="curve" smooth="yes"/>
			<point x="443" y="375"/>
			<point x="429" y="415"/>
			<point x="406" y="446" type="curve"/>
			<point x="471" y="512" type="line"/>
			<point x="427" y="557" type="line"/>
			<point x="359" y="487" type="line"/>
			<point x="328" y="511"/>
			<point x="288" y="524"/>
			<point x="249" y="524" type="curve" smooth="yes"/>
			<point x="208" y="524"/>
			<point x="169" y="511"/>
			<point x="138" y="487" type="curve"/>
			<point x="70" y="557" type="line"/>
			<point x="26" y="512" type="line"/>
			<point x="90" y="446" type="line"/>
			<point x="67" y="415"/>
			<point x="54" y="375"/>
			<point x="54" y="329" type="curve" smooth="yes"/>
			<point x="54" y="283"/>
			<point x="67" y="244"/>
			<point x="90" y="213" type="curve"/>
			<point x="26" y="148" type="line"/>
		</contour>
		<contour>
			<point x="249" y="195" type="curve" smooth="yes"/>
			<point x="184" y="195"/>
			<point x="130" y="249"/>
			<point x="130" y="329" type="curve" smooth="yes"/>
			<point x="130" y="409"/>
			<point x="184" y="463"/>
			<point x="249" y="463" type="curve" smooth="yes"/>
			<point x="313" y="463"/>
			<point x="367" y="409"/>
			<point x="367" y="329" type="curve" smooth="yes"/>
			<point x="367" y="249"/>
			<point x="313" y="195"/>
		</contour>
	</outline>
</glyph>
<glyph name="yen" format="2">
	<unicode hex="00A5"/>
	<advance width="497"/>
	<outline>
		<contour>
			<point x="207" y="0" type="line"/>
			<point x="289" y="0" type="line"/>
			<point x="289" y="151" type="line"/>
			<point x="451" y="151" type="line"/>
			<point x="451" y="203" type="line"/>
			<point x="289" y="203" type="line"/>
			<point x="289" y="270" type="line"/>
			<point x="451" y="270" type="line"/>
			<point x="451" y="322" type="line"/>
			<point x="311" y="322" type="line"/>
			<point x="473" y="638" type="line"/>
			<point x="391" y="638" type="line"/>
			<point x="312" y="466" type="line"/>
			<point x="292" y="422"/>
			<point x="273" y="378"/>
			<point x="251" y="331" type="curve"/>
			<point x="247" y="331" type="line"/>
			<point x="226" y="378"/>
			<point x="207" y="422"/>
			<point x="187" y="466" type="curve" smooth="yes"/>
			<point x="109" y="638" type="line"/>
			<point x="24" y="638" type="line"/>
			<point x="184" y="322" type="line"/>
			<point x="45" y="322" type="line"/>
			<point x="45" y="270" type="line"/>
			<point x="207" y="270" type="line"/>
			<point x="207" y="203" type="line"/>
			<point x="45" y="203" type="line"/>
			<point x="45" y="151" type="line"/>
			<point x="207" y="151" type="line"/>
		</contour>
	</outline>
</glyph>
<glyph name="brokenbar" format="2">
	<unicode hex="00A6"/>
	<advance width="241"/>
	<outline>
		<contour>
			<point x="92" y="291" type="line"/>
			<point x="150" y="291" type="line"/>
			<point x="150" y="750" type="line"/>
			<point x="92" y="750" type="line"/>
		</contour>
		<contour>
			<point x="92" y="-250" type="line"/>
			<point x="150" y="-250" type="line"/>
			<point x="150" y="214" type="line"/>
			<point x="92" y="214" type="line"/>
		</contour>
	</outline>
</glyph>
<glyph name="section" format="2">
	<unicode hex="00A7"/>
	<advance width="497"/>
	<outline>
		<contour>
			<point x="236" y="-64" type="curve" smooth="yes"/>
			<point x="331" y="-64"/>
			<point x="397" y="-6"/>
			<point x="397" y="73" type="curve" smooth="yes"/>
			<point x="397" y="243"/>
			<point x="118" y="214"/>
			<point x="118" y="348" type="curve" smooth="yes"/>
			<point x="118" y="394"/>
			<point x="148" y="420"/>
			<point x="194" y="442" type="curve"/>
			<point x="155" y="484" type="line"/>
			<point x="93" y="457"/>
			<point x="45" y="409"/>
			<point x="45" y="343" type="curve" smooth="yes"/>
			<point x="45" y="158"/>
			<point x="321" y="183"/>
			<point x="321" y="69" type="curve" smooth="yes"/>
			<point x="321" y="31"/>
			<point x="289" y="0"/>
			<point x="236" y="0" type="curve" smooth="yes"/>
			<point x="183" y="0"/>
			<point x="146" y="20"/>
			<point x="113" y="53" type="curve"/>
			<point x="63" y="7" type="line"/>
			<point x="104" y="-38"/>
			<point x="165" y="-64"/>
		</contour>
		<contour>
			<point x="342" y="141" type="line"/>
			<point x="407" y="173"/>
			<point x="452" y="211"/>
			<point x="452" y="284" type="curve" smooth="yes"/>
			<point x="452" y="468"/>
			<point x="175" y="449"/>
			<point x="175" y="557" type="curve" smooth="yes"/>
			<point x="175" y="591"/>
			<point x="199" y="620"/>
			<point x="254" y="620" type="curve" smooth="yes"/>
			<point x="299" y="620"/>
			<point x="334" y="599"/>
			<point x="365" y="573" type="curve"/>
			<point x="406" y="627" type="line"/>
			<point x="367" y="658"/>
			<point x="314" y="684"/>
			<point x="251" y="684" type="curve" smooth="yes"/>
			<point x="151" y="684"/>
			<point x="99" y="623"/>
			<point x="99" y="554" type="curve" smooth="yes"/>
			<point x="99" y="387"/>
			<point x="380" y="416"/>
			<point x="380" y="278" type="curve" smooth="yes"/>
			<point x="380" y="226"/>
			<point x="350" y="204"/>
			<point x="297" y="183" type="curve"/>
		</contour>
	</outline>
</glyph>
<glyph name="copyright" format="2">
	<unicode hex="00A9"/>
	<advance width="744"/>
	<outline>
		<contour>
			<point x="372" y="-11" type="curve" smooth="yes"/>
			<point x="546" y="-11"/>
			<point x="695" y="119"/>
			<point x="695" y="323" type="curve" smooth="yes"/>
			<point x="695" y="526"/>
			<point x="546" y="653"/>
			<point x="372" y="653" type="curve" smooth="yes"/>
			<point x="198" y="653"/>
			<point x="49" y="526"/>
			<point x="49" y="323" type="curve" smooth="yes"/>
			<point x="49" y="119"/>
			<point x="198" y="-11"/>
		</contour>
		<contour>
			<point x="372" y="31" type="curve" smooth="yes"/>
			<point x="221" y="31"/>
			<point x="96" y="148"/>
			<point x="96" y="323" type="curve" smooth="yes"/>
			<point x="96" y="497"/>
			<point x="221" y="612"/>
			<point x="372" y="612" type="curve" smooth="yes"/>
			<point x="523" y="612"/>
			<point x="648" y="497"/>
			<point x="648" y="323" type="curve" smooth="yes"/>
			<point x="648" y="148"/>
			<point x="523" y="31"/>
		</contour>
		<contour>
			<point x="380" y="128" type="curve" smooth="yes"/>
			<point x="440" y="128"/>
			<point x="478" y="151"/>
			<point x="514" y="186" type="curve"/>
			<point x="482" y="226" type="line"/>
			<point x="453" y="199"/>
			<point x="429" y="183"/>
			<point x="383" y="183" type="curve" smooth="yes"/>
			<point x="311" y="183"/>
			<point x="264" y="235"/>
			<point x="264" y="319" type="curve" smooth="yes"/>
			<point x="264" y="401"/>
			<point x="314" y="459"/>
			<point x="386" y="459" type="curve" smooth="yes"/>
			<point x="421" y="459"/>
			<point x="450" y="445"/>
			<point x="473" y="418" type="curve"/>
			<point x="509" y="455" type="line"/>
			<point x="479" y="489"/>
			<point x="439" y="514"/>
			<point x="383" y="514" type="curve" smooth="yes"/>
			<point x="286" y="514"/>
			<point x="198" y="439"/>
			<point x="198" y="319" type="curve" smooth="yes"/>
			<point x="198" y="199"/>
			<point x="278" y="128"/>
		</contour>
	</outline>
</glyph>
<glyph name="logicalnot" format="1">
	<unicode hex="00AC"/>
	<advance width="497"/>
	<outline>
		<contour>
			<point x="397" y="104" type="line"/>
			<point x="463" y="104" type="line"/>
			<point x="463" y="361" type="line"/>
			<point x="34" y="361" type="line"/>
			<point x="34" y="299" type="line"/>
			<point x="397" y="299" type="line"/>
		</contour>
	</outline>
</glyph>
<glyph name="plusminus" format="2">
	<unicode hex="00B1"/>
	<advance width="497"/>
	<outline>
		<contour>
			<point x="216" y="127" type="line"/>
			<point x="282" y="127" type="line"/>
			<point x="282" y="304" type="line"/>
			<point x="463" y="304" type="line"/>
			<point x="463" y="366" type="line"/>
			<point x="282" y="366" type="line"/>
			<point x="282" y="556" type="line"/>
			<point x="216" y="556" type="line"/>
			<point x="216" y="366" type="line"/>
			<point x="34" y="366" type="line"/>
			<point x="34" y="304" type="line"/>
			<point x="216" y="304" type="line"/>
		</contour>
		<contour>
			<point x="34" y="0" type="line"/>
			<point x="463" y="0" type="line"/>
			<point x="463" y="62" type="line"/>
			<point x="34" y="62" type="line"/>
		</contour>
	</outline>
</glyph>
<glyph name="mu" format="2">
	<unicode hex="00B5"/>
	<unicode hex="03BC"/>
	<advance width="562"/>
	<outline>
		<contour>
			<point x="82" y="-179" type="line"/>
			<point x="166" y="-179" type="line"/>
			<point x="160" y="-102"/>
			<point x="159" y="-59"/>
			<point x="159" y="37" type="curve"/>
			<point x="181" y="-1"/>
			<point x="213" y="-10"/>
			<point x="252" y="-10" type="curve" smooth="yes"/>
			<point x="305" y="-10"/>
			<point x="352" y="20"/>
			<point x="387" y="82" type="curve"/>
			<point x="389" y="82" type="line"/>
			<point x="396" y="17"/>
			<point x="422" y="-12"/>
			<point x="477" y="-12" type="curve"/>
			<point x="504" y="-12"/>
			<point x="522" y="-7"/>
			<point x="536" y="0" type="curve"/>
			<point x="525" y="63" type="line"/>
			<point x="514" y="59"/>
			<point x="504" y="57"/>
			<point x="495" y="57" type="curve" smooth="yes"/>
			<point x="474" y="57"/>
			<point x="460" y="68"/>
			<point x="460" y="96" type="curve" smooth="yes"/>
			<point x="460" y="212"/>
			<point x="464" y="355"/>
			<point x="466" y="486" type="curve"/>
			<point x="382" y="486" type="line"/>
			<point x="382" y="154" type="line"/>
			<point x="337" y="75"/>
			<point x="297" y="60"/>
			<point x="254" y="60" type="curve" smooth="yes"/>
			<point x="191" y="60"/>
			<point x="165" y="104"/>
			<point x="165" y="189" type="curve" smooth="yes"/>
			<point x="165" y="486" type="line"/>
			<point x="82" y="486" type="line"/>
		</contour>
	</outline>
</glyph>
<glyph name="paragraph" format="2">
	<unicode hex="00B6"/>
	<advance width="561"/>
	<outline>
		<contour>
			<point x="380" y="-80" type="line"/>
			<point x="465" y="-80" type="line"/>
			<point x="465" y="656" type="line"/>
			<point x="380" y="656" type="line"/>
		</contour>
		<contour>
			<point x="293" y="226" type="curve" smooth="yes"/>
			<point x="326" y="226" type="line"/>
			<point x="326" y="656" type="line"/>
			<point x="282" y="656" type="line" smooth="yes"/>
			<point x="144" y="656"/>
			<point x="41" y="600"/>
			<point x="41" y="443" type="curve" smooth="yes"/>
			<point x="41" y="292"/>
			<point x="148" y="226"/>
		</contour>
	</outline>
</glyph>
<glyph name="questiondown" format="2">
	<unicode hex="00BF"/>
	<advance width="425"/>
	<outline>
		<contour>
			<point x="215" y="-196" type="curve" smooth="yes"/>
			<point x="288" y="-196"/>
			<point x="345" y="-160"/>
			<point x="387" y="-113" type="curve"/>
			<point x="339" y="-70" type="line"/>
			<point x="308" y="-105"/>
			<point x="269" y="-127"/>
			<point x="225" y="-127" type="curve" smooth="yes"/>
			<point x="161" y="-127"/>
			<point x="129" y="-84"/>
			<point x="129" y="-30" type="curve" smooth="yes"/>
			<point x="129" y="75"/>
			<point x="287" y="132"/>
			<point x="266" y="287" type="curve"/>
			<point x="192" y="287" type="line"/>
			<point x="209" y="148"/>
			<point x="48" y="95"/>
			<point x="48" y="-36" type="curve" smooth="yes"/>
			<point x="48" y="-135"/>
			<point x="114" y="-196"/>
		</contour>
		<contour>
			<point x="227" y="372" type="curve" smooth="yes"/>
			<point x="260" y="372"/>
			<point x="287" y="398"/>
			<point x="287" y="436" type="curve" smooth="yes"/>
			<point x="287" y="472"/>
			<point x="260" y="498"/>
			<point x="227" y="498" type="curve" smooth="yes"/>
			<point x="194" y="498"/>
			<point x="167" y="472"/>
			<point x="167" y="436" type="curve" smooth="yes"/>
			<point x="167" y="398"/>
			<point x="194" y="372"/>
		</contour>
	</outline>
</glyph>
<glyph name="AE" format="2">
	<unicode hex="00C6"/>
	<advance width="823"/>
	<outline>
		<contour>
			<point x="8" y="0" type="line"/>
			<point x="97" y="0" type="line"/>
			<point x="290" y="376" type="line"/>
			<point x="326" y="446"/>
			<point x="362" y="519"/>
			<point x="397" y="590" type="curve"/>
			<point x="401" y="590" type="line"/>
			<point x="401" y="0" type="line"/>
			<point x="774" y="0" type="line"/>
			<point x="774" y="71" type="line"/>
			<point x="486" y="71" type="line"/>
			<point x="486" y="309" type="line"/>
			<point x="718" y="309" type="line"/>
			<point x="718" y="380" type="line"/>
			<point x="486" y="380" type="line"/>
			<point x="486" y="585" type="line"/>
			<point x="764" y="585" type="line"/>
			<point x="764" y="656" type="line"/>
			<point x="352" y="656" type="line"/>
		</contour>
		<contour>
			<point x="158" y="191" type="line"/>
			<point x="452" y="191" type="line"/>
			<point x="452" y="258" type="line"/>
			<point x="158" y="258" type="line"/>
		</contour>
	</outline>
	<anchor name="aboveUC" x="561" y="678"/>
</glyph>
<glyph name="Eth" format="2">
	<unicode hex="00D0"/>
	<advance width="639"/>
	<outline>
		<contour>
			<point x="33" y="313" type="line"/>
			<point x="346" y="313" type="line"/>
			<point x="346" y="377" type="line"/>
			<point x="115" y="377" type="line"/>
			<point x="33" y="373" type="line"/>
		</contour>
		<component base="D" xOffset="24"/>
	</outline>
</glyph>
<glyph name="multiply" format="2">
	<unicode hex="00D7"/>
	<advance width="497"/>
	<outline>
		<contour>
			<point x="94" y="126" type="line"/>
			<point x="249" y="285" type="line"/>
			<point x="403" y="126" type="line"/>
			<point x="447" y="172" type="line"/>
			<point x="293" y="330" type="line"/>
			<point x="447" y="488" type="line"/>
			<point x="403" y="533" type="line"/>
			<point x="249" y="374" type="line"/>
			<point x="94" y="533" type="line"/>
			<point x="50" y="488" type="line"/>
			<point x="204" y="330" type="line"/>
			<point x="50" y="172" type="line"/>
		</contour>
	</outline>
</glyph>
<glyph name="Oslash" format="1">
	<unicode hex="00D8"/>
	<advance width="664"/>
	<outline>
		<contour>
			<point x="96" y="-30" type="line"/>
			<point x="619" y="651" type="line"/>
			<point x="573" y="686" type="line"/>
			<point x="50" y="6" type="line"/>
		</contour>
		<component base="O" xOffset="3"/>
		<contour>
			<point name="aboveUC" x="335" y="678" type="move"/>
		</contour>
	</outline>
</glyph>
<glyph name="Thorn" format="2">
	<unicode hex="00DE"/>
	<advance width="584"/>
	<outline>
		<contour>
			<point x="90" y="0" type="line"/>
			<point x="174" y="0" type="line"/>
			<point x="174" y="150" type="line"/>
			<point x="291" y="150" type="line" smooth="yes"/>
			<point x="435" y="150"/>
			<point x="534" y="214"/>
			<point x="534" y="353" type="curve" smooth="yes"/>
			<point x="534" y="496"/>
			<point x="436" y="546"/>
			<point x="291" y="546" type="curve" smooth="yes"/>
			<point x="174" y="546" type="line"/>
			<point x="174" y="656" type="line"/>
			<point x="90" y="656" type="line"/>
		</contour>
		<contour>
			<point x="174" y="218" type="line"/>
			<point x="174" y="478" type="line"/>
			<point x="281" y="478" type="line" smooth="yes"/>
			<point x="394" y="478"/>
			<point x="450" y="447"/>
			<point x="450" y="353" type="curve" smooth="yes"/>
			<point x="450" y="259"/>
			<point x="395" y="218"/>
			<point x="281" y="218" type="curve" smooth="yes"/>
		</contour>
	</outline>
</glyph>
<glyph name="germandbls" format="2">
	<unicode hex="00DF"/>
	<advance width="576"/>
	<outline>
		<contour>
			<point x="388" y="-12" type="curve" smooth="yes"/>
			<point x="486" y="-12"/>
			<point x="548" y="53"/>
			<point x="548" y="137" type="curve" smooth="yes"/>
			<point x="548" y="299"/>
			<point x="363" y="277"/>
			<point x="363" y="374" type="curve" smooth="yes"/>
			<point x="363" y="443"/>
			<point x="462" y="476"/>
			<point x="462" y="576" type="curve" smooth="yes"/>
			<point x="462" y="655"/>
			<point x="397" y="722"/>
			<point x="288" y="722" type="curve" smooth="yes"/>
			<point x="159" y="722"/>
			<point x="82" y="640"/>
			<point x="82" y="515" type="curve" smooth="yes"/>
			<point x="82" y="0" type="line"/>
			<point x="164" y="0" type="line"/>
			<point x="164" y="499" type="line" smooth="yes"/>
			<point x="164" y="602"/>
			<point x="213" y="655"/>
			<point x="287" y="655" type="curve" smooth="yes"/>
			<point x="345" y="655"/>
			<point x="380" y="617"/>
			<point x="380" y="567" type="curve" smooth="yes"/>
			<point x="380" y="483"/>
			<point x="284" y="454"/>
			<point x="284" y="364" type="curve" smooth="yes"/>
			<point x="284" y="225"/>
			<point x="469" y="248"/>
			<point x="469" y="132" type="curve" smooth="yes"/>
			<point x="469" y="90"/>
			<point x="440" y="53"/>
			<point x="385" y="53" type="curve" smooth="yes"/>
			<point x="347" y="53"/>
			<point x="314" y="64"/>
			<point x="279" y="93" type="curve"/>
			<point x="246" y="37" type="line"/>
			<point x="287" y="4"/>
			<point x="333" y="-12"/>
		</contour>
	</outline>
</glyph>
<glyph name="ae" format="2">
	<unicode hex="00E6"/>
	<advance width="778"/>
	<outline>
		<contour>
			<point x="194" y="-12" type="curve" smooth="yes"/>
			<point x="257" y="-12"/>
			<point x="327" y="20"/>
			<point x="392" y="79" type="curve"/>
			<point x="430" y="31"/>
			<point x="482" y="-12"/>
			<point x="564" y="-12" type="curve" smooth="yes"/>
			<point x="630" y="-12"/>
			<point x="679" y="8"/>
			<point x="722" y="38" type="curve"/>
			<point x="693" y="90" type="line"/>
			<point x="658" y="66"/>
			<point x="620" y="54"/>
			<point x="574" y="54" type="curve" smooth="yes"/>
			<point x="490" y="54"/>
			<point x="425" y="123"/>
			<point x="422" y="224" type="curve"/>
			<point x="737" y="224" type="line"/>
			<point x="739" y="236"/>
			<point x="741" y="251"/>
			<point x="741" y="269" type="curve" smooth="yes"/>
			<point x="741" y="408"/>
			<point x="675" y="498"/>
			<point x="555" y="498" type="curve" smooth="yes"/>
			<point x="489" y="498"/>
			<point x="433" y="458"/>
			<point x="396" y="395" type="curve"/>
			<point x="375" y="458"/>
			<point x="328" y="498"/>
			<point x="256" y="498" type="curve" smooth="yes"/>
			<point x="184" y="498"/>
			<point x="118" y="465"/>
			<point x="73" y="435" type="curve"/>
			<point x="105" y="380" type="line"/>
			<point x="143" y="404"/>
			<point x="194" y="430"/>
			<point x="246" y="430" type="curve" smooth="yes"/>
			<point x="326" y="430"/>
			<point x="346" y="370"/>
			<point x="346" y="308" type="curve"/>
			<point x="145" y="285"/>
			<point x="52" y="232"/>
			<point x="52" y="126" type="curve" smooth="yes"/>
			<point x="52" y="39"/>
			<point x="113" y="-12"/>
		</contour>
		<contour>
			<point x="218" y="54" type="curve" smooth="yes"/>
			<point x="170" y="54"/>
			<point x="132" y="77"/>
			<point x="132" y="132" type="curve" smooth="yes"/>
			<point x="132" y="194"/>
			<point x="191" y="234"/>
			<point x="345" y="254" type="curve"/>
			<point x="346" y="229" type="line" smooth="yes"/>
			<point x="347" y="192"/>
			<point x="353" y="154"/>
			<point x="364" y="129" type="curve"/>
			<point x="320" y="81"/>
			<point x="262" y="54"/>
		</contour>
		<contour>
			<point x="422" y="280" type="line"/>
			<point x="432" y="372"/>
			<point x="486" y="433"/>
			<point x="553" y="433" type="curve" smooth="yes"/>
			<point x="624" y="433"/>
			<point x="668" y="381"/>
			<point x="668" y="280" type="curve"/>
		</contour>
	</outline>
	<anchor name="aboveLC" x="406" y="509"/>
	<anchor name="belowLC" x="413" y="-22"/>
</glyph>
<glyph name="eth" format="2">
	<unicode hex="00F0"/>
	<advance width="545"/>
	<outline>
		<contour>
			<point x="269" y="-12" type="curve" smooth="yes"/>
			<point x="399" y="-12"/>
			<point x="485" y="97"/>
			<point x="485" y="257" type="curve" smooth="yes"/>
			<point x="485" y="516"/>
			<point x="334" y="645"/>
			<point x="174" y="730" type="curve"/>
			<point x="137" y="678" type="line"/>
			<point x="296" y="590"/>
			<point x="405" y="489"/>
			<point x="405" y="254" type="curve" smooth="yes"/>
			<point x="405" y="137"/>
			<point x="360" y="57"/>
			<point x="271" y="57" type="curve" smooth="yes"/>
			<point x="195" y="57"/>
			<point x="131" y="122"/>
			<point x="131" y="222" type="curve" smooth="yes"/>
			<point x="131" y="314"/>
			<point x="182" y="382"/>
			<point x="271" y="382" type="curve" smooth="yes"/>
			<point x="318" y="382"/>
			<point x="364" y="367"/>
			<point x="409" y="302" type="curve"/>
			<point x="408" y="358" type="line"/>
			<point x="374" y="419"/>
			<point x="318" y="447"/>
			<point x="259" y="447" type="curve" smooth="yes"/>
			<point x="143" y="447"/>
			<point x="53" y="358"/>
			<point x="53" y="222" type="curve" smooth="yes"/>
			<point x="53" y="77"/>
			<point x="156" y="-12"/>
		</contour>
		<contour>
			<point x="145" y="499" type="line"/>
			<point x="478" y="671" type="line"/>
			<point x="454" y="712" type="line"/>
			<point x="121" y="541" type="line"/>
		</contour>
	</outline>
	<anchor name="aboveUC" x="285" y="726"/>
	<anchor name="belowLC" x="270" y="-22"/>
</glyph>
<glyph name="oslash" format="2">
	<unicode hex="00F8"/>
	<advance width="543"/>
	<outline>
		<contour>
			<point x="271" y="-12" type="curve" smooth="yes"/>
			<point x="390" y="-12"/>
			<point x="496" y="81"/>
			<point x="496" y="242" type="curve" smooth="yes"/>
			<point x="496" y="405"/>
			<point x="390" y="498"/>
			<point x="271" y="498" type="curve" smooth="yes"/>
			<point x="152" y="498"/>
			<point x="46" y="405"/>
			<point x="46" y="242" type="curve" smooth="yes"/>
			<point x="46" y="81"/>
			<point x="152" y="-12"/>
		</contour>
		<contour>
			<point x="271" y="53" type="curve" smooth="yes"/>
			<point x="186" y="53"/>
			<point x="126" y="126"/>
			<point x="126" y="246" type="curve" smooth="yes"/>
			<point x="126" y="356"/>
			<point x="187" y="432"/>
			<point x="271" y="432" type="curve" smooth="yes"/>
			<point x="356" y="432"/>
			<point x="416" y="359"/>
			<point x="416" y="239" type="curve" smooth="yes"/>
			<point x="416" y="128"/>
			<point x="355" y="53"/>
		</contour>
		<contour>
			<point x="86" y="-29" type="line"/>
			<point x="503" y="476" type="line"/>
			<point x="457" y="515" type="line"/>
			<point x="40" y="9" type="line"/>
		</contour>
	</outline>
</glyph>
<glyph name="thorn" format="2">
	<unicode hex="00FE"/>
	<advance width="555"/>
	<outline>
		<contour>
			<point x="82" y="-205" type="line"/>
			<point x="165" y="-205" type="line"/>
			<point x="165" y="-41" type="line"/>
			<point x="163" y="42" type="line"/>
			<point x="207" y="8"/>
			<point x="250" y="-12"/>
			<point x="297" y="-12" type="curve" smooth="yes"/>
			<point x="408" y="-12"/>
			<point x="508" y="85"/>
			<point x="508" y="250" type="curve" smooth="yes"/>
			<point x="508" y="401"/>
			<point x="439" y="498"/>
			<point x="311" y="498" type="curve" smooth="yes"/>
			<point x="258" y="498"/>
			<point x="206" y="470"/>
			<point x="163" y="435" type="curve"/>
			<point x="165" y="519" type="line"/>
			<point x="165" y="712" type="line"/>
			<point x="82" y="712" type="line"/>
		</contour>
		<contour>
			<point x="283" y="58" type="curve" smooth="yes"/>
			<point x="251" y="58"/>
			<point x="209" y="71"/>
			<point x="165" y="108" type="curve"/>
			<point x="165" y="362" type="line"/>
			<point x="212" y="406"/>
			<point x="253" y="428"/>
			<point x="294" y="428" type="curve" smooth="yes"/>
			<point x="385" y="428"/>
			<point x="422" y="357"/>
			<point x="422" y="250" type="curve" smooth="yes"/>
			<point x="422" y="130"/>
			<point x="363" y="58"/>
		</contour>
	</outline>
	<anchor name="aboveUC" x="231" y="726"/>
	<anchor name="belowLC" x="131" y="-211"/>
</glyph>
<glyph name="Aogonek" format="1">
	<unicode hex="0104"/>
	<advance width="544"/>
	<outline>
		<contour>
			<point x="492" y="-212" type="curve" smooth="yes"/>
			<point x="518" y="-212"/>
			<point x="552" y="-199"/>
			<point x="572" y="-184" type="curve"/>
			<point x="549" y="-139" type="line"/>
			<point x="537" y="-148"/>
			<point x="524" y="-153"/>
			<point x="507" y="-153" type="curve" smooth="yes"/>
			<point x="483" y="-153"/>
			<point x="461" y="-138"/>
			<point x="461" y="-107" type="curve" smooth="yes"/>
			<point x="461" y="-65"/>
			<point x="494" y="-19"/>
			<point x="541" y="0" type="curve"/>
			<point x="319" y="656" type="line"/>
			<point x="225" y="656" type="line"/>
			<point x="3" y="0" type="line"/>
			<point x="88" y="0" type="line"/>
			<point x="203" y="367" type="line" smooth="yes"/>
			<point x="227" y="440"/>
			<point x="248" y="512"/>
			<point x="268" y="588" type="curve"/>
			<point x="272" y="588" type="line"/>
			<point x="293" y="512"/>
			<point x="314" y="440"/>
			<point x="338" y="367" type="curve" smooth="yes"/>
			<point x="452" y="0" type="line"/>
			<point x="471" y="0" type="line"/>
			<point x="437" y="-23"/>
			<point x="396" y="-71"/>
			<point x="396" y="-125" type="curve" smooth="yes"/>
			<point x="396" y="-182"/>
			<point x="439" y="-212"/>
		</contour>
		<contour>
			<point x="119" y="200" type="line"/>
			<point x="422" y="200" type="line"/>
			<point x="422" y="267" type="line"/>
			<point x="119" y="267" type="line"/>
		</contour>
		<contour>
			<point name="aboveUC" x="271" y="678" type="move"/>
		</contour>
	</outline>
</glyph>
<glyph name="aogonek" format="2">
	<unicode hex="0105"/>
	<advance width="504"/>
	<outline>
		<contour>
			<point x="388" y="-215" type="curve" smooth="yes"/>
			<point x="421" y="-215"/>
			<point x="454" y="-201"/>
			<point x="476" y="-184" type="curve"/>
			<point x="454" y="-139" type="line"/>
			<point x="438" y="-150"/>
			<point x="424" y="-156"/>
			<point x="404" y="-156" type="curve" smooth="yes"/>
			<point x="378" y="-156"/>
			<point x="353" y="-141"/>
			<point x="353" y="-106" type="curve" smooth="yes"/>
			<point x="353" y="-69"/>
			<point x="384" y="-22"/>
			<point x="433" y="0" type="curve"/>
			<point x="433" y="299" type="line" smooth="yes"/>
			<point x="433" y="419"/>
			<point x="382" y="498"/>
			<point x="264" y="498" type="curve" smooth="yes"/>
			<point x="186" y="498"/>
			<point x="118" y="465"/>
			<point x="73" y="435" type="curve"/>
			<point x="105" y="379" type="line"/>
			<point x="143" y="404"/>
			<point x="194" y="429"/>
			<point x="250" y="429" type="curve" smooth="yes"/>
			<point x="329" y="429"/>
			<point x="349" y="370"/>
			<point x="350" y="309" type="curve"/>
			<point x="142" y="286"/>
			<point x="52" y="234"/>
			<point x="52" y="126" type="curve" smooth="yes"/>
			<point x="52" y="38"/>
			<point x="113" y="-12"/>
			<point x="194" y="-12" type="curve" smooth="yes"/>
			<point x="255" y="-12"/>
			<point x="308" y="19"/>
			<point x="354" y="58" type="curve"/>
			<point x="357" y="58" type="line"/>
			<point x="365" y="3" type="line"/>
			<point x="327" y="-22"/>
			<point x="288" y="-69"/>
			<point x="288" y="-122" type="curve" smooth="yes"/>
			<point x="288" y="-186"/>
			<point x="332" y="-215"/>
		</contour>
		<contour>
			<point x="217" y="56" type="curve" smooth="yes"/>
			<point x="170" y="56"/>
			<point x="133" y="77"/>
			<point x="133" y="131" type="curve" smooth="yes"/>
			<point x="133" y="194"/>
			<point x="186" y="231"/>
			<point x="350" y="250" type="curve"/>
			<point x="350" y="118" type="line"/>
			<point x="303" y="77"/>
			<point x="264" y="56"/>
		</contour>
	</outline>
	<anchor name="aboveLC" x="267" y="509"/>
</glyph>
<glyph name="dcroat" format="2">
	<unicode hex="0111"/>
	<advance width="555"/>
	<outline>
		<contour>
			<point x="248" y="-12" type="curve" smooth="yes"/>
			<point x="307" y="-12"/>
			<point x="356" y="18"/>
			<point x="394" y="55" type="curve"/>
			<point x="397" y="55" type="line"/>
			<point x="403" y="0" type="line"/>
			<point x="473" y="0" type="line"/>
			<point x="473" y="712" type="line"/>
			<point x="391" y="712" type="line"/>
			<point x="391" y="487" type="line"/>
			<point x="394" y="403" type="line"/>
			<point x="351" y="438"/>
			<point x="314" y="459"/>
			<point x="258" y="459" type="curve" smooth="yes"/>
			<point x="147" y="459"/>
			<point x="47" y="367"/>
			<point x="47" y="223" type="curve" smooth="yes"/>
			<point x="47" y="75"/>
			<point x="126" y="-12"/>
		</contour>
		<contour>
			<point x="266" y="57" type="curve" smooth="yes"/>
			<point x="180" y="57"/>
			<point x="133" y="122"/>
			<point x="133" y="224" type="curve" smooth="yes"/>
			<point x="133" y="321"/>
			<point x="195" y="390"/>
			<point x="272" y="390" type="curve" smooth="yes"/>
			<point x="312" y="390"/>
			<point x="349" y="376"/>
			<point x="391" y="338" type="curve"/>
			<point x="391" y="123" type="line"/>
			<point x="350" y="79"/>
			<point x="311" y="57"/>
		</contour>
		<contour>
			<point x="209" y="557" type="line"/>
			<point x="470" y="557" type="line"/>
			<point x="546" y="562" type="line"/>
			<point x="546" y="622" type="line"/>
			<point x="209" y="622" type="line"/>
		</contour>
	</outline>
</glyph>
<glyph name="Eogonek" format="2">
	<unicode hex="0118"/>
	<advance width="527"/>
	<outline>
		<contour>
			<point x="412" y="-219" type="curve" smooth="yes"/>
			<point x="446" y="-219"/>
			<point x="481" y="-204"/>
			<point x="502" y="-187" type="curve"/>
			<point x="479" y="-139" type="line"/>
			<point x="464" y="-150"/>
			<point x="448" y="-157"/>
			<point x="428" y="-157" type="curve" smooth="yes"/>
			<point x="400" y="-157"/>
			<point x="375" y="-142"/>
			<point x="375" y="-107" type="curve" smooth="yes"/>
			<point x="375" y="-55"/>
			<point x="432" y="0"/>
			<point x="472" y="0" type="curve" smooth="yes"/>
			<point x="478" y="0" type="line"/>
			<point x="478" y="71" type="line"/>
			<point x="174" y="71" type="line"/>
			<point x="174" y="309" type="line"/>
			<point x="422" y="309" type="line"/>
			<point x="422" y="380" type="line"/>
			<point x="174" y="380" type="line"/>
			<point x="174" y="585" type="line"/>
			<point x="468" y="585" type="line"/>
			<point x="468" y="656" type="line"/>
			<point x="90" y="656" type="line"/>
			<point x="90" y="0" type="line"/>
			<point x="386" y="0" type="line"/>
			<point x="345" y="-25"/>
			<point x="306" y="-71"/>
			<point x="306" y="-127" type="curve" smooth="yes"/>
			<point x="306" y="-189"/>
			<point x="354" y="-219"/>
		</contour>
	</outline>
	<anchor name="aboveUC" x="290" y="678"/>
</glyph>
<glyph name="eogonek" format="2">
	<unicode hex="0119"/>
	<advance width="495"/>
	<outline>
		<contour>
			<point x="358" y="-206" type="curve" smooth="yes"/>
			<point x="382" y="-206"/>
			<point x="417" y="-194"/>
			<point x="436" y="-179" type="curve"/>
			<point x="414" y="-138" type="line"/>
			<point x="403" y="-147"/>
			<point x="390" y="-152"/>
			<point x="373" y="-152" type="curve" smooth="yes"/>
			<point x="349" y="-152"/>
			<point x="328" y="-136"/>
			<point x="328" y="-105" type="curve" smooth="yes"/>
			<point x="328" y="-63"/>
			<point x="351" y="-23"/>
			<point x="438" y="39" type="curve"/>
			<point x="410" y="90" type="line"/>
			<point x="376" y="67"/>
			<point x="335" y="53"/>
			<point x="288" y="53" type="curve" smooth="yes"/>
			<point x="196" y="53"/>
			<point x="133" y="121"/>
			<point x="126" y="221" type="curve"/>
			<point x="454" y="221" type="line"/>
			<point x="457" y="237"/>
			<point x="458" y="253"/>
			<point x="458" y="270" type="curve" smooth="yes"/>
			<point x="458" y="409"/>
			<point x="388" y="498"/>
			<point x="264" y="498" type="curve" smooth="yes"/>
			<point x="153" y="498"/>
			<point x="46" y="401"/>
			<point x="46" y="242" type="curve" smooth="yes"/>
			<point x="46" y="83"/>
			<point x="149" y="-12"/>
			<point x="279" y="-12" type="curve" smooth="yes"/>
			<point x="295" y="-12"/>
			<point x="311" y="-11"/>
			<point x="329" y="-5" type="curve"/>
			<point x="302" y="-28"/>
			<point x="268" y="-71"/>
			<point x="268" y="-121" type="curve" smooth="yes"/>
			<point x="268" y="-177"/>
			<point x="307" y="-206"/>
		</contour>
		<contour>
			<point x="126" y="284" type="line"/>
			<point x="136" y="377"/>
			<point x="197" y="433"/>
			<point x="266" y="433" type="curve" smooth="yes"/>
			<point x="342" y="433"/>
			<point x="386" y="380"/>
			<point x="386" y="284" type="curve"/>
		</contour>
	</outline>
</glyph>
<glyph name="Hbar" format="1">
	<unicode hex="0126"/>
	<advance width="687"/>
	<outline>
		<contour>
			<point x="32" y="486" type="line"/>
			<point x="654" y="486" type="line"/>
			<point x="654" y="545" type="line"/>
			<point x="113" y="545" type="line"/>
			<point x="32" y="541" type="line"/>
		</contour>
		<component base="H" xOffset="20"/>
	</outline>
</glyph>
<glyph name="hbar" format="2">
	<unicode hex="0127"/>
	<advance width="544"/>
	<outline>
		<contour>
			<point x="82" y="0" type="line"/>
			<point x="164" y="0" type="line"/>
			<point x="164" y="313" type="line"/>
			<point x="213" y="363"/>
			<point x="247" y="388"/>
			<point x="297" y="388" type="curve" smooth="yes"/>
			<point x="361" y="388"/>
			<point x="389" y="349"/>
			<point x="389" y="259" type="curve" smooth="yes"/>
			<point x="389" y="0" type="line"/>
			<point x="471" y="0" type="line"/>
			<point x="471" y="269" type="line" smooth="yes"/>
			<point x="471" y="393"/>
			<point x="425" y="459"/>
			<point x="323" y="459" type="curve" smooth="yes"/>
			<point x="256" y="459"/>
			<point x="207" y="423"/>
			<point x="161" y="379" type="curve"/>
			<point x="164" y="479" type="line"/>
			<point x="164" y="712" type="line"/>
			<point x="82" y="712" type="line"/>
		</contour>
		<contour>
			<point x="8" y="560" type="line"/>
			<point x="346" y="560" type="line"/>
			<point x="346" y="619" type="line"/>
			<point x="86" y="619" type="line"/>
			<point x="8" y="614" type="line"/>
		</contour>
	</outline>
</glyph>
<glyph name="Iogonek" format="1">
	<unicode hex="012E"/>
	<advance width="263"/>
	<outline>
		<contour>
			<point x="139" y="-212" type="curve" smooth="yes"/>
			<point x="165" y="-212"/>
			<point x="199" y="-199"/>
			<point x="219" y="-184" type="curve"/>
			<point x="196" y="-139" type="line"/>
			<point x="184" y="-148"/>
			<point x="171" y="-153"/>
			<point x="155" y="-153" type="curve" smooth="yes"/>
			<point x="132" y="-153"/>
			<point x="108" y="-138"/>
			<point x="108" y="-107" type="curve" smooth="yes"/>
			<point x="108" y="-66"/>
			<point x="132" y="-32"/>
			<point x="173" y="0" type="curve"/>
			<point x="173" y="656" type="line"/>
			<point x="90" y="656" type="line"/>
			<point x="90" y="0" type="line"/>
			<point x="111" y="0" type="line"/>
			<point x="77" y="-30"/>
			<point x="43" y="-70"/>
			<point x="43" y="-125" type="curve" smooth="yes"/>
			<point x="43" y="-182"/>
			<point x="86" y="-212"/>
		</contour>
		<contour>
			<point name="aboveUC" x="131" y="678" type="move"/>
		</contour>
	</outline>
</glyph>
<glyph name="iogonek" format="2">
	<unicode hex="012F"/>
	<advance width="247"/>
	<outline>
		<contour>
			<point x="129" y="-206" type="curve" smooth="yes"/>
			<point x="154" y="-206"/>
			<point x="188" y="-194"/>
			<point x="208" y="-179" type="curve"/>
			<point x="186" y="-138" type="line"/>
			<point x="174" y="-146"/>
			<point x="162" y="-151"/>
			<point x="145" y="-151" type="curve" smooth="yes"/>
			<point x="122" y="-151"/>
			<point x="100" y="-135"/>
			<point x="100" y="-104" type="curve" smooth="yes"/>
			<point x="100" y="-66"/>
			<point x="124" y="-29"/>
			<point x="165" y="0" type="curve"/>
			<point x="165" y="486" type="line"/>
			<point x="82" y="486" type="line"/>
			<point x="82" y="0" type="line"/>
			<point x="102" y="0" type="line"/>
			<point x="74" y="-28"/>
			<point x="38" y="-67"/>
			<point x="38" y="-121" type="curve" smooth="yes"/>
			<point x="38" y="-177"/>
			<point x="78" y="-206"/>
		</contour>
		<contour>
			<point x="123" y="586" type="curve" smooth="yes"/>
			<point x="155" y="586"/>
			<point x="180" y="608"/>
			<point x="180" y="639" type="curve" smooth="yes"/>
			<point x="180" y="672"/>
			<point x="155" y="693"/>
			<point x="123" y="693" type="curve" smooth="yes"/>
			<point x="91" y="693"/>
			<point x="66" y="672"/>
			<point x="66" y="639" type="curve" smooth="yes"/>
			<point x="66" y="608"/>
			<point x="91" y="586"/>
		</contour>
	</outline>
</glyph>
<glyph name="dotlessi" format="2">
	<unicode hex="0131"/>
	<advance width="246"/>
	<outline>
		<contour>
			<point x="82" y="0" type="line"/>
			<point x="164" y="0" type="line"/>
			<point x="164" y="486" type="line"/>
			<point x="82" y="486" type="line"/>
		</contour>
	</outline>
	<anchor name="aboveLC" x="124" y="509"/>
	<anchor name="belowLC" x="123" y="-22"/>
	<anchor name="ogonekLC" x="115" y="0"/>
</glyph>
<glyph name="IJ" format="2">
	<unicode hex="0132"/>
	<advance width="527"/>
	<outline>
		<contour>
			<point x="90" y="0" type="line"/>
			<point x="174" y="0" type="line"/>
			<point x="174" y="656" type="line"/>
			<point x="90" y="656" type="line"/>
		</contour>
		<contour>
			<point x="302" y="-165" type="curve" smooth="yes"/>
			<point x="400" y="-165"/>
			<point x="437" y="-102"/>
			<point x="437" y="-3" type="curve" smooth="yes"/>
			<point x="437" y="656" type="line"/>
			<point x="353" y="656" type="line"/>
			<point x="353" y="0" type="line" smooth="yes"/>
			<point x="353" y="-59"/>
			<point x="341" y="-95"/>
			<point x="293" y="-95" type="curve" smooth="yes"/>
			<point x="276" y="-95"/>
			<point x="260" y="-91"/>
			<point x="247" y="-87" type="curve"/>
			<point x="231" y="-153" type="line"/>
			<point x="248" y="-159"/>
			<point x="272" y="-165"/>
		</contour>
	</outline>
</glyph>
<glyph name="Lslash" format="2">
	<unicode hex="0141"/>
	<advance width="500"/>
	<outline>
		<contour>
			<point x="25" y="208" type="line"/>
			<point x="115" y="249" type="line"/>
			<point x="177" y="277" type="line"/>
			<point x="406" y="376" type="line"/>
			<point x="375" y="439" type="line"/>
			<point x="172" y="349" type="line"/>
			<point x="110" y="321" type="line"/>
			<point x="-7" y="271" type="line"/>
		</contour>
		<component base="L" xOffset="17"/>
	</outline>
	<anchor name="aboveUC" x="152" y="678"/>
	<anchor name="belowLC" x="301" y="-22"/>
</glyph>
<glyph name="lslash" format="2">
	<unicode hex="0142"/>
	<advance width="279"/>
	<outline>
		<contour>
			<point x="21" y="285" type="line"/>
			<point x="103" y="338" type="line"/>
			<point x="165" y="368" type="line"/>
			<point x="281" y="437" type="line"/>
			<point x="251" y="490" type="line"/>
			<point x="165" y="436" type="line"/>
			<point x="103" y="407" type="line"/>
			<point x="-9" y="339" type="line"/>
		</contour>
		<component base="l" xOffset="12"/>
	</outline>
	<anchor name="aboveUC" x="136" y="726"/>
	<anchor name="belowLC" x="156" y="-22"/>
</glyph>
<glyph name="Eng" format="2">
	<unicode hex="014A"/>
	<advance width="635"/>
	<outline>
		<contour>
			<point x="406" y="-12" type="curve" smooth="yes"/>
			<point x="514" y="-12"/>
			<point x="584" y="83"/>
			<point x="584" y="335" type="curve" smooth="yes"/>
			<point x="584" y="580"/>
			<point x="487" y="668"/>
			<point x="357" y="668" type="curve" smooth="yes"/>
			<point x="287" y="668"/>
			<point x="219" y="628"/>
			<point x="172" y="575" type="curve"/>
			<point x="172" y="656" type="line"/>
			<point x="90" y="656" type="line"/>
			<point x="90" y="0" type="line"/>
			<point x="174" y="0" type="line"/>
			<point x="174" y="497" type="line"/>
			<point x="213" y="553"/>
			<point x="283" y="594"/>
			<point x="335" y="594" type="curve" smooth="yes"/>
			<point x="432" y="594"/>
			<point x="497" y="532"/>
			<point x="497" y="335" type="curve" smooth="yes"/>
			<point x="497" y="127"/>
			<point x="452" y="68"/>
			<point x="398" y="68" type="curve" smooth="yes"/>
			<point x="377" y="68"/>
			<point x="362" y="71"/>
			<point x="348" y="78" type="curve"/>
			<point x="328" y="3" type="line"/>
			<point x="346" y="-7"/>
			<point x="381" y="-12"/>
		</contour>
	</outline>
	<anchor name="aboveUC" x="345" y="678"/>
	<anchor name="belowLC" x="317" y="-22"/>
</glyph>
<glyph name="eng" format="2">
	<unicode hex="014B"/>
	<advance width="547"/>
	<outline>
		<contour>
			<point x="338" y="-217" type="curve" smooth="yes"/>
			<point x="435" y="-217"/>
			<point x="472" y="-154"/>
			<point x="472" y="-54" type="curve" smooth="yes"/>
			<point x="472" y="308" type="line" smooth="yes"/>
			<point x="472" y="432"/>
			<point x="426" y="498"/>
			<point x="323" y="498" type="curve" smooth="yes"/>
			<point x="256" y="498"/>
			<point x="206" y="462"/>
			<point x="160" y="416" type="curve"/>
			<point x="157" y="416" type="line"/>
			<point x="150" y="486" type="line"/>
			<point x="82" y="486" type="line"/>
			<point x="82" y="0" type="line"/>
			<point x="165" y="0" type="line"/>
			<point x="165" y="352" type="line"/>
			<point x="213" y="401"/>
			<point x="248" y="426"/>
			<point x="297" y="426" type="curve" smooth="yes"/>
			<point x="361" y="426"/>
			<point x="389" y="388"/>
			<point x="389" y="297" type="curve" smooth="yes"/>
			<point x="389" y="-54" type="line" smooth="yes"/>
			<point x="389" y="-113"/>
			<point x="377" y="-149"/>
			<point x="329" y="-149" type="curve" smooth="yes"/>
			<point x="313" y="-149"/>
			<point x="295" y="-145"/>
			<point x="283" y="-141" type="curve"/>
			<point x="266" y="-203" type="line"/>
			<point x="283" y="-211"/>
			<point x="309" y="-217"/>
		</contour>
	</outline>
	<anchor name="aboveLC" x="295" y="509"/>
	<anchor name="belowLC" x="277" y="-211"/>
</glyph>
<glyph name="OE" format="2">
	<unicode hex="0152"/>
	<advance width="847"/>
	<outline>
		<contour>
			<point x="369" y="0" type="curve" smooth="yes"/>
			<point x="798" y="0" type="line"/>
			<point x="798" y="71" type="line"/>
			<point x="511" y="71" type="line"/>
			<point x="511" y="309" type="line"/>
			<point x="742" y="309" type="line"/>
			<point x="742" y="380" type="line"/>
			<point x="511" y="380" type="line"/>
			<point x="511" y="585" type="line"/>
			<point x="788" y="585" type="line"/>
			<point x="788" y="656" type="line"/>
			<point x="373" y="656" type="line" smooth="yes"/>
			<point x="170" y="656"/>
			<point x="52" y="539"/>
			<point x="52" y="331" type="curve" smooth="yes"/>
			<point x="52" y="122"/>
			<point x="170" y="0"/>
		</contour>
		<contour>
			<point x="379" y="69" type="line" smooth="yes"/>
			<point x="221" y="69"/>
			<point x="139" y="164"/>
			<point x="139" y="331" type="curve" smooth="yes"/>
			<point x="139" y="497"/>
			<point x="221" y="587"/>
			<point x="379" y="587" type="curve" smooth="yes"/>
			<point x="427" y="587" type="line"/>
			<point x="427" y="69" type="line"/>
		</contour>
	</outline>
	<anchor name="aboveUC" x="532" y="678"/>
</glyph>
<glyph name="oe" format="2">
	<unicode hex="0153"/>
	<advance width="839"/>
	<outline>
		<contour>
			<point x="264" y="-12" type="curve" smooth="yes"/>
			<point x="345" y="-12"/>
			<point x="405" y="29"/>
			<point x="443" y="109" type="curve"/>
			<point x="480" y="33"/>
			<point x="548" y="-12"/>
			<point x="628" y="-12" type="curve" smooth="yes"/>
			<point x="689" y="-12"/>
			<point x="741" y="9"/>
			<point x="782" y="38" type="curve"/>
			<point x="754" y="90" type="line"/>
			<point x="719" y="67"/>
			<point x="678" y="54"/>
			<point x="632" y="54" type="curve" smooth="yes"/>
			<point x="549" y="54"/>
			<point x="483" y="121"/>
			<point x="479" y="223" type="curve"/>
			<point x="798" y="223" type="line"/>
			<point x="800" y="235"/>
			<point x="801" y="251"/>
			<point x="801" y="269" type="curve" smooth="yes"/>
			<point x="801" y="408"/>
			<point x="731" y="498"/>
			<point x="612" y="498" type="curve"/>
			<point x="541" y="498"/>
			<point x="479" y="452"/>
			<point x="442" y="376" type="curve"/>
			<point x="408" y="455"/>
			<point x="341" y="498"/>
			<point x="266" y="498" type="curve" smooth="yes"/>
			<point x="148" y="498"/>
			<point x="46" y="405"/>
			<point x="46" y="242" type="curve" smooth="yes"/>
			<point x="46" y="81"/>
			<point x="147" y="-12"/>
		</contour>
		<contour>
			<point x="266" y="56" type="curve" smooth="yes"/>
			<point x="186" y="56"/>
			<point x="130" y="131"/>
			<point x="130" y="242" type="curve" smooth="yes"/>
			<point x="130" y="354"/>
			<point x="186" y="430"/>
			<point x="266" y="430" type="curve" smooth="yes"/>
			<point x="346" y="430"/>
			<point x="402" y="354"/>
			<point x="402" y="242" type="curve" smooth="yes"/>
			<point x="402" y="131"/>
			<point x="346" y="56"/>
		</contour>
		<contour>
			<point x="479" y="281" type="line"/>
			<point x="488" y="373"/>
			<point x="544" y="433"/>
			<point x="611" y="433" type="curve" smooth="yes"/>
			<point x="685" y="433"/>
			<point x="729" y="379"/>
			<point x="729" y="281" type="curve"/>
		</contour>
	</outline>
	<anchor name="aboveLC" x="443" y="509"/>
	<anchor name="belowLC" x="443" y="-22"/>
</glyph>
<glyph name="Tbar" format="1">
	<unicode hex="0166"/>
	<advance width="536"/>
	<outline>
		<contour>
			<point x="103" y="305" type="line"/>
			<point x="433" y="305" type="line"/>
			<point x="433" y="364" type="line"/>
			<point x="191" y="364" type="line"/>
			<point x="103" y="361" type="line"/>
		</contour>
		<component base="T"/>
		<contour>
			<point name="aboveUC" x="267" y="678" type="move"/>
		</contour>
		<contour>
			<point name="belowLC" x="267" y="-22" type="move"/>
		</contour>
	</outline>
</glyph>
<glyph name="tbar" format="2">
	<unicode hex="0167"/>
	<advance width="338"/>
	<outline>
		<contour>
			<point x="24" y="221" type="line"/>
			<point x="310" y="221" type="line"/>
			<point x="310" y="280" type="line"/>
			<point x="100" y="280" type="line"/>
			<point x="24" y="275" type="line"/>
		</contour>
		<component base="t"/>
	</outline>
	<anchor name="aboveLC" x="148" y="643"/>
	<anchor name="belowLC" x="215" y="-22"/>
</glyph>
<glyph name="Uogonek" format="2">
	<unicode hex="0172"/>
	<advance width="646"/>
	<outline>
		<contour>
			<point x="336" y="-219" type="curve" smooth="yes"/>
			<point x="370" y="-219"/>
			<point x="405" y="-204"/>
			<point x="426" y="-187" type="curve"/>
			<point x="403" y="-139" type="line"/>
			<point x="388" y="-150"/>
			<point x="372" y="-157"/>
			<point x="353" y="-157" type="curve" smooth="yes"/>
			<point x="324" y="-157"/>
			<point x="299" y="-142"/>
			<point x="299" y="-107" type="curve" smooth="yes"/>
			<point x="299" y="-67"/>
			<point x="332" y="-20"/>
			<point x="378" y="-9" type="curve" smooth="yes"/>
			<point x="495" y="19"/>
			<point x="559" y="100"/>
			<point x="559" y="271" type="curve" smooth="yes"/>
			<point x="559" y="656" type="line"/>
			<point x="478" y="656" type="line"/>
			<point x="478" y="269" type="line" smooth="yes"/>
			<point x="478" y="112"/>
			<point x="410" y="62"/>
			<point x="323" y="62" type="curve" smooth="yes"/>
			<point x="237" y="62"/>
			<point x="171" y="112"/>
			<point x="171" y="269" type="curve" smooth="yes"/>
			<point x="171" y="656" type="line"/>
			<point x="87" y="656" type="line"/>
			<point x="87" y="271" type="line" smooth="yes"/>
			<point x="87" y="61"/>
			<point x="189" y="-12"/>
			<point x="323" y="-12" type="curve"/>
			<point x="308" y="3" type="line"/>
			<point x="270" y="-25"/>
			<point x="231" y="-73"/>
			<point x="231" y="-127" type="curve" smooth="yes"/>
			<point x="231" y="-189"/>
			<point x="278" y="-219"/>
		</contour>
	</outline>
	<anchor name="aboveUC" x="322" y="678"/>
</glyph>
<glyph name="uogonek" format="2">
	<unicode hex="0173"/>
	<advance width="544"/>
	<outline>
		<contour>
			<point x="418" y="-215" type="curve" smooth="yes"/>
			<point x="451" y="-215"/>
			<point x="484" y="-201"/>
			<point x="505" y="-184" type="curve"/>
			<point x="483" y="-139" type="line"/>
			<point x="468" y="-150"/>
			<point x="453" y="-156"/>
			<point x="432" y="-156" type="curve" smooth="yes"/>
			<point x="407" y="-156"/>
			<point x="382" y="-141"/>
			<point x="382" y="-106" type="curve" smooth="yes"/>
			<point x="382" y="-68"/>
			<point x="412" y="-23"/>
			<point x="462" y="0" type="curve"/>
			<point x="462" y="486" type="line"/>
			<point x="379" y="486" type="line"/>
			<point x="379" y="142" type="line"/>
			<point x="334" y="85"/>
			<point x="299" y="60"/>
			<point x="250" y="60" type="curve" smooth="yes"/>
			<point x="185" y="60"/>
			<point x="158" y="99"/>
			<point x="158" y="189" type="curve" smooth="yes"/>
			<point x="158" y="486" type="line"/>
			<point x="75" y="486" type="line"/>
			<point x="75" y="178" type="line" smooth="yes"/>
			<point x="75" y="54"/>
			<point x="121" y="-12"/>
			<point x="224" y="-12" type="curve" smooth="yes"/>
			<point x="291" y="-12"/>
			<point x="339" y="23"/>
			<point x="384" y="76" type="curve"/>
			<point x="387" y="76" type="line"/>
			<point x="395" y="4" type="line"/>
			<point x="357" y="-22"/>
			<point x="317" y="-69"/>
			<point x="317" y="-122" type="curve" smooth="yes"/>
			<point x="317" y="-186"/>
			<point x="361" y="-215"/>
		</contour>
	</outline>
	<anchor name="aboveLC" x="267" y="502"/>
</glyph>
<glyph name="longs" format="2">
	<unicode hex="017F"/>
	<advance width="271"/>
	<outline>
		<contour>
			<point x="96" y="0" type="line"/>
			<point x="179" y="0" type="line"/>
			<point x="179" y="562" type="line" smooth="yes"/>
			<point x="179" y="625"/>
			<point x="201" y="657"/>
			<point x="247" y="657" type="curve" smooth="yes"/>
			<point x="264" y="657"/>
			<point x="283" y="653"/>
			<point x="302" y="645" type="curve"/>
			<point x="319" y="708" type="line"/>
			<point x="299" y="717"/>
			<point x="268" y="724"/>
			<point x="238" y="724" type="curve" smooth="yes"/>
			<point x="141" y="724"/>
			<point x="96" y="661"/>
			<point x="96" y="562" type="curve" smooth="yes"/>
		</contour>
		<contour>
			<point x="30" y="419" type="line"/>
			<point x="163" y="419" type="line"/>
			<point x="163" y="486" type="line"/>
			<point x="99" y="486" type="line"/>
			<point x="30" y="481" type="line"/>
		</contour>
	</outline>
	<anchor name="aboveUC" x="219" y="726"/>
	<anchor name="belowLC" x="138" y="-22"/>
</glyph>
<glyph name="bstroke" format="2">
	<unicode hex="0180"/>
	<advance width="567"/>
	<outline>
		<contour>
			<point x="310" y="-12" type="curve" smooth="yes"/>
			<point x="421" y="-12"/>
			<point x="521" y="79"/>
			<point x="521" y="231" type="curve" smooth="yes"/>
			<point x="521" y="369"/>
			<point x="453" y="459"/>
			<point x="326" y="459" type="curve" smooth="yes"/>
			<point x="272" y="459"/>
			<point x="220" y="431"/>
			<point x="173" y="392" type="curve"/>
			<point x="177" y="480" type="line"/>
			<point x="177" y="712" type="line"/>
			<point x="95" y="712" type="line"/>
			<point x="95" y="0" type="line"/>
			<point x="160" y="0" type="line"/>
			<point x="168" y="50" type="line"/>
			<point x="171" y="50" type="line"/>
			<point x="214" y="11"/>
			<point x="264" y="-12"/>
		</contour>
		<contour>
			<point x="295" y="57" type="curve" smooth="yes"/>
			<point x="263" y="57"/>
			<point x="219" y="71"/>
			<point x="177" y="108" type="curve"/>
			<point x="177" y="324" type="line"/>
			<point x="223" y="367"/>
			<point x="266" y="390"/>
			<point x="307" y="390" type="curve" smooth="yes"/>
			<point x="398" y="390"/>
			<point x="435" y="324"/>
			<point x="435" y="231" type="curve" smooth="yes"/>
			<point x="435" y="126"/>
			<point x="375" y="57"/>
		</contour>
		<contour>
			<point x="11" y="557" type="line"/>
			<point x="359" y="557" type="line"/>
			<point x="359" y="622" type="line"/>
			<point x="98" y="622" type="line"/>
			<point x="11" y="617" type="line"/>
		</contour>
	</outline>
</glyph>
<glyph name="Bhook" format="2">
	<unicode hex="0181"/>
	<advance width="744"/>
	<outline>
		<contour>
			<point x="270" y="0" type="line"/>
			<point x="457" y="0" type="line" smooth="yes"/>
			<point x="603" y="0"/>
			<point x="704" y="64"/>
			<point x="704" y="195" type="curve" smooth="yes"/>
			<point x="704" y="283"/>
			<point x="652" y="334"/>
			<point x="570" y="349" type="curve"/>
			<point x="570" y="353" type="line"/>
			<point x="632" y="373"/>
			<point x="666" y="430"/>
			<point x="666" y="499" type="curve" smooth="yes"/>
			<point x="666" y="617"/>
			<point x="574" y="668"/>
			<point x="388" y="668" type="curve" smooth="yes"/>
			<point x="146" y="668"/>
			<point x="43" y="568"/>
			<point x="43" y="429" type="curve" smooth="yes"/>
			<point x="43" y="336"/>
			<point x="88" y="281"/>
			<point x="159" y="248" type="curve"/>
			<point x="196" y="306" type="line"/>
			<point x="144" y="334"/>
			<point x="118" y="370"/>
			<point x="118" y="431" type="curve" smooth="yes"/>
			<point x="118" y="525"/>
			<point x="190" y="597"/>
			<point x="354" y="597" type="curve" smooth="yes"/>
			<point x="414" y="597" type="line" smooth="yes"/>
			<point x="527" y="597"/>
			<point x="585" y="566"/>
			<point x="585" y="489" type="curve" smooth="yes"/>
			<point x="585" y="419"/>
			<point x="539" y="377"/>
			<point x="428" y="377" type="curve" smooth="yes"/>
			<point x="353" y="377" type="line"/>
			<point x="353" y="627" type="line"/>
			<point x="270" y="627" type="line"/>
		</contour>
		<contour>
			<point x="353" y="66" type="line"/>
			<point x="353" y="313" type="line"/>
			<point x="445" y="313" type="line" smooth="yes"/>
			<point x="559" y="313"/>
			<point x="623" y="276"/>
			<point x="623" y="195" type="curve" smooth="yes"/>
			<point x="623" y="107"/>
			<point x="557" y="66"/>
			<point x="445" y="66" type="curve" smooth="yes"/>
		</contour>
	</outline>
	<anchor name="aboveUC" x="449" y="678"/>
	<anchor name="belowLC" x="466" y="-22"/>
</glyph>
<glyph name="Oopen" format="2">
	<unicode hex="0186"/>
	<advance width="571"/>
	<outline>
		<contour>
			<point x="243" y="-12" type="curve" smooth="yes"/>
			<point x="403" y="-12"/>
			<point x="519" y="105"/>
			<point x="519" y="328" type="curve" smooth="yes"/>
			<point x="519" y="550"/>
			<point x="402" y="668"/>
			<point x="246" y="668" type="curve" smooth="yes"/>
			<point x="162" y="668"/>
			<point x="94" y="634"/>
			<point x="50" y="587" type="curve"/>
			<point x="93" y="535" type="line"/>
			<point x="131" y="574"/>
			<point x="183" y="595"/>
			<point x="242" y="595" type="curve" smooth="yes"/>
			<point x="357" y="595"/>
			<point x="433" y="502"/>
			<point x="433" y="334" type="curve" smooth="yes"/>
			<point x="433" y="153"/>
			<point x="360" y="61"/>
			<point x="241" y="61" type="curve" smooth="yes"/>
			<point x="173" y="61"/>
			<point x="121" y="84"/>
			<point x="78" y="132" type="curve"/>
			<point x="32" y="83" type="line"/>
			<point x="87" y="21"/>
			<point x="154" y="-12"/>
		</contour>
	</outline>
	<anchor name="aboveUC" x="264" y="678"/>
	<anchor name="baseLC" x="254" y="0"/>
	<anchor name="belowLC" x="254" y="-22"/>
	<anchor name="ogonekUC" x="260" y="0"/>
</glyph>
<glyph name="Dhook" format="2">
	<unicode hex="018A"/>
	<advance width="779"/>
	<outline>
		<contour>
			<point x="270" y="0" type="line"/>
			<point x="414" y="0" type="line" smooth="yes"/>
			<point x="611" y="0"/>
			<point x="721" y="123"/>
			<point x="721" y="338" type="curve" smooth="yes"/>
			<point x="721" y="549"/>
			<point x="614" y="668"/>
			<point x="384" y="668" type="curve" smooth="yes"/>
			<point x="143" y="668"/>
			<point x="43" y="568"/>
			<point x="43" y="429" type="curve" smooth="yes"/>
			<point x="43" y="336"/>
			<point x="88" y="281"/>
			<point x="159" y="248" type="curve"/>
			<point x="196" y="306" type="line"/>
			<point x="144" y="334"/>
			<point x="118" y="370"/>
			<point x="118" y="431" type="curve" smooth="yes"/>
			<point x="118" y="523"/>
			<point x="189" y="595"/>
			<point x="354" y="595" type="curve" smooth="yes"/>
			<point x="386" y="595" type="line" smooth="yes"/>
			<point x="560" y="595"/>
			<point x="635" y="502"/>
			<point x="635" y="338" type="curve" smooth="yes"/>
			<point x="635" y="167"/>
			<point x="557" y="68"/>
			<point x="412" y="68" type="curve" smooth="yes"/>
			<point x="353" y="68" type="line"/>
			<point x="353" y="627" type="line"/>
			<point x="270" y="627" type="line"/>
		</contour>
	</outline>
	<anchor name="aboveUC" x="449" y="678"/>
	<anchor name="belowLC" x="463" y="-22"/>
</glyph>
<glyph name="Eturned" format="2">
	<unicode hex="018E"/>
	<advance width="527"/>
	<outline>
		<contour>
			<point x="49" y="0" type="line"/>
			<point x="438" y="0" type="line"/>
			<point x="438" y="656" type="line"/>
			<point x="59" y="656" type="line"/>
			<point x="59" y="585" type="line"/>
			<point x="353" y="585" type="line"/>
			<point x="353" y="380" type="line"/>
			<point x="105" y="380" type="line"/>
			<point x="105" y="309" type="line"/>
			<point x="353" y="309" type="line"/>
			<point x="353" y="71" type="line"/>
			<point x="49" y="71" type="line"/>
		</contour>
	</outline>
	<anchor name="aboveUC" x="255" y="678"/>
	<anchor name="belowLC" x="245" y="-22"/>
	<anchor name="ogonekUC" x="245" y="0"/>
</glyph>
<glyph name="Schwa" format="1">
	<unicode hex="018F"/>
	<advance width="658"/>
	<outline>
		<contour>
			<point x="328" y="-12" type="curve" smooth="yes"/>
			<point x="497" y="-12"/>
			<point x="606" y="112"/>
			<point x="606" y="330" type="curve" smooth="yes"/>
			<point x="606" y="548"/>
			<point x="502" y="668"/>
			<point x="331" y="668" type="curve" smooth="yes"/>
			<point x="242" y="668"/>
			<point x="171" y="636"/>
			<point x="124" y="591" type="curve"/>
			<point x="165" y="534" type="line"/>
			<point x="204" y="572"/>
			<point x="259" y="599"/>
			<point x="325" y="599" type="curve" smooth="yes"/>
			<point x="455" y="599"/>
			<point x="524" y="504"/>
			<point x="524" y="330" type="curve" smooth="yes"/>
			<point x="524" y="153"/>
			<point x="449" y="57"/>
			<point x="327" y="57" type="curve" smooth="yes"/>
			<point x="221" y="57"/>
			<point x="149" y="141"/>
			<point x="143" y="286" type="curve"/>
			<point x="542" y="286" type="line"/>
			<point x="542" y="350" type="line"/>
			<point x="60" y="350" type="line"/>
			<point x="59" y="341"/>
			<point x="58" y="332"/>
			<point x="58" y="325" type="curve" smooth="yes"/>
			<point x="58" y="119"/>
			<point x="158" y="-12"/>
		</contour>
		<contour>
			<point name="aboveUC" x="342" y="678" type="move"/>
		</contour>
		<contour>
			<point name="belowLC" x="345" y="-22" type="move"/>
		</contour>
	</outline>
</glyph>
<glyph name="florin" format="2">
	<unicode hex="0192"/>
	<advance width="292"/>
	<outline>
		<contour>
			<point x="45" y="-217" type="curve" smooth="yes"/>
			<point x="142" y="-217"/>
			<point x="179" y="-154"/>
			<point x="179" y="-54" type="curve" smooth="yes"/>
			<point x="179" y="562" type="line" smooth="yes"/>
			<point x="179" y="624"/>
			<point x="201" y="657"/>
			<point x="247" y="657" type="curve" smooth="yes"/>
			<point x="264" y="657"/>
			<point x="282" y="653"/>
			<point x="301" y="647" type="curve"/>
			<point x="319" y="708" type="line"/>
			<point x="299" y="717"/>
			<point x="268" y="724"/>
			<point x="238" y="724" type="curve" smooth="yes"/>
			<point x="141" y="724"/>
			<point x="96" y="661"/>
			<point x="96" y="562" type="curve" smooth="yes"/>
			<point x="96" y="-54" type="line" smooth="yes"/>
			<point x="96" y="-113"/>
			<point x="84" y="-149"/>
			<point x="35" y="-149" type="curve" smooth="yes"/>
			<point x="20" y="-149"/>
			<point x="2" y="-145"/>
			<point x="-11" y="-141" type="curve"/>
			<point x="-27" y="-203" type="line"/>
			<point x="-10" y="-211"/>
			<point x="16" y="-217"/>
		</contour>
		<contour>
			<point x="30" y="419" type="line"/>
			<point x="281" y="419" type="line"/>
			<point x="281" y="486" type="line"/>
			<point x="99" y="486" type="line"/>
			<point x="30" y="481" type="line"/>
		</contour>
	</outline>
	<anchor name="aboveUC" x="219" y="726"/>
	<anchor name="belowLC" x="76" y="-211"/>
</glyph>
<glyph name="Ghook" format="2">
	<unicode hex="0193"/>
	<advance width="617"/>
	<outline>
		<contour>
			<point x="348" y="-12" type="curve" smooth="yes"/>
			<point x="436" y="-12"/>
			<point x="508" y="20"/>
			<point x="550" y="64" type="curve"/>
			<point x="550" y="340" type="line"/>
			<point x="335" y="340" type="line"/>
			<point x="335" y="271" type="line"/>
			<point x="474" y="271" type="line"/>
			<point x="474" y="100" type="line"/>
			<point x="448" y="76"/>
			<point x="403" y="61"/>
			<point x="356" y="61" type="curve" smooth="yes"/>
			<point x="216" y="61"/>
			<point x="138" y="165"/>
			<point x="138" y="330" type="curve" smooth="yes"/>
			<point x="138" y="493"/>
			<point x="223" y="595"/>
			<point x="355" y="595" type="curve" smooth="yes"/>
			<point x="421" y="595"/>
			<point x="463" y="574"/>
			<point x="496" y="549" type="curve"/>
			<point x="542" y="604" type="line"/>
			<point x="517" y="638"/>
			<point x="500" y="653"/>
			<point x="500" y="684" type="curve" smooth="yes"/>
			<point x="500" y="714"/>
			<point x="519" y="737"/>
			<point x="551" y="737" type="curve" smooth="yes"/>
			<point x="566" y="737"/>
			<point x="576" y="734"/>
			<point x="587" y="728" type="curve"/>
			<point x="604" y="786" type="line"/>
			<point x="587" y="796"/>
			<point x="568" y="802"/>
			<point x="538" y="802" type="curve" smooth="yes"/>
			<point x="476" y="802"/>
			<point x="431" y="762"/>
			<point x="431" y="707" type="curve" smooth="yes"/>
			<point x="431" y="685"/>
			<point x="436" y="663"/>
			<point x="466" y="622" type="curve"/>
			<point x="476" y="638" type="line"/>
			<point x="433" y="660"/>
			<point x="395" y="668"/>
			<point x="353" y="668" type="curve" smooth="yes"/>
			<point x="179" y="668"/>
			<point x="52" y="539"/>
			<point x="52" y="328" type="curve" smooth="yes"/>
			<point x="52" y="114"/>
			<point x="175" y="-12"/>
		</contour>
	</outline>
	<anchor name="aboveUC" x="285" y="678"/>
	<anchor name="belowLC" x="351" y="-22"/>
</glyph>
<glyph name="Gammalatin" format="2">
	<unicode hex="0194"/>
	<advance width="515"/>
	<outline>
		<contour>
			<point x="256" y="-224" type="curve" smooth="yes"/>
			<point x="336" y="-224"/>
			<point x="375" y="-178"/>
			<point x="375" y="-111" type="curve" smooth="yes"/>
			<point x="375" y="-61"/>
			<point x="348" y="-10"/>
			<point x="301" y="77" type="curve"/>
			<point x="307" y="28" type="line"/>
			<point x="515" y="656" type="line"/>
			<point x="430" y="656" type="line"/>
			<point x="321" y="313" type="line" smooth="yes"/>
			<point x="297" y="235"/>
			<point x="282" y="176"/>
			<point x="258" y="95" type="curve"/>
			<point x="254" y="95" type="line"/>
			<point x="229" y="176"/>
			<point x="214" y="235"/>
			<point x="190" y="313" type="curve" smooth="yes"/>
			<point x="89" y="656" type="line"/>
			<point x="0" y="656" type="line"/>
			<point x="202" y="28" type="line"/>
			<point x="209" y="77" type="line"/>
			<point x="163" y="-9"/>
			<point x="136" y="-61"/>
			<point x="136" y="-111" type="curve" smooth="yes"/>
			<point x="136" y="-178"/>
			<point x="175" y="-224"/>
		</contour>
		<contour>
			<point x="256" y="-167" type="curve" smooth="yes"/>
			<point x="225" y="-167"/>
			<point x="210" y="-144"/>
			<point x="210" y="-114" type="curve" smooth="yes"/>
			<point x="210" y="-78"/>
			<point x="227" y="-38"/>
			<point x="253" y="10" type="curve"/>
			<point x="257" y="10" type="line"/>
			<point x="285" y="-38"/>
			<point x="301" y="-78"/>
			<point x="301" y="-114" type="curve" smooth="yes"/>
			<point x="301" y="-144"/>
			<point x="287" y="-167"/>
		</contour>
	</outline>
	<anchor name="aboveUC" x="258" y="678"/>
	<anchor name="belowLC" x="258" y="-207"/>
</glyph>
<glyph name="Istroke" format="2">
	<unicode hex="0197"/>
	<advance width="298"/>
	<outline>
		<contour>
			<point x="32" y="313" type="line"/>
			<point x="265" y="313" type="line"/>
			<point x="265" y="378" type="line"/>
			<point x="112" y="378" type="line"/>
			<point x="32" y="374" type="line"/>
		</contour>
		<component base="I" xOffset="20"/>
	</outline>
	<anchor name="aboveUC" x="152" y="678"/>
	<anchor name="belowLC" x="152" y="-22"/>
</glyph>
<glyph name="lbar" format="2">
	<unicode hex="019A"/>
	<advance width="293"/>
	<outline>
		<contour>
			<point x="22" y="357" type="line"/>
			<point x="267" y="357" type="line"/>
			<point x="267" y="421" type="line"/>
			<point x="106" y="421" type="line"/>
			<point x="22" y="416" type="line"/>
		</contour>
		<component base="l" xOffset="24"/>
	</outline>
	<anchor name="aboveUC" x="148" y="728"/>
	<anchor name="belowLC" x="168" y="-22"/>
</glyph>
<glyph name="lambdastroke" format="2">
	<unicode hex="019B"/>
	<advance width="467"/>
	<outline>
		<contour>
			<point x="63" y="457" type="line"/>
			<point x="396" y="628" type="line"/>
			<point x="373" y="670" type="line"/>
			<point x="40" y="499" type="line"/>
		</contour>
		<component base="lambda.latin"/>
	</outline>
	<anchor name="aboveUC" x="195" y="726"/>
	<anchor name="belowLC" x="232" y="-22"/>
</glyph>
<glyph name="Ohorn" format="1">
	<unicode hex="01A0"/>
	<advance width="664"/>
	<outline>
		<contour>
			<point x="510" y="602" type="line"/>
			<point x="579" y="620"/>
			<point x="620" y="658"/>
			<point x="620" y="725" type="curve" smooth="yes"/>
			<point x="620" y="755"/>
			<point x="610" y="783"/>
			<point x="597" y="805" type="curve"/>
			<point x="532" y="777" type="line"/>
			<point x="540" y="761"/>
			<point x="546" y="739"/>
			<point x="546" y="719" type="curve" smooth="yes"/>
			<point x="546" y="672"/>
			<point x="519" y="647"/>
			<point x="462" y="636" type="curve"/>
		</contour>
		<component base="O" xOffset="3"/>
		<contour>
			<point name="aboveUC" x="335" y="678" type="move"/>
		</contour>
		<contour>
			<point name="belowLC" x="331" y="-22" type="move"/>
		</contour>
	</outline>
</glyph>
<glyph name="Uhorn" format="2">
	<unicode hex="01AF"/>
	<advance width="659"/>
	<outline>
		<contour>
			<point x="558" y="620" type="line"/>
			<point x="623" y="635"/>
			<point x="674" y="668"/>
			<point x="674" y="745" type="curve" smooth="yes"/>
			<point x="674" y="775"/>
			<point x="665" y="803"/>
			<point x="651" y="825" type="curve"/>
			<point x="586" y="797" type="line"/>
			<point x="595" y="781"/>
			<point x="601" y="759"/>
			<point x="601" y="739" type="curve" smooth="yes"/>
			<point x="601" y="683"/>
			<point x="566" y="663"/>
			<point x="511" y="656" type="curve"/>
		</contour>
		<component base="U"/>
	</outline>
	<anchor name="aboveUC" x="323" y="678"/>
	<anchor name="belowLC" x="322" y="-22"/>
</glyph>
<glyph name="uhorn" format="2">
	<unicode hex="01B0"/>
	<advance width="544"/>
	<outline>
		<contour>
			<point x="461" y="454" type="line"/>
			<point x="509" y="470"/>
			<point x="558" y="507"/>
			<point x="558" y="588" type="curve" smooth="yes"/>
			<point x="558" y="617"/>
			<point x="549" y="645"/>
			<point x="534" y="667" type="curve"/>
			<point x="471" y="637" type="line"/>
			<point x="479" y="621"/>
			<point x="485" y="601"/>
			<point x="485" y="582" type="curve" smooth="yes"/>
			<point x="485" y="516"/>
			<point x="448" y="493"/>
			<point x="401" y="486" type="curve"/>
		</contour>
		<component base="u"/>
	</outline>
	<anchor name="aboveLC" x="270" y="509"/>
	<anchor name="belowLC" x="283" y="-22"/>
</glyph>
<glyph name="wynn" format="2">
	<unicode hex="01BF"/>
	<advance width="542"/>
	<outline>
		<contour>
			<point x="82" y="-205" type="line"/>
			<point x="164" y="-205" type="line"/>
			<point x="164" y="-95" type="line"/>
			<point x="163" y="-12" type="line"/>
			<point x="363" y="38"/>
			<point x="495" y="173"/>
			<point x="495" y="329" type="curve" smooth="yes"/>
			<point x="495" y="431"/>
			<point x="434" y="498"/>
			<point x="330" y="498" type="curve" smooth="yes"/>
			<point x="261" y="498"/>
			<point x="211" y="468"/>
			<point x="160" y="408" type="curve"/>
			<point x="157" y="408" type="line"/>
			<point x="150" y="486" type="line"/>
			<point x="82" y="486" type="line"/>
		</contour>
		<contour>
			<point x="164" y="60" type="curve"/>
			<point x="164" y="335" type="line"/>
			<point x="223" y="410"/>
			<point x="265" y="429"/>
			<point x="309" y="429" type="curve" smooth="yes"/>
			<point x="378" y="429"/>
			<point x="410" y="382"/>
			<point x="410" y="317" type="curve" smooth="yes"/>
			<point x="410" y="206"/>
			<point x="308" y="100"/>
		</contour>
	</outline>
	<anchor name="aboveLC" x="295" y="509"/>
	<anchor name="belowLC" x="125" y="-207"/>
</glyph>
<glyph name="clickalveolar" format="2">
	<unicode hex="01C2"/>
	<advance width="385"/>
	<outline>
		<contour>
			<point x="29" y="241" type="line"/>
			<point x="357" y="241" type="line"/>
			<point x="357" y="306" type="line"/>
			<point x="107" y="306" type="line"/>
			<point x="29" y="301" type="line"/>
		</contour>
		<contour>
			<point x="29" y="405" type="line"/>
			<point x="357" y="405" type="line"/>
			<point x="357" y="470" type="line"/>
			<point x="107" y="470" type="line"/>
			<point x="29" y="464" type="line"/>
		</contour>
		<component base="l.a" xOffset="75"/>
	</outline>
	<anchor name="aboveUC" x="196" y="728"/>
	<anchor name="belowLC" x="196" y="-22"/>
</glyph>
<glyph name="clickretroflex" format="2">
	<unicode hex="01C3"/>
	<advance width="248"/>
	<outline>
		<contour>
			<point x="96" y="199" type="line"/>
			<point x="152" y="199" type="line"/>
			<point x="165" y="576" type="line"/>
			<point x="167" y="712" type="line"/>
			<point x="81" y="712" type="line"/>
			<point x="83" y="576" type="line"/>
		</contour>
		<contour>
			<point x="124" y="-12" type="curve" smooth="yes"/>
			<point x="157" y="-12"/>
			<point x="184" y="14"/>
			<point x="184" y="51" type="curve" smooth="yes"/>
			<point x="184" y="89"/>
			<point x="157" y="115"/>
			<point x="124" y="115" type="curve" smooth="yes"/>
			<point x="91" y="115"/>
			<point x="64" y="89"/>
			<point x="64" y="51" type="curve" smooth="yes"/>
			<point x="64" y="14"/>
			<point x="91" y="-12"/>
		</contour>
	</outline>
	<anchor name="aboveUC" x="124" y="726"/>
	<anchor name="belowLC" x="124" y="-22"/>
</glyph>
<glyph name="gstroke" format="2">
	<unicode hex="01E5"/>
	<advance width="578"/>
	<outline>
		<contour>
			<point x="277" y="226" type="line"/>
			<point x="554" y="226" type="line"/>
			<point x="554" y="291" type="line"/>
			<point x="391" y="291" type="line"/>
			<point x="277" y="285" type="line"/>
		</contour>
		<component base="gscript"/>
	</outline>
	<anchor name="aboveLC" x="277" y="509"/>
	<anchor name="belowLC" x="281" y="-207"/>
</glyph>
<glyph name="Oogonek" format="2">
	<unicode hex="01EA"/>
	<advance width="664"/>
	<outline>
		<contour>
			<point x="346" y="-219" type="curve" smooth="yes"/>
			<point x="380" y="-219"/>
			<point x="415" y="-204"/>
			<point x="436" y="-187" type="curve"/>
			<point x="413" y="-140" type="line"/>
			<point x="398" y="-151"/>
			<point x="382" y="-157"/>
			<point x="362" y="-157" type="curve" smooth="yes"/>
			<point x="334" y="-157"/>
			<point x="309" y="-142"/>
			<point x="309" y="-107" type="curve" smooth="yes"/>
			<point x="309" y="-76"/>
			<point x="334" y="-26"/>
			<point x="412" y="-1" type="curve" smooth="yes"/>
			<point x="524" y="35"/>
			<point x="613" y="141"/>
			<point x="613" y="331" type="curve" smooth="yes"/>
			<point x="613" y="540"/>
			<point x="497" y="668"/>
			<point x="332" y="668" type="curve" smooth="yes"/>
			<point x="167" y="668"/>
			<point x="52" y="541"/>
			<point x="52" y="331" type="curve" smooth="yes"/>
			<point x="52" y="120"/>
			<point x="167" y="-12"/>
			<point x="332" y="-12" type="curve"/>
			<point x="331" y="3" type="line"/>
			<point x="271" y="-28"/>
			<point x="241" y="-84"/>
			<point x="241" y="-127" type="curve" smooth="yes"/>
			<point x="241" y="-189"/>
			<point x="288" y="-219"/>
		</contour>
		<contour>
			<point x="332" y="60" type="curve" smooth="yes"/>
			<point x="215" y="60"/>
			<point x="138" y="166"/>
			<point x="138" y="331" type="curve" smooth="yes"/>
			<point x="138" y="494"/>
			<point x="215" y="595"/>
			<point x="332" y="595" type="curve" smooth="yes"/>
			<point x="449" y="595"/>
			<point x="526" y="494"/>
			<point x="526" y="331" type="curve" smooth="yes"/>
			<point x="526" y="166"/>
			<point x="449" y="60"/>
		</contour>
	</outline>
	<anchor name="aboveUC" x="330" y="678"/>
	<anchor name="belowLC" x="331" y="-222"/>
</glyph>
<glyph name="oogonek" format="2">
	<unicode hex="01EB"/>
	<advance width="542"/>
	<outline>
		<contour>
			<point x="282" y="-206" type="curve" smooth="yes"/>
			<point x="307" y="-206"/>
			<point x="340" y="-194"/>
			<point x="359" y="-179" type="curve"/>
			<point x="338" y="-138" type="line"/>
			<point x="326" y="-146"/>
			<point x="314" y="-151"/>
			<point x="298" y="-151" type="curve" smooth="yes"/>
			<point x="275" y="-151"/>
			<point x="252" y="-136"/>
			<point x="252" y="-104" type="curve" smooth="yes"/>
			<point x="252" y="-67"/>
			<point x="275" y="-27"/>
			<point x="340" y="-2" type="curve" smooth="yes"/>
			<point x="423" y="30"/>
			<point x="497" y="110"/>
			<point x="497" y="242" type="curve" smooth="yes"/>
			<point x="497" y="405"/>
			<point x="390" y="498"/>
			<point x="271" y="498" type="curve" smooth="yes"/>
			<point x="152" y="498"/>
			<point x="46" y="405"/>
			<point x="46" y="242" type="curve" smooth="yes"/>
			<point x="46" y="81"/>
			<point x="152" y="-12"/>
			<point x="271" y="-12" type="curve"/>
			<point x="271" y="3" type="line"/>
			<point x="220" y="-25"/>
			<point x="191" y="-78"/>
			<point x="191" y="-121" type="curve" smooth="yes"/>
			<point x="191" y="-177"/>
			<point x="231" y="-206"/>
		</contour>
		<contour>
			<point x="271" y="57" type="curve" smooth="yes"/>
			<point x="188" y="57"/>
			<point x="132" y="131"/>
			<point x="132" y="242" type="curve" smooth="yes"/>
			<point x="132" y="354"/>
			<point x="188" y="429"/>
			<point x="271" y="429" type="curve" smooth="yes"/>
			<point x="355" y="429"/>
			<point x="411" y="354"/>
			<point x="411" y="242" type="curve" smooth="yes"/>
			<point x="411" y="131"/>
			<point x="355" y="57"/>
		</contour>
	</outline>
	<anchor name="aboveLC" x="271" y="509"/>
</glyph>
<glyph name="yogh" format="2">
	<unicode hex="021D"/>
	<advance width="433"/>
	<outline>
		<contour>
			<point x="86" y="-217" type="line"/>
			<point x="302" y="-131"/>
			<point x="395" y="-42"/>
			<point x="395" y="74" type="curve" smooth="yes"/>
			<point x="395" y="165"/>
			<point x="332" y="210"/>
			<point x="240" y="210" type="curve"/>
			<point x="320" y="261"/>
			<point x="359" y="307"/>
			<point x="359" y="373" type="curve" smooth="yes"/>
			<point x="359" y="449"/>
			<point x="304" y="498"/>
			<point x="218" y="498" type="curve" smooth="yes"/>
			<point x="134" y="498"/>
			<point x="78" y="467"/>
			<point x="12" y="401" type="curve"/>
			<point x="50" y="357" type="line"/>
			<point x="104" y="408"/>
			<point x="144" y="433"/>
			<point x="200" y="433" type="curve" smooth="yes"/>
			<point x="248" y="433"/>
			<point x="278" y="404"/>
			<point x="278" y="354" type="curve" smooth="yes"/>
			<point x="278" y="300"/>
			<point x="248" y="258"/>
			<point x="94" y="172" type="curve"/>
			<point x="121" y="126" type="line"/>
			<point x="159" y="147"/>
			<point x="189" y="154"/>
			<point x="219" y="154" type="curve" smooth="yes"/>
			<point x="277" y="154"/>
			<point x="314" y="122"/>
			<point x="314" y="68" type="curve" smooth="yes"/>
			<point x="314" y="-4"/>
			<point x="249" y="-82"/>
			<point x="60" y="-161" type="curve"/>
		</contour>
	</outline>
	<anchor name="aboveLC" x="211" y="509"/>
	<anchor name="belowLC" x="225" y="-207"/>
</glyph>
<glyph name="Nlong" format="2">
	<unicode hex="0220"/>
	<advance width="656"/>
	<outline>
		<contour>
			<point x="486" y="-184" type="line"/>
			<point x="569" y="-184" type="line"/>
			<point x="569" y="374" type="line" smooth="yes"/>
			<point x="569" y="586"/>
			<point x="490" y="668"/>
			<point x="356" y="668" type="curve" smooth="yes"/>
			<point x="287" y="668"/>
			<point x="218" y="628"/>
			<point x="171" y="575" type="curve"/>
			<point x="171" y="656" type="line"/>
			<point x="90" y="656" type="line"/>
			<point x="90" y="0" type="line"/>
			<point x="173" y="0" type="line"/>
			<point x="173" y="497" type="line"/>
			<point x="213" y="554"/>
			<point x="283" y="595"/>
			<point x="335" y="595" type="curve" smooth="yes"/>
			<point x="432" y="595"/>
			<point x="486" y="539"/>
			<point x="486" y="367" type="curve" smooth="yes"/>
		</contour>
	</outline>
	<anchor name="aboveUC" x="345" y="678"/>
	<anchor name="belowLC" x="317" y="-148"/>
</glyph>
<glyph name="dotlessj" format="2">
	<unicode hex="0237"/>
	<advance width="247"/>
	<outline>
		<contour>
			<point x="32" y="-217" type="curve" smooth="yes"/>
			<point x="129" y="-217"/>
			<point x="165" y="-154"/>
			<point x="165" y="-55" type="curve" smooth="yes"/>
			<point x="165" y="486" type="line"/>
			<point x="83" y="486" type="line"/>
			<point x="83" y="-55" type="line" smooth="yes"/>
			<point x="83" y="-114"/>
			<point x="71" y="-150"/>
			<point x="23" y="-150" type="curve" smooth="yes"/>
			<point x="7" y="-150"/>
			<point x="-11" y="-146"/>
			<point x="-23" y="-142" type="curve"/>
			<point x="-40" y="-203" type="line"/>
			<point x="-23" y="-211"/>
			<point x="3" y="-217"/>
		</contour>
	</outline>
	<anchor name="aboveLC" x="125" y="509"/>
	<anchor name="belowLC" x="65" y="-211"/>
</glyph>
<glyph name="Astroke" format="2">
	<unicode hex="023A"/>
	<advance width="543"/>
	<outline>
		<contour>
			<point x="186" y="-30" type="line"/>
			<point x="394" y="676" type="line"/>
			<point x="356" y="686" type="line"/>
			<point x="147" y="-20" type="line"/>
		</contour>
		<component base="A"/>
	</outline>
	<anchor name="aboveUC" x="271" y="678"/>
	<anchor name="belowLC" x="271" y="-22"/>
</glyph>
<glyph name="Cstroke" format="2">
	<unicode hex="023B"/>
	<advance width="571"/>
	<outline>
		<contour>
			<point x="216" y="-51" type="line"/>
			<point x="453" y="696" type="line"/>
			<point x="413" y="706" type="line"/>
			<point x="176" y="-41" type="line"/>
		</contour>
		<component base="C"/>
	</outline>
	<anchor name="aboveUC" x="331" y="678"/>
	<anchor name="belowLC" x="344" y="-22"/>
</glyph>
<glyph name="cstroke" format="2">
	<unicode hex="023C"/>
	<advance width="456"/>
	<outline>
		<contour>
			<point x="175" y="-31" type="line"/>
			<point x="396" y="507" type="line"/>
			<point x="361" y="520" type="line"/>
			<point x="138" y="-19" type="line"/>
		</contour>
		<component base="c"/>
	</outline>
	<anchor name="aboveLC" x="274" y="509"/>
	<anchor name="belowLC" x="266" y="-22"/>
</glyph>
<glyph name="Lbar" format="2">
	<unicode hex="023D"/>
	<advance width="503"/>
	<outline>
		<contour>
			<point x="22" y="323" type="line"/>
			<point x="376" y="323" type="line"/>
			<point x="376" y="387" type="line"/>
			<point x="112" y="387" type="line"/>
			<point x="22" y="383" type="line"/>
		</contour>
		<component base="L" xOffset="20"/>
	</outline>
	<anchor name="aboveUC" x="155" y="678"/>
	<anchor name="belowLC" x="304" y="-22"/>
</glyph>
<glyph name="Tstroke" format="2">
	<unicode hex="023E"/>
	<advance width="536"/>
	<outline>
		<contour>
			<point x="65" y="-31" type="line"/>
			<point x="538" y="667" type="line"/>
			<point x="505" y="687" type="line"/>
			<point x="33" y="-11" type="line"/>
		</contour>
		<component base="T"/>
	</outline>
	<anchor name="aboveUC" x="267" y="678"/>
	<anchor name="belowLC" x="267" y="-22"/>
</glyph>
<glyph name="Glottalstop" format="2">
	<unicode hex="0241"/>
	<advance width="482"/>
	<outline>
		<contour>
			<point x="176" y="0" type="line"/>
			<point x="260" y="0" type="line"/>
			<point x="260" y="233" type="line"/>
			<point x="376" y="283"/>
			<point x="452" y="362"/>
			<point x="452" y="475" type="curve" smooth="yes"/>
			<point x="452" y="601"/>
			<point x="349" y="668"/>
			<point x="223" y="668" type="curve" smooth="yes"/>
			<point x="125" y="668"/>
			<point x="49" y="625"/>
			<point x="0" y="576" type="curve"/>
			<point x="46" y="521" type="line"/>
			<point x="87" y="561"/>
			<point x="150" y="594"/>
			<point x="218" y="594" type="curve" smooth="yes"/>
			<point x="309" y="594"/>
			<point x="365" y="546"/>
			<point x="365" y="470" type="curve" smooth="yes"/>
			<point x="365" y="388"/>
			<point x="314" y="325"/>
			<point x="176" y="274" type="curve"/>
		</contour>
	</outline>
	<anchor name="aboveUC" x="239" y="678"/>
	<anchor name="belowLC" x="215" y="-22"/>
</glyph>
<glyph name="glottalstoplatin" format="2">
	<unicode hex="0242"/>
	<advance width="428"/>
	<outline>
		<contour>
			<point x="152" y="0" type="line"/>
			<point x="235" y="0" type="line"/>
			<point x="235" y="156" type="line"/>
			<point x="320" y="199"/>
			<point x="379" y="253"/>
			<point x="379" y="343" type="curve" smooth="yes"/>
			<point x="379" y="443"/>
			<point x="297" y="498"/>
			<point x="198" y="498" type="curve" smooth="yes"/>
			<point x="116" y="498"/>
			<point x="58" y="460"/>
			<point x="18" y="418" type="curve"/>
			<point x="58" y="370" type="line"/>
			<point x="93" y="402"/>
			<point x="136" y="429"/>
			<point x="194" y="429" type="curve" smooth="yes"/>
			<point x="254" y="429"/>
			<point x="296" y="394"/>
			<point x="296" y="340" type="curve" smooth="yes"/>
			<point x="296" y="275"/>
			<point x="259" y="236"/>
			<point x="152" y="188" type="curve"/>
		</contour>
	</outline>
	<anchor name="aboveLC" x="209" y="509"/>
	<anchor name="belowLC" x="189" y="-22"/>
</glyph>
<glyph name="Bstroke" format="2">
	<unicode hex="0243"/>
	<advance width="602"/>
	<outline>
		<contour>
			<point x="107" y="0" type="line"/>
			<point x="316" y="0" type="line" smooth="yes"/>
			<point x="463" y="0"/>
			<point x="565" y="64"/>
			<point x="565" y="196" type="curve" smooth="yes"/>
			<point x="565" y="288"/>
			<point x="508" y="340"/>
			<point x="413" y="356" type="curve"/>
			<point x="413" y="360" type="line"/>
			<point x="490" y="380"/>
			<point x="527" y="434"/>
			<point x="527" y="498" type="curve" smooth="yes"/>
			<point x="527" y="610"/>
			<point x="435" y="656"/>
			<point x="301" y="656" type="curve" smooth="yes"/>
			<point x="107" y="656" type="line"/>
		</contour>
		<contour>
			<point x="190" y="383" type="line"/>
			<point x="190" y="592" type="line"/>
			<point x="291" y="592" type="line" smooth="yes"/>
			<point x="393" y="592"/>
			<point x="447" y="563"/>
			<point x="447" y="493" type="curve" smooth="yes"/>
			<point x="447" y="421"/>
			<point x="400" y="383"/>
			<point x="287" y="383" type="curve" smooth="yes"/>
		</contour>
		<contour>
			<point x="190" y="64" type="line"/>
			<point x="190" y="321" type="line"/>
			<point x="304" y="321" type="line" smooth="yes"/>
			<point x="419" y="321"/>
			<point x="485" y="283"/>
			<point x="485" y="200" type="curve" smooth="yes"/>
			<point x="485" y="108"/>
			<point x="417" y="64"/>
			<point x="304" y="64" type="curve" smooth="yes"/>
		</contour>
		<contour>
			<point x="30" y="168" type="line"/>
			<point x="341" y="168" type="line"/>
			<point x="341" y="231" type="line"/>
			<point x="108" y="231" type="line"/>
			<point x="30" y="228" type="line"/>
		</contour>
	</outline>
</glyph>
<glyph name="Ubar" format="2">
	<unicode hex="0244"/>
	<advance width="691"/>
	<outline>
		<contour>
			<point x="33" y="324" type="line"/>
			<point x="658" y="324" type="line"/>
			<point x="658" y="389" type="line"/>
			<point x="113" y="389" type="line"/>
			<point x="33" y="383" type="line"/>
		</contour>
		<component base="U" xOffset="24"/>
	</outline>
	<anchor name="aboveUC" x="346" y="678"/>
	<anchor name="belowLC" x="346" y="-22"/>
</glyph>
<glyph name="aturned" format="2">
	<unicode hex="0250"/>
	<advance width="511"/>
	<outline>
		<contour>
			<point x="270" y="-12" type="curve" smooth="yes"/>
			<point x="338" y="-12"/>
			<point x="406" y="21"/>
			<point x="450" y="51" type="curve"/>
			<point x="419" y="105" type="line"/>
			<point x="381" y="81"/>
			<point x="330" y="55"/>
			<point x="280" y="55" type="curve" smooth="yes"/>
			<point x="183" y="55"/>
			<point x="157" y="118"/>
			<point x="157" y="176" type="curve"/>
			<point x="363" y="201"/>
			<point x="455" y="260"/>
			<point x="455" y="372" type="curve" smooth="yes"/>
			<point x="455" y="453"/>
			<point x="400" y="498"/>
			<point x="324" y="498" type="curve" smooth="yes"/>
			<point x="259" y="498"/>
			<point x="199" y="466"/>
			<point x="152" y="418" type="curve"/>
			<point x="149" y="418" type="line"/>
			<point x="142" y="486" type="line"/>
			<point x="75" y="486" type="line"/>
			<point x="75" y="195" type="line" smooth="yes"/>
			<point x="75" y="72"/>
			<point x="132" y="-12"/>
		</contour>
		<contour>
			<point x="157" y="235" type="curve"/>
			<point x="157" y="357" type="line"/>
			<point x="206" y="409"/>
			<point x="253" y="432"/>
			<point x="298" y="432" type="curve" smooth="yes"/>
			<point x="341" y="432"/>
			<point x="375" y="412"/>
			<point x="375" y="360" type="curve" smooth="yes"/>
			<point x="375" y="297"/>
			<point x="320" y="256"/>
		</contour>
	</outline>
</glyph>
<glyph name="alphalatin" format="2">
	<unicode hex="0251"/>
	<advance width="560"/>
	<outline>
		<contour>
			<point x="248" y="-12" type="curve" smooth="yes"/>
			<point x="308" y="-12"/>
			<point x="360" y="22"/>
			<point x="397" y="60" type="curve"/>
			<point x="400" y="60" type="line"/>
			<point x="408" y="7"/>
			<point x="434" y="-12"/>
			<point x="478" y="-12" type="curve" smooth="yes"/>
			<point x="497" y="-12"/>
			<point x="510" y="-8"/>
			<point x="522" y="-4" type="curve"/>
			<point x="510" y="59" type="line"/>
			<point x="502" y="57"/>
			<point x="499" y="57"/>
			<point x="495" y="57" type="curve" smooth="yes"/>
			<point x="482" y="57"/>
			<point x="473" y="67"/>
			<point x="473" y="92" type="curve" smooth="yes"/>
			<point x="473" y="486" type="line"/>
			<point x="406" y="486" type="line"/>
			<point x="399" y="439" type="line"/>
			<point x="396" y="439" type="line"/>
			<point x="353" y="478"/>
			<point x="313" y="498"/>
			<point x="259" y="498" type="curve" smooth="yes"/>
			<point x="147" y="498"/>
			<point x="47" y="400"/>
			<point x="47" y="242" type="curve" smooth="yes"/>
			<point x="47" y="80"/>
			<point x="126" y="-12"/>
		</contour>
		<contour>
			<point x="266" y="58" type="curve" smooth="yes"/>
			<point x="181" y="58"/>
			<point x="133" y="127"/>
			<point x="133" y="243" type="curve" smooth="yes"/>
			<point x="133" y="354"/>
			<point x="195" y="428"/>
			<point x="272" y="428" type="curve" smooth="yes"/>
			<point x="312" y="428"/>
			<point x="349" y="415"/>
			<point x="390" y="378" type="curve"/>
			<point x="390" y="124" type="line"/>
			<point x="350" y="80"/>
			<point x="311" y="58"/>
		</contour>
	</outline>
	<anchor name="aboveLC" x="277" y="509"/>
	<anchor name="belowLC" x="281" y="-22"/>
</glyph>
<glyph name="alphalatinturned" format="1">
	<unicode hex="0252"/>
	<advance width="560"/>
	<outline>
		<contour>
			<point x="302" y="-12" type="curve" smooth="yes"/>
			<point x="413" y="-12"/>
			<point x="512" y="85"/>
			<point x="512" y="250" type="curve" smooth="yes"/>
			<point x="512" y="401"/>
			<point x="445" y="498"/>
			<point x="320" y="498" type="curve" smooth="yes"/>
			<point x="262" y="498"/>
			<point x="206" y="465"/>
			<point x="162" y="427" type="curve"/>
			<point x="160" y="427" type="line"/>
			<point x="152" y="479"/>
			<point x="126" y="498"/>
			<point x="82" y="498" type="curve" smooth="yes"/>
			<point x="63" y="498"/>
			<point x="50" y="494"/>
			<point x="39" y="490" type="curve"/>
			<point x="50" y="428" type="line"/>
			<point x="58" y="430"/>
			<point x="62" y="430"/>
			<point x="66" y="430" type="curve" smooth="yes"/>
			<point x="78" y="430"/>
			<point x="87" y="420"/>
			<point x="87" y="394" type="curve" smooth="yes"/>
			<point x="87" y="0" type="line"/>
			<point x="154" y="0" type="line"/>
			<point x="160" y="47" type="line"/>
			<point x="163" y="47" type="line"/>
			<point x="209" y="9"/>
			<point x="257" y="-12"/>
		</contour>
		<contour>
			<point x="288" y="57" type="curve" smooth="yes"/>
			<point x="256" y="57"/>
			<point x="213" y="71"/>
			<point x="169" y="108" type="curve"/>
			<point x="169" y="363" type="line"/>
			<point x="217" y="406"/>
			<point x="258" y="429"/>
			<point x="299" y="429" type="curve" smooth="yes"/>
			<point x="391" y="429"/>
			<point x="427" y="357"/>
			<point x="427" y="250" type="curve" smooth="yes"/>
			<point x="427" y="130"/>
			<point x="368" y="57"/>
		</contour>
		<contour>
			<point name="aboveLC" x="304" y="509" type="move"/>
		</contour>
		<contour>
			<point name="belowLC" x="286" y="-22" type="move"/>
		</contour>
	</outline>
</glyph>
<glyph name="bhook" format="2">
	<unicode hex="0253"/>
	<advance width="555"/>
	<outline>
		<contour>
			<point x="297" y="-12" type="curve" smooth="yes"/>
			<point x="408" y="-12"/>
			<point x="508" y="83"/>
			<point x="508" y="247" type="curve" smooth="yes"/>
			<point x="508" y="395"/>
			<point x="440" y="491"/>
			<point x="315" y="491" type="curve" smooth="yes"/>
			<point x="261" y="491"/>
			<point x="207" y="461"/>
			<point x="162" y="423" type="curve"/>
			<point x="164" y="536" type="line"/>
			<point x="166" y="612"/>
			<point x="195" y="657"/>
			<point x="259" y="657" type="curve" smooth="yes"/>
			<point x="277" y="657"/>
			<point x="296" y="653"/>
			<point x="314" y="644" type="curve"/>
			<point x="333" y="708" type="line"/>
			<point x="311" y="717"/>
			<point x="281" y="724"/>
			<point x="251" y="724" type="curve" smooth="yes"/>
			<point x="137" y="724"/>
			<point x="82" y="647"/>
			<point x="82" y="536" type="curve"/>
			<point x="82" y="0" type="line"/>
			<point x="148" y="0" type="line"/>
			<point x="156" y="48" type="line"/>
			<point x="159" y="48" type="line"/>
			<point x="202" y="10"/>
			<point x="252" y="-12"/>
		</contour>
		<contour>
			<point x="283" y="58" type="curve" smooth="yes"/>
			<point x="251" y="58"/>
			<point x="207" y="71"/>
			<point x="165" y="108" type="curve"/>
			<point x="165" y="355" type="line"/>
			<point x="211" y="398"/>
			<point x="253" y="421"/>
			<point x="294" y="421" type="curve" smooth="yes"/>
			<point x="385" y="421"/>
			<point x="422" y="350"/>
			<point x="422" y="246" type="curve" smooth="yes"/>
			<point x="422" y="129"/>
			<point x="363" y="58"/>
		</contour>
	</outline>
	<anchor name="aboveUC" x="295" y="726"/>
	<anchor name="belowLC" x="296" y="-22"/>
</glyph>
<glyph name="oopen" format="2">
	<unicode hex="0254"/>
	<advance width="456"/>
	<outline>
		<contour>
			<point x="188" y="-12" type="curve" smooth="yes"/>
			<point x="312" y="-12"/>
			<point x="410" y="81"/>
			<point x="410" y="242" type="curve" smooth="yes"/>
			<point x="410" y="407"/>
			<point x="307" y="498"/>
			<point x="191" y="498" type="curve" smooth="yes"/>
			<point x="118" y="498"/>
			<point x="72" y="475"/>
			<point x="34" y="441" type="curve"/>
			<point x="76" y="388" type="line"/>
			<point x="104" y="415"/>
			<point x="135" y="430"/>
			<point x="182" y="430" type="curve" smooth="yes"/>
			<point x="263" y="430"/>
			<point x="325" y="355"/>
			<point x="325" y="242" type="curve" smooth="yes"/>
			<point x="325" y="131"/>
			<point x="265" y="56"/>
			<point x="181" y="56" type="curve" smooth="yes"/>
			<point x="134" y="56"/>
			<point x="91" y="76"/>
			<point x="60" y="104" type="curve"/>
			<point x="25" y="50" type="line"/>
			<point x="69" y="6"/>
			<point x="127" y="-12"/>
		</contour>
	</outline>
	<anchor name="aboveLC" x="207" y="509"/>
	<anchor name="baseLC" x="197" y="0"/>
	<anchor name="belowLC" x="197" y="-22"/>
</glyph>
<glyph name="ccurl" format="2">
	<unicode hex="0255"/>
	<advance width="459"/>
	<outline>
		<contour>
			<point x="121" y="-70" type="line"/>
			<point x="174" y="66"/>
			<point x="254" y="152"/>
			<point x="334" y="152" type="curve" smooth="yes"/>
			<point x="364" y="152"/>
			<point x="379" y="140"/>
			<point x="379" y="119" type="curve" smooth="yes"/>
			<point x="379" y="83"/>
			<point x="338" y="54"/>
			<point x="280" y="54" type="curve" smooth="yes"/>
			<point x="195" y="54"/>
			<point x="128" y="131"/>
			<point x="128" y="243" type="curve" smooth="yes"/>
			<point x="128" y="356"/>
			<point x="193" y="433"/>
			<point x="283" y="433" type="curve" smooth="yes"/>
			<point x="324" y="433"/>
			<point x="356" y="417"/>
			<point x="383" y="392" type="curve"/>
			<point x="421" y="441" type="line"/>
			<point x="387" y="473"/>
			<point x="344" y="498"/>
			<point x="280" y="498" type="curve" smooth="yes"/>
			<point x="155" y="498"/>
			<point x="45" y="405"/>
			<point x="45" y="243" type="curve" smooth="yes"/>
			<point x="45" y="81"/>
			<point x="149" y="-12"/>
			<point x="275" y="-12" type="curve" smooth="yes"/>
			<point x="378" y="-12"/>
			<point x="443" y="46"/>
			<point x="443" y="116" type="curve" smooth="yes"/>
			<point x="443" y="173"/>
			<point x="408" y="214"/>
			<point x="341" y="214" type="curve" smooth="yes"/>
			<point x="228" y="214"/>
			<point x="126" y="116"/>
			<point x="63" y="-46" type="curve"/>
		</contour>
	</outline>
	<anchor name="aboveLC" x="277" y="509"/>
	<anchor name="belowLC" x="290" y="-22"/>
</glyph>
<glyph name="dtail" format="2">
	<unicode hex="0256"/>
	<advance width="555"/>
	<outline>
		<contour>
			<point x="514" y="-217" type="curve" smooth="yes"/>
			<point x="539" y="-217"/>
			<point x="562" y="-211"/>
			<point x="575" y="-204" type="curve"/>
			<point x="559" y="-141" type="line"/>
			<point x="549" y="-145"/>
			<point x="537" y="-149"/>
			<point x="523" y="-149" type="curve" smooth="yes"/>
			<point x="485" y="-149"/>
			<point x="473" y="-116"/>
			<point x="473" y="-61" type="curve"/>
			<point x="473" y="724" type="line"/>
			<point x="390" y="724" type="line"/>
			<point x="390" y="525" type="line"/>
			<point x="394" y="442" type="line"/>
			<point x="351" y="477"/>
			<point x="314" y="498"/>
			<point x="258" y="498" type="curve" smooth="yes"/>
			<point x="147" y="498"/>
			<point x="47" y="400"/>
			<point x="47" y="242" type="curve" smooth="yes"/>
			<point x="47" y="80"/>
			<point x="126" y="-12"/>
			<point x="248" y="-12" type="curve" smooth="yes"/>
			<point x="305" y="-12"/>
			<point x="354" y="18"/>
			<point x="394" y="56" type="curve"/>
			<point x="392" y="-80" type="line"/>
			<point x="392" y="-165"/>
			<point x="431" y="-217"/>
		</contour>
		<contour>
			<point x="266" y="58" type="curve" smooth="yes"/>
			<point x="181" y="58"/>
			<point x="133" y="127"/>
			<point x="133" y="243" type="curve" smooth="yes"/>
			<point x="133" y="354"/>
			<point x="195" y="428"/>
			<point x="272" y="428" type="curve" smooth="yes"/>
			<point x="312" y="428"/>
			<point x="349" y="415"/>
			<point x="390" y="378" type="curve"/>
			<point x="390" y="124" type="line"/>
			<point x="350" y="80"/>
			<point x="311" y="58"/>
		</contour>
	</outline>
	<anchor name="aboveUC" x="267" y="726"/>
	<anchor name="belowLC" x="277" y="-211"/>
</glyph>
<glyph name="dhook" format="1">
	<unicode hex="0257"/>
	<advance width="555"/>
	<outline>
		<contour>
			<point x="248" y="-12" type="curve" smooth="yes"/>
			<point x="305" y="-12"/>
			<point x="357" y="20"/>
			<point x="395" y="57" type="curve"/>
			<point x="398" y="57" type="line"/>
			<point x="405" y="0" type="line"/>
			<point x="473" y="0" type="line"/>
			<point x="473" y="567" type="line" smooth="yes"/>
			<point x="473" y="623"/>
			<point x="488" y="659"/>
			<point x="532" y="659" type="curve" smooth="yes"/>
			<point x="544" y="659"/>
			<point x="554" y="656"/>
			<point x="563" y="653" type="curve"/>
			<point x="579" y="716" type="line"/>
			<point x="564" y="722"/>
			<point x="546" y="726"/>
			<point x="523" y="726" type="curve" smooth="yes"/>
			<point x="434" y="726"/>
			<point x="392" y="668"/>
			<point x="393" y="575" type="curve" smooth="yes"/>
			<point x="394" y="442" type="line"/>
			<point x="351" y="477"/>
			<point x="314" y="498"/>
			<point x="258" y="498" type="curve" smooth="yes"/>
			<point x="147" y="498"/>
			<point x="47" y="400"/>
			<point x="47" y="242" type="curve" smooth="yes"/>
			<point x="47" y="80"/>
			<point x="126" y="-12"/>
		</contour>
		<contour>
			<point x="266" y="57" type="curve" smooth="yes"/>
			<point x="181" y="57"/>
			<point x="132" y="127"/>
			<point x="132" y="243" type="curve" smooth="yes"/>
			<point x="132" y="354"/>
			<point x="194" y="429"/>
			<point x="272" y="429" type="curve" smooth="yes"/>
			<point x="312" y="429"/>
			<point x="349" y="415"/>
			<point x="390" y="378" type="curve"/>
			<point x="390" y="124" type="line"/>
			<point x="350" y="79"/>
			<point x="311" y="57"/>
		</contour>
		<contour>
			<point name="aboveUC" x="267" y="726" type="move"/>
		</contour>
		<contour>
			<point name="belowLC" x="277" y="-22" type="move"/>
		</contour>
	</outline>
</glyph>
<glyph name="ereversed" format="2">
	<unicode hex="0258"/>
	<advance width="496"/>
	<outline>
		<contour>
			<point x="227" y="-12" type="curve" smooth="yes"/>
			<point x="351" y="-12"/>
			<point x="450" y="83"/>
			<point x="450" y="242" type="curve" smooth="yes"/>
			<point x="450" y="401"/>
			<point x="354" y="498"/>
			<point x="244" y="498" type="curve" smooth="yes"/>
			<point x="114" y="498"/>
			<point x="37" y="409"/>
			<point x="37" y="270" type="curve" smooth="yes"/>
			<point x="37" y="253"/>
			<point x="39" y="235"/>
			<point x="41" y="223" type="curve"/>
			<point x="390" y="223" type="line"/>
			<point x="390" y="282" type="line"/>
			<point x="110" y="282" type="line"/>
			<point x="110" y="380"/>
			<point x="158" y="433"/>
			<point x="242" y="433" type="curve" smooth="yes"/>
			<point x="308" y="433"/>
			<point x="373" y="375"/>
			<point x="371" y="244" type="curve" smooth="yes"/>
			<point x="370" y="117"/>
			<point x="300" y="54"/>
			<point x="217" y="54" type="curve" smooth="yes"/>
			<point x="166" y="54"/>
			<point x="122" y="66"/>
			<point x="85" y="90" type="curve"/>
			<point x="57" y="38" type="line"/>
			<point x="101" y="8"/>
			<point x="158" y="-12"/>
		</contour>
	</outline>
	<anchor name="aboveLC" x="245" y="509"/>
	<anchor name="belowLC" x="245" y="-22"/>
	<anchor name="ogonekLC" x="244" y="0"/>
</glyph>
<glyph name="schwa" format="2">
	<unicode hex="0259"/>
	<advance width="496"/>
	<outline>
		<contour>
			<point x="238" y="-12" type="curve" smooth="yes"/>
			<point x="352" y="-12"/>
			<point x="450" y="85"/>
			<point x="450" y="244" type="curve" smooth="yes"/>
			<point x="450" y="403"/>
			<point x="357" y="498"/>
			<point x="231" y="498" type="curve" smooth="yes"/>
			<point x="161" y="498"/>
			<point x="111" y="477"/>
			<point x="69" y="448" type="curve"/>
			<point x="97" y="396" type="line"/>
			<point x="132" y="419"/>
			<point x="172" y="433"/>
			<point x="221" y="433" type="curve" smooth="yes"/>
			<point x="306" y="433"/>
			<point x="370" y="369"/>
			<point x="371" y="242" type="curve" smooth="yes"/>
			<point x="373" y="111"/>
			<point x="307" y="54"/>
			<point x="236" y="54" type="curve" smooth="yes"/>
			<point x="158" y="54"/>
			<point x="110" y="114"/>
			<point x="110" y="211" type="curve"/>
			<point x="390" y="211" type="line"/>
			<point x="390" y="270" type="line"/>
			<point x="41" y="270" type="line"/>
			<point x="39" y="258"/>
			<point x="37" y="241"/>
			<point x="37" y="224" type="curve" smooth="yes"/>
			<point x="37" y="85"/>
			<point x="111" y="-12"/>
		</contour>
	</outline>
	<anchor name="aboveLC" x="247" y="509"/>
	<anchor name="belowLC" x="234" y="-22"/>
	<anchor name="ogonekLC" x="234" y="0"/>
</glyph>
<glyph name="schwahookrhotic" format="2">
	<unicode hex="025A"/>
	<advance width="668"/>
	<outline>
		<contour>
			<point x="245" y="-12" type="curve" smooth="yes"/>
			<point x="372" y="-12"/>
			<point x="450" y="102"/>
			<point x="450" y="240" type="curve" smooth="yes"/>
			<point x="450" y="403"/>
			<point x="362" y="498"/>
			<point x="232" y="498" type="curve" smooth="yes"/>
			<point x="168" y="498"/>
			<point x="114" y="478"/>
			<point x="68" y="446" type="curve"/>
			<point x="98" y="391" type="line"/>
			<point x="134" y="415"/>
			<point x="174" y="430"/>
			<point x="223" y="430" type="curve" smooth="yes"/>
			<point x="308" y="430"/>
			<point x="367" y="370"/>
			<point x="367" y="233" type="curve" smooth="yes"/>
			<point x="367" y="134"/>
			<point x="324" y="55"/>
			<point x="245" y="55" type="curve" smooth="yes"/>
			<point x="171" y="55"/>
			<point x="126" y="95"/>
			<point x="113" y="165" type="curve"/>
			<point x="522" y="323" type="line"/>
			<point x="522" y="308" type="line" smooth="yes"/>
			<point x="522" y="224"/>
			<point x="565" y="194"/>
			<point x="613" y="194" type="curve" smooth="yes"/>
			<point x="645" y="194"/>
			<point x="667" y="206"/>
			<point x="684" y="217" type="curve"/>
			<point x="661" y="260" type="line"/>
			<point x="653" y="253"/>
			<point x="640" y="248"/>
			<point x="623" y="248" type="curve" smooth="yes"/>
			<point x="590" y="248"/>
			<point x="571" y="270"/>
			<point x="571" y="344" type="curve" smooth="yes"/>
			<point x="571" y="359"/>
			<point x="572" y="374"/>
			<point x="574" y="395" type="curve"/>
			<point x="563" y="403" type="line"/>
			<point x="37" y="199" type="line"/>
			<point x="46" y="80"/>
			<point x="111" y="-12"/>
		</contour>
	</outline>
	<anchor name="aboveLC" x="235" y="509"/>
	<anchor name="belowLC" x="264" y="-22"/>
</glyph>
<glyph name="eopen" format="2">
	<unicode hex="025B"/>
	<advance width="432"/>
	<outline>
		<contour>
			<point x="241" y="-12" type="curve" smooth="yes"/>
			<point x="312" y="-12"/>
			<point x="362" y="4"/>
			<point x="412" y="45" type="curve"/>
			<point x="382" y="95" type="line"/>
			<point x="338" y="65"/>
			<point x="300" y="55"/>
			<point x="254" y="55" type="curve" smooth="yes"/>
			<point x="179" y="55"/>
			<point x="129" y="87"/>
			<point x="129" y="140" type="curve" smooth="yes"/>
			<point x="129" y="192"/>
			<point x="173" y="221"/>
			<point x="252" y="221" type="curve" smooth="yes"/>
			<point x="318" y="221" type="line"/>
			<point x="318" y="284" type="line"/>
			<point x="267" y="284" type="line" smooth="yes"/>
			<point x="191" y="284"/>
			<point x="155" y="315"/>
			<point x="155" y="358" type="curve" smooth="yes"/>
			<point x="155" y="407"/>
			<point x="197" y="432"/>
			<point x="252" y="432" type="curve" smooth="yes"/>
			<point x="295" y="432"/>
			<point x="328" y="423"/>
			<point x="364" y="398" type="curve"/>
			<point x="396" y="449" type="line"/>
			<point x="355" y="480"/>
			<point x="307" y="498"/>
			<point x="247" y="498" type="curve" smooth="yes"/>
			<point x="153" y="498"/>
			<point x="72" y="454"/>
			<point x="72" y="368" type="curve" smooth="yes"/>
			<point x="72" y="322"/>
			<point x="102" y="278"/>
			<point x="154" y="260" type="curve"/>
			<point x="154" y="256" type="line"/>
			<point x="98" y="242"/>
			<point x="47" y="202"/>
			<point x="47" y="130" type="curve" smooth="yes"/>
			<point x="47" y="42"/>
			<point x="133" y="-12"/>
		</contour>
	</outline>
</glyph>
<glyph name="eopenreversed" format="2">
	<unicode hex="025C"/>
	<advance width="444"/>
	<outline>
		<contour>
			<point x="204" y="-12" type="curve" smooth="yes"/>
			<point x="312" y="-12"/>
			<point x="397" y="44"/>
			<point x="397" y="133" type="curve" smooth="yes"/>
			<point x="397" y="203"/>
			<point x="346" y="242"/>
			<point x="291" y="256" type="curve"/>
			<point x="291" y="260" type="line"/>
			<point x="342" y="278"/>
			<point x="371" y="322"/>
			<point x="371" y="370" type="curve" smooth="yes"/>
			<point x="371" y="455"/>
			<point x="294" y="498"/>
			<point x="202" y="498" type="curve" smooth="yes"/>
			<point x="141" y="498"/>
			<point x="91" y="481"/>
			<point x="48" y="448" type="curve"/>
			<point x="80" y="397" type="line"/>
			<point x="118" y="423"/>
			<point x="153" y="433"/>
			<point x="197" y="433" type="curve" smooth="yes"/>
			<point x="249" y="433"/>
			<point x="289" y="407"/>
			<point x="289" y="361" type="curve" smooth="yes"/>
			<point x="289" y="316"/>
			<point x="253" y="284"/>
			<point x="177" y="284" type="curve" smooth="yes"/>
			<point x="125" y="284" type="line"/>
			<point x="125" y="221" type="line"/>
			<point x="191" y="221" type="line" smooth="yes"/>
			<point x="272" y="221"/>
			<point x="315" y="192"/>
			<point x="315" y="141" type="curve" smooth="yes"/>
			<point x="315" y="88"/>
			<point x="265" y="54"/>
			<point x="190" y="54" type="curve" smooth="yes"/>
			<point x="145" y="54"/>
			<point x="105" y="65"/>
			<point x="62" y="95" type="curve"/>
			<point x="31" y="45" type="line"/>
			<point x="82" y="4"/>
			<point x="133" y="-12"/>
		</contour>
	</outline>
	<anchor name="aboveLC" x="212" y="509"/>
	<anchor name="belowLC" x="215" y="-22"/>
</glyph>
<glyph name="eopenreversedclosed" format="2">
	<unicode hex="025E"/>
	<advance width="546"/>
	<outline>
		<contour>
			<point x="284" y="-12" type="curve" smooth="yes"/>
			<point x="414" y="-12"/>
			<point x="497" y="44"/>
			<point x="497" y="134" type="curve" smooth="yes"/>
			<point x="497" y="204"/>
			<point x="445" y="241"/>
			<point x="389" y="256" type="curve"/>
			<point x="389" y="260" type="line"/>
			<point x="442" y="278"/>
			<point x="471" y="322"/>
			<point x="471" y="367" type="curve" smooth="yes"/>
			<point x="471" y="456"/>
			<point x="391" y="498"/>
			<point x="293" y="498" type="curve" smooth="yes"/>
			<point x="161" y="498"/>
			<point x="46" y="403"/>
			<point x="46" y="222" type="curve" smooth="yes"/>
			<point x="46" y="65"/>
			<point x="148" y="-12"/>
		</contour>
		<contour>
			<point x="288" y="54" type="curve" smooth="yes"/>
			<point x="196" y="54"/>
			<point x="131" y="105"/>
			<point x="131" y="226" type="curve" smooth="yes"/>
			<point x="131" y="361"/>
			<point x="200" y="433"/>
			<point x="293" y="433" type="curve" smooth="yes"/>
			<point x="347" y="433"/>
			<point x="389" y="407"/>
			<point x="389" y="357" type="curve" smooth="yes"/>
			<point x="389" y="313"/>
			<point x="355" y="282"/>
			<point x="280" y="282" type="curve" smooth="yes"/>
			<point x="253" y="282" type="line"/>
			<point x="253" y="223" type="line"/>
			<point x="295" y="223" type="line" smooth="yes"/>
			<point x="371" y="223"/>
			<point x="415" y="194"/>
			<point x="415" y="141" type="curve" smooth="yes"/>
			<point x="415" y="88"/>
			<point x="373" y="54"/>
		</contour>
	</outline>
	<anchor name="aboveLC" x="297" y="509"/>
	<anchor name="belowLC" x="277" y="-22"/>
</glyph>
<glyph name="dotlessjstroke" format="1">
	<unicode hex="025F"/>
	<advance width="270"/>
	<outline>
		<contour>
			<point x="8" y="231" type="line"/>
			<point x="259" y="231" type="line"/>
			<point x="259" y="279" type="line"/>
			<point x="96" y="279" type="line"/>
			<point x="8" y="274" type="line"/>
		</contour>
		<component base="dotlessj" xOffset="11"/>
		<contour>
			<point name="aboveLC" x="136" y="509" type="move"/>
		</contour>
	</outline>
</glyph>
<glyph name="ghook" format="2">
	<unicode hex="0260"/>
	<advance width="555"/>
	<outline>
		<contour>
			<point x="257" y="-220" type="curve" smooth="yes"/>
			<point x="395" y="-220"/>
			<point x="473" y="-144"/>
			<point x="473" y="-20" type="curve" smooth="yes"/>
			<point x="473" y="509" type="line" smooth="yes"/>
			<point x="473" y="564"/>
			<point x="487" y="601"/>
			<point x="527" y="601" type="curve" smooth="yes"/>
			<point x="543" y="601"/>
			<point x="553" y="597"/>
			<point x="563" y="593" type="curve"/>
			<point x="579" y="657" type="line"/>
			<point x="564" y="663"/>
			<point x="545" y="668"/>
			<point x="523" y="668" type="curve" smooth="yes"/>
			<point x="433" y="668"/>
			<point x="392" y="609"/>
			<point x="392" y="522" type="curve"/>
			<point x="393" y="442" type="line"/>
			<point x="350" y="477"/>
			<point x="313" y="498"/>
			<point x="259" y="498" type="curve" smooth="yes"/>
			<point x="148" y="498"/>
			<point x="47" y="402"/>
			<point x="47" y="250" type="curve" smooth="yes"/>
			<point x="47" y="97"/>
			<point x="126" y="5"/>
			<point x="248" y="5" type="curve" smooth="yes"/>
			<point x="305" y="5"/>
			<point x="355" y="34"/>
			<point x="392" y="70" type="curve"/>
			<point x="390" y="-21" type="line" smooth="yes"/>
			<point x="389" y="-101"/>
			<point x="346" y="-153"/>
			<point x="257" y="-153" type="curve" smooth="yes"/>
			<point x="210" y="-153"/>
			<point x="160" y="-140"/>
			<point x="113" y="-108" type="curve"/>
			<point x="82" y="-166" type="line"/>
			<point x="134" y="-201"/>
			<point x="196" y="-220"/>
		</contour>
		<contour>
			<point x="266" y="74" type="curve" smooth="yes"/>
			<point x="181" y="74"/>
			<point x="132" y="143"/>
			<point x="132" y="251" type="curve" smooth="yes"/>
			<point x="132" y="355"/>
			<point x="194" y="428"/>
			<point x="272" y="428" type="curve" smooth="yes"/>
			<point x="312" y="428"/>
			<point x="349" y="415"/>
			<point x="390" y="378" type="curve"/>
			<point x="390" y="141" type="line"/>
			<point x="349" y="96"/>
			<point x="311" y="74"/>
		</contour>
	</outline>
	<anchor name="aboveLC" x="246" y="509"/>
	<anchor name="belowLC" x="281" y="-211"/>
</glyph>
<glyph name="gscript" format="2">
	<unicode hex="0261"/>
	<advance width="555"/>
	<outline>
		<contour>
			<point x="257" y="-220" type="curve" smooth="yes"/>
			<point x="394" y="-220"/>
			<point x="473" y="-145"/>
			<point x="473" y="-21" type="curve" smooth="yes"/>
			<point x="473" y="486" type="line"/>
			<point x="404" y="486" type="line"/>
			<point x="397" y="441" type="line"/>
			<point x="395" y="441" type="line"/>
			<point x="353" y="478"/>
			<point x="313" y="498"/>
			<point x="259" y="498" type="curve" smooth="yes"/>
			<point x="148" y="498"/>
			<point x="47" y="402"/>
			<point x="47" y="250" type="curve" smooth="yes"/>
			<point x="47" y="97"/>
			<point x="126" y="5"/>
			<point x="248" y="5" type="curve" smooth="yes"/>
			<point x="305" y="5"/>
			<point x="355" y="34"/>
			<point x="392" y="70" type="curve"/>
			<point x="390" y="-22" type="line"/>
			<point x="389" y="-102"/>
			<point x="346" y="-154"/>
			<point x="257" y="-154" type="curve" smooth="yes"/>
			<point x="210" y="-154"/>
			<point x="160" y="-140"/>
			<point x="113" y="-109" type="curve"/>
			<point x="82" y="-167" type="line"/>
			<point x="134" y="-201"/>
			<point x="196" y="-220"/>
		</contour>
		<contour>
			<point x="266" y="73" type="curve" smooth="yes"/>
			<point x="181" y="73"/>
			<point x="132" y="142"/>
			<point x="132" y="251" type="curve" smooth="yes"/>
			<point x="132" y="355"/>
			<point x="193" y="429"/>
			<point x="272" y="429" type="curve" smooth="yes"/>
			<point x="312" y="429"/>
			<point x="349" y="415"/>
			<point x="390" y="378" type="curve"/>
			<point x="390" y="140" type="line"/>
			<point x="349" y="95"/>
			<point x="311" y="73"/>
		</contour>
	</outline>
	<anchor name="aboveLC" x="277" y="509"/>
	<anchor name="belowLC" x="281" y="-211"/>
</glyph>
<glyph name="gsmall" format="2">
	<unicode hex="0262"/>
	<advance width="498"/>
	<outline>
		<contour>
			<point x="281" y="-12" type="curve" smooth="yes"/>
			<point x="353" y="-12"/>
			<point x="413" y="16"/>
			<point x="449" y="51" type="curve"/>
			<point x="449" y="265" type="line"/>
			<point x="268" y="265" type="line"/>
			<point x="268" y="201" type="line"/>
			<point x="376" y="201" type="line"/>
			<point x="376" y="84" type="line"/>
			<point x="356" y="67"/>
			<point x="324" y="55"/>
			<point x="287" y="55" type="curve" smooth="yes"/>
			<point x="192" y="55"/>
			<point x="130" y="126"/>
			<point x="130" y="244" type="curve" smooth="yes"/>
			<point x="130" y="364"/>
			<point x="201" y="432"/>
			<point x="290" y="432" type="curve" smooth="yes"/>
			<point x="341" y="432"/>
			<point x="372" y="411"/>
			<point x="400" y="386" type="curve"/>
			<point x="441" y="438" type="line"/>
			<point x="406" y="469"/>
			<point x="360" y="498"/>
			<point x="285" y="498" type="curve" smooth="yes"/>
			<point x="153" y="498"/>
			<point x="46" y="403"/>
			<point x="46" y="244" type="curve" smooth="yes"/>
			<point x="46" y="77"/>
			<point x="150" y="-12"/>
		</contour>
	</outline>
	<anchor name="aboveLC" x="277" y="509"/>
	<anchor name="belowLC" x="274" y="-22"/>
</glyph>
<glyph name="gammalatin" format="2">
	<unicode hex="0263"/>
	<advance width="468"/>
	<outline>
		<contour>
			<point x="236" y="-224" type="curve" smooth="yes"/>
			<point x="309" y="-224"/>
			<point x="351" y="-177"/>
			<point x="351" y="-109" type="curve" smooth="yes"/>
			<point x="351" y="-59"/>
			<point x="325" y="-8"/>
			<point x="279" y="77" type="curve"/>
			<point x="279" y="28" type="line"/>
			<point x="456" y="486" type="line"/>
			<point x="374" y="486" type="line"/>
			<point x="283" y="228" type="line"/>
			<point x="268" y="183"/>
			<point x="252" y="149"/>
			<point x="238" y="104" type="curve"/>
			<point x="234" y="104" type="line"/>
			<point x="219" y="149"/>
			<point x="204" y="183"/>
			<point x="189" y="228" type="curve"/>
			<point x="98" y="486" type="line"/>
			<point x="12" y="486" type="line"/>
			<point x="193" y="28" type="line"/>
			<point x="193" y="78" type="line"/>
			<point x="147" y="-8"/>
			<point x="121" y="-59"/>
			<point x="121" y="-109" type="curve" smooth="yes"/>
			<point x="121" y="-177"/>
			<point x="163" y="-224"/>
		</contour>
		<contour>
			<point x="236" y="-166" type="curve" smooth="yes"/>
			<point x="207" y="-166"/>
			<point x="193" y="-144"/>
			<point x="193" y="-113" type="curve" smooth="yes"/>
			<point x="193" y="-78"/>
			<point x="207" y="-36"/>
			<point x="233" y="12" type="curve"/>
			<point x="238" y="12" type="line"/>
			<point x="265" y="-36"/>
			<point x="279" y="-78"/>
			<point x="279" y="-113" type="curve" smooth="yes"/>
			<point x="279" y="-144"/>
			<point x="265" y="-166"/>
		</contour>
	</outline>
	<anchor name="aboveLC" x="232" y="509"/>
	<anchor name="belowLC" x="232" y="-218"/>
</glyph>
<glyph name="ramshorn" format="2">
	<unicode hex="0264"/>
	<advance width="512"/>
	<outline>
		<contour>
			<point x="256" y="-12" type="curve" smooth="yes"/>
			<point x="369" y="-12"/>
			<point x="429" y="53"/>
			<point x="429" y="151" type="curve" smooth="yes"/>
			<point x="429" y="221"/>
			<point x="379" y="298"/>
			<point x="309" y="363" type="curve"/>
			<point x="347" y="404"/>
			<point x="383" y="429"/>
			<point x="423" y="429" type="curve" smooth="yes"/>
			<point x="440" y="429"/>
			<point x="457" y="425"/>
			<point x="470" y="416" type="curve"/>
			<point x="496" y="476" type="line"/>
			<point x="477" y="489"/>
			<point x="448" y="498"/>
			<point x="419" y="498" type="curve" smooth="yes"/>
			<point x="367" y="498"/>
			<point x="311" y="466"/>
			<point x="256" y="411" type="curve"/>
			<point x="200" y="466"/>
			<point x="145" y="498"/>
			<point x="93" y="498" type="curve" smooth="yes"/>
			<point x="64" y="498"/>
			<point x="35" y="489"/>
			<point x="16" y="476" type="curve"/>
			<point x="42" y="416" type="line"/>
			<point x="55" y="425"/>
			<point x="71" y="429"/>
			<point x="89" y="429" type="curve" smooth="yes"/>
			<point x="128" y="429"/>
			<point x="165" y="404"/>
			<point x="203" y="363" type="curve"/>
			<point x="131" y="298"/>
			<point x="82" y="221"/>
			<point x="82" y="151" type="curve" smooth="yes"/>
			<point x="82" y="53"/>
			<point x="143" y="-12"/>
		</contour>
		<contour>
			<point x="256" y="54" type="curve" smooth="yes"/>
			<point x="193" y="54"/>
			<point x="162" y="99"/>
			<point x="162" y="154" type="curve" smooth="yes"/>
			<point x="162" y="213"/>
			<point x="203" y="274"/>
			<point x="256" y="324" type="curve"/>
			<point x="308" y="274"/>
			<point x="350" y="213"/>
			<point x="350" y="154" type="curve" smooth="yes"/>
			<point x="350" y="99"/>
			<point x="319" y="54"/>
		</contour>
	</outline>
	<anchor name="aboveLC" x="256" y="509"/>
	<anchor name="belowLC" x="256" y="-22"/>
</glyph>
